%TF.GenerationSoftware,KiCad,Pcbnew,7.0.10-7.0.10~ubuntu20.04.1*%
%TF.CreationDate,2024-02-18T22:33:08+01:00*%
%TF.ProjectId,ESP32Hardware,45535033-3248-4617-9264-776172652e6b,rev?*%
%TF.SameCoordinates,Original*%
%TF.FileFunction,Drillmap*%
%TF.FilePolarity,Positive*%
%FSLAX45Y45*%
G04 Gerber Fmt 4.5, Leading zero omitted, Abs format (unit mm)*
G04 Created by KiCad (PCBNEW 7.0.10-7.0.10~ubuntu20.04.1) date 2024-02-18 22:33:08*
%MOMM*%
%LPD*%
G01*
G04 APERTURE LIST*
%ADD10C,0.050000*%
%ADD11C,0.200000*%
%ADD12C,0.100000*%
%ADD13C,0.130000*%
G04 APERTURE END LIST*
D10*
X9570000Y-13260000D02*
X9570000Y-13209200D01*
X9570000Y-7418000D02*
X16840200Y-7416800D01*
X16840200Y-13258800D02*
X9570000Y-13260000D01*
X16840200Y-7416800D02*
X16840200Y-13258800D01*
X9570000Y-7418000D02*
X9570000Y-13209200D01*
D11*
D12*
X10426240Y-10332540D02*
X10466240Y-10372540D01*
X10466240Y-10332540D02*
X10426240Y-10372540D01*
X10434310Y-13013550D02*
X10474310Y-13053550D01*
X10474310Y-13013550D02*
X10434310Y-13053550D01*
X10435890Y-7652000D02*
X10475890Y-7692000D01*
X10475890Y-7652000D02*
X10435890Y-7692000D01*
X10437610Y-8374980D02*
X10477610Y-8414980D01*
X10477610Y-8374980D02*
X10437610Y-8414980D01*
X10438130Y-8150520D02*
X10478130Y-8190520D01*
X10478130Y-8150520D02*
X10438130Y-8190520D01*
X10962490Y-10383460D02*
X11002490Y-10423460D01*
X11002490Y-10383460D02*
X10962490Y-10423460D01*
X11003970Y-10828870D02*
X11043970Y-10868870D01*
X11043970Y-10828870D02*
X11003970Y-10868870D01*
X11152300Y-10739700D02*
X11192300Y-10779700D01*
X11192300Y-10739700D02*
X11152300Y-10779700D01*
X11185640Y-8046570D02*
X11225640Y-8086570D01*
X11225640Y-8046570D02*
X11185640Y-8086570D01*
X11205000Y-11814040D02*
X11245000Y-11854040D01*
X11245000Y-11814040D02*
X11205000Y-11854040D01*
X11234550Y-11026160D02*
X11274550Y-11066160D01*
X11274550Y-11026160D02*
X11234550Y-11066160D01*
X11340540Y-12687980D02*
X11380540Y-12727980D01*
X11380540Y-12687980D02*
X11340540Y-12727980D01*
X11350920Y-9885210D02*
X11390920Y-9925210D01*
X11390920Y-9885210D02*
X11350920Y-9925210D01*
X11390900Y-8723060D02*
X11430900Y-8763060D01*
X11430900Y-8723060D02*
X11390900Y-8763060D01*
X11532880Y-10951450D02*
X11572880Y-10991450D01*
X11572880Y-10951450D02*
X11532880Y-10991450D01*
X11678570Y-8804120D02*
X11718570Y-8844120D01*
X11718570Y-8804120D02*
X11678570Y-8844120D01*
X11785640Y-12395350D02*
X11825640Y-12435350D01*
X11825640Y-12395350D02*
X11785640Y-12435350D01*
X11809670Y-9672850D02*
X11849670Y-9712850D01*
X11849670Y-9672850D02*
X11809670Y-9712850D01*
X11845290Y-9520470D02*
X11885290Y-9560470D01*
X11885290Y-9520470D02*
X11845290Y-9560470D01*
X11915610Y-8525920D02*
X11955610Y-8565920D01*
X11955610Y-8525920D02*
X11915610Y-8565920D01*
X12000370Y-9618290D02*
X12040370Y-9658290D01*
X12040370Y-9618290D02*
X12000370Y-9658290D01*
X12118990Y-9681430D02*
X12158990Y-9721430D01*
X12158990Y-9681430D02*
X12118990Y-9721430D01*
X12157150Y-10485690D02*
X12197150Y-10525690D01*
X12197150Y-10485690D02*
X12157150Y-10525690D01*
X12310690Y-10613260D02*
X12350690Y-10653260D01*
X12350690Y-10613260D02*
X12310690Y-10653260D01*
X12313910Y-8898800D02*
X12353910Y-8938800D01*
X12353910Y-8898800D02*
X12313910Y-8938800D01*
X12332630Y-9684350D02*
X12372630Y-9724350D01*
X12372630Y-9684350D02*
X12332630Y-9724350D01*
X12360980Y-10274190D02*
X12400980Y-10314190D01*
X12400980Y-10274190D02*
X12360980Y-10314190D01*
X12383470Y-7674450D02*
X12423470Y-7714450D01*
X12423470Y-7674450D02*
X12383470Y-7714450D01*
X12389680Y-11998200D02*
X12429680Y-12038200D01*
X12429680Y-11998200D02*
X12389680Y-12038200D01*
X12468170Y-10615110D02*
X12508170Y-10655110D01*
X12508170Y-10615110D02*
X12468170Y-10655110D01*
X12487360Y-10337810D02*
X12527360Y-10377810D01*
X12527360Y-10337810D02*
X12487360Y-10377810D01*
X12630990Y-8031800D02*
X12670990Y-8071800D01*
X12670990Y-8031800D02*
X12630990Y-8071800D01*
X12635700Y-10339450D02*
X12675700Y-10379450D01*
X12675700Y-10339450D02*
X12635700Y-10379450D01*
X12845120Y-9967110D02*
X12885120Y-10007110D01*
X12885120Y-9967110D02*
X12845120Y-10007110D01*
X12985550Y-9782520D02*
X13025550Y-9822520D01*
X13025550Y-9782520D02*
X12985550Y-9822520D01*
X13068470Y-7953120D02*
X13108470Y-7993120D01*
X13108470Y-7953120D02*
X13068470Y-7993120D01*
X13120720Y-9968010D02*
X13160720Y-10008010D01*
X13160720Y-9968010D02*
X13120720Y-10008010D01*
X13170400Y-9844910D02*
X13210400Y-9884910D01*
X13210400Y-9844910D02*
X13170400Y-9884910D01*
X13211610Y-9621520D02*
X13251610Y-9661520D01*
X13251610Y-9621520D02*
X13211610Y-9661520D01*
X13444910Y-12157160D02*
X13484910Y-12197160D01*
X13484910Y-12157160D02*
X13444910Y-12197160D01*
X13495830Y-11032980D02*
X13535830Y-11072980D01*
X13535830Y-11032980D02*
X13495830Y-11072980D01*
X13632630Y-9367470D02*
X13672630Y-9407470D01*
X13672630Y-9367470D02*
X13632630Y-9407470D01*
X13646880Y-11127370D02*
X13686880Y-11167370D01*
X13686880Y-11127370D02*
X13646880Y-11167370D01*
X14872930Y-11080670D02*
X14912930Y-11120670D01*
X14912930Y-11080670D02*
X14872930Y-11120670D01*
X14185300Y-9092700D02*
G75*
G03*
X14110300Y-9092700I-37500J0D01*
G01*
X14110300Y-9092700D02*
G75*
G03*
X14185300Y-9092700I37500J0D01*
G01*
X14185300Y-9854700D02*
G75*
G03*
X14110300Y-9854700I-37500J0D01*
G01*
X14110300Y-9854700D02*
G75*
G03*
X14185300Y-9854700I37500J0D01*
G01*
X14794900Y-9296400D02*
G75*
G03*
X14719900Y-9296400I-37500J0D01*
G01*
X14719900Y-9296400D02*
G75*
G03*
X14794900Y-9296400I37500J0D01*
G01*
X14794900Y-9423400D02*
G75*
G03*
X14719900Y-9423400I-37500J0D01*
G01*
X14719900Y-9423400D02*
G75*
G03*
X14794900Y-9423400I37500J0D01*
G01*
X14794900Y-9550400D02*
G75*
G03*
X14719900Y-9550400I-37500J0D01*
G01*
X14719900Y-9550400D02*
G75*
G03*
X14794900Y-9550400I37500J0D01*
G01*
X11507200Y-11238100D02*
X11507200Y-11318100D01*
X11467200Y-11278100D02*
X11547200Y-11278100D01*
X11507200Y-12762100D02*
X11507200Y-12842100D01*
X11467200Y-12802100D02*
X11547200Y-12802100D01*
X11761200Y-11238100D02*
X11761200Y-11318100D01*
X11721200Y-11278100D02*
X11801200Y-11278100D01*
X11761200Y-12762100D02*
X11761200Y-12842100D01*
X11721200Y-12802100D02*
X11801200Y-12802100D01*
X12015200Y-11238100D02*
X12015200Y-11318100D01*
X11975200Y-11278100D02*
X12055200Y-11278100D01*
X12015200Y-12762100D02*
X12015200Y-12842100D01*
X11975200Y-12802100D02*
X12055200Y-12802100D01*
X12269200Y-11238100D02*
X12269200Y-11318100D01*
X12229200Y-11278100D02*
X12309200Y-11278100D01*
X12269200Y-12762100D02*
X12269200Y-12842100D01*
X12229200Y-12802100D02*
X12309200Y-12802100D01*
X12523200Y-11238100D02*
X12523200Y-11318100D01*
X12483200Y-11278100D02*
X12563200Y-11278100D01*
X12523200Y-12762100D02*
X12523200Y-12842100D01*
X12483200Y-12802100D02*
X12563200Y-12802100D01*
X12777200Y-11238100D02*
X12777200Y-11318100D01*
X12737200Y-11278100D02*
X12817200Y-11278100D01*
X12777200Y-12762100D02*
X12777200Y-12842100D01*
X12737200Y-12802100D02*
X12817200Y-12802100D01*
X12903200Y-8344000D02*
X12903200Y-8424000D01*
X12863200Y-8384000D02*
X12943200Y-8384000D01*
X12903200Y-8594000D02*
X12903200Y-8674000D01*
X12863200Y-8634000D02*
X12943200Y-8634000D01*
X13031200Y-11238100D02*
X13031200Y-11318100D01*
X12991200Y-11278100D02*
X13071200Y-11278100D01*
X13031200Y-12762100D02*
X13031200Y-12842100D01*
X12991200Y-12802100D02*
X13071200Y-12802100D01*
X13285200Y-11238100D02*
X13285200Y-11318100D01*
X13245200Y-11278100D02*
X13325200Y-11278100D01*
X13285200Y-12762100D02*
X13285200Y-12842100D01*
X13245200Y-12802100D02*
X13325200Y-12802100D01*
X13539200Y-11238100D02*
X13539200Y-11318100D01*
X13499200Y-11278100D02*
X13579200Y-11278100D01*
X13539200Y-12762100D02*
X13539200Y-12842100D01*
X13499200Y-12802100D02*
X13579200Y-12802100D01*
X13793200Y-11238100D02*
X13793200Y-11318100D01*
X13753200Y-11278100D02*
X13833200Y-11278100D01*
X13793200Y-12762100D02*
X13793200Y-12842100D01*
X13753200Y-12802100D02*
X13833200Y-12802100D01*
X13893800Y-8011800D02*
X13893800Y-8091800D01*
X13853800Y-8051800D02*
X13933800Y-8051800D01*
X13893800Y-8265800D02*
X13893800Y-8345800D01*
X13853800Y-8305800D02*
X13933800Y-8305800D01*
X13893800Y-10551800D02*
X13893800Y-10631800D01*
X13853800Y-10591800D02*
X13933800Y-10591800D01*
X13893800Y-10805800D02*
X13893800Y-10885800D01*
X13853800Y-10845800D02*
X13933800Y-10845800D01*
X14047200Y-11238100D02*
X14047200Y-11318100D01*
X14007200Y-11278100D02*
X14087200Y-11278100D01*
X14047200Y-12762100D02*
X14047200Y-12842100D01*
X14007200Y-12802100D02*
X14087200Y-12802100D01*
X14147800Y-8011800D02*
X14147800Y-8091800D01*
X14107800Y-8051800D02*
X14187800Y-8051800D01*
X14147800Y-8265800D02*
X14147800Y-8345800D01*
X14107800Y-8305800D02*
X14187800Y-8305800D01*
X14147800Y-10551800D02*
X14147800Y-10631800D01*
X14107800Y-10591800D02*
X14187800Y-10591800D01*
X14147800Y-10805800D02*
X14147800Y-10885800D01*
X14107800Y-10845800D02*
X14187800Y-10845800D01*
X14301200Y-11238100D02*
X14301200Y-11318100D01*
X14261200Y-11278100D02*
X14341200Y-11278100D01*
X14301200Y-12762100D02*
X14301200Y-12842100D01*
X14261200Y-12802100D02*
X14341200Y-12802100D01*
X14401800Y-8011800D02*
X14401800Y-8091800D01*
X14361800Y-8051800D02*
X14441800Y-8051800D01*
X14401800Y-8265800D02*
X14401800Y-8345800D01*
X14361800Y-8305800D02*
X14441800Y-8305800D01*
X14401800Y-10551800D02*
X14401800Y-10631800D01*
X14361800Y-10591800D02*
X14441800Y-10591800D01*
X14401800Y-10805800D02*
X14401800Y-10885800D01*
X14361800Y-10845800D02*
X14441800Y-10845800D01*
X14555200Y-11238100D02*
X14555200Y-11318100D01*
X14515200Y-11278100D02*
X14595200Y-11278100D01*
X14555200Y-12762100D02*
X14555200Y-12842100D01*
X14515200Y-12802100D02*
X14595200Y-12802100D01*
X14655800Y-8011800D02*
X14655800Y-8091800D01*
X14615800Y-8051800D02*
X14695800Y-8051800D01*
X14655800Y-8265800D02*
X14655800Y-8345800D01*
X14615800Y-8305800D02*
X14695800Y-8305800D01*
X14655800Y-10551800D02*
X14655800Y-10631800D01*
X14615800Y-10591800D02*
X14695800Y-10591800D01*
X14655800Y-10805800D02*
X14655800Y-10885800D01*
X14615800Y-10845800D02*
X14695800Y-10845800D01*
X14809200Y-11238100D02*
X14809200Y-11318100D01*
X14769200Y-11278100D02*
X14849200Y-11278100D01*
X14809200Y-12762100D02*
X14809200Y-12842100D01*
X14769200Y-12802100D02*
X14849200Y-12802100D01*
X14909800Y-8011800D02*
X14909800Y-8091800D01*
X14869800Y-8051800D02*
X14949800Y-8051800D01*
X14909800Y-8265800D02*
X14909800Y-8345800D01*
X14869800Y-8305800D02*
X14949800Y-8305800D01*
X14909800Y-10551800D02*
X14909800Y-10631800D01*
X14869800Y-10591800D02*
X14949800Y-10591800D01*
X14909800Y-10805800D02*
X14909800Y-10885800D01*
X14869800Y-10845800D02*
X14949800Y-10845800D01*
X15163800Y-8011800D02*
X15163800Y-8091800D01*
X15123800Y-8051800D02*
X15203800Y-8051800D01*
X15163800Y-8265800D02*
X15163800Y-8345800D01*
X15123800Y-8305800D02*
X15203800Y-8305800D01*
X15163800Y-10551800D02*
X15163800Y-10631800D01*
X15123800Y-10591800D02*
X15203800Y-10591800D01*
X15163800Y-10805800D02*
X15163800Y-10885800D01*
X15123800Y-10845800D02*
X15203800Y-10845800D01*
X15417800Y-8011800D02*
X15417800Y-8091800D01*
X15377800Y-8051800D02*
X15457800Y-8051800D01*
X15417800Y-8265800D02*
X15417800Y-8345800D01*
X15377800Y-8305800D02*
X15457800Y-8305800D01*
X15417800Y-10551800D02*
X15417800Y-10631800D01*
X15377800Y-10591800D02*
X15457800Y-10591800D01*
X15417800Y-10805800D02*
X15417800Y-10885800D01*
X15377800Y-10845800D02*
X15457800Y-10845800D01*
X15671800Y-8011800D02*
X15671800Y-8091800D01*
X15631800Y-8051800D02*
X15711800Y-8051800D01*
X15671800Y-8265800D02*
X15671800Y-8345800D01*
X15631800Y-8305800D02*
X15711800Y-8305800D01*
X15671800Y-10551800D02*
X15671800Y-10631800D01*
X15631800Y-10591800D02*
X15711800Y-10591800D01*
X15671800Y-10805800D02*
X15671800Y-10885800D01*
X15631800Y-10845800D02*
X15711800Y-10845800D01*
X15925800Y-8011800D02*
X15925800Y-8091800D01*
X15885800Y-8051800D02*
X15965800Y-8051800D01*
X15925800Y-8265800D02*
X15925800Y-8345800D01*
X15885800Y-8305800D02*
X15965800Y-8305800D01*
X15925800Y-10551800D02*
X15925800Y-10631800D01*
X15885800Y-10591800D02*
X15965800Y-10591800D01*
X15925800Y-10805800D02*
X15925800Y-10885800D01*
X15885800Y-10845800D02*
X15965800Y-10845800D01*
X16179800Y-8011800D02*
X16179800Y-8091800D01*
X16139800Y-8051800D02*
X16219800Y-8051800D01*
X16179800Y-8265800D02*
X16179800Y-8345800D01*
X16139800Y-8305800D02*
X16219800Y-8305800D01*
X16179800Y-10551800D02*
X16179800Y-10631800D01*
X16139800Y-10591800D02*
X16219800Y-10591800D01*
X16179800Y-10805800D02*
X16179800Y-10885800D01*
X16139800Y-10845800D02*
X16219800Y-10845800D01*
X15605056Y-11287556D02*
X15605056Y-11216844D01*
X15534344Y-11216844D01*
X15534344Y-11287556D01*
X15605056Y-11287556D01*
X15605556Y-11681256D02*
X15605556Y-11610544D01*
X15534844Y-11610544D01*
X15534844Y-11681256D01*
X15605556Y-11681256D01*
X15605556Y-12074956D02*
X15605556Y-12004244D01*
X15534844Y-12004244D01*
X15534844Y-12074956D01*
X15605556Y-12074956D01*
X15605556Y-12481356D02*
X15605556Y-12410644D01*
X15534844Y-12410644D01*
X15534844Y-12481356D01*
X15605556Y-12481356D01*
X15605556Y-12735356D02*
X15605556Y-12664644D01*
X15534844Y-12664644D01*
X15534844Y-12735356D01*
X15605556Y-12735356D01*
X15605556Y-12989356D02*
X15605556Y-12918644D01*
X15534844Y-12918644D01*
X15534844Y-12989356D01*
X15605556Y-12989356D01*
X15859056Y-11287556D02*
X15859056Y-11216844D01*
X15788344Y-11216844D01*
X15788344Y-11287556D01*
X15859056Y-11287556D01*
X15859556Y-11681256D02*
X15859556Y-11610544D01*
X15788844Y-11610544D01*
X15788844Y-11681256D01*
X15859556Y-11681256D01*
X15859556Y-12074956D02*
X15859556Y-12004244D01*
X15788844Y-12004244D01*
X15788844Y-12074956D01*
X15859556Y-12074956D01*
X16062256Y-12506756D02*
X16062256Y-12436044D01*
X15991544Y-12436044D01*
X15991544Y-12506756D01*
X16062256Y-12506756D01*
X16062756Y-12913156D02*
X16062756Y-12842444D01*
X15992044Y-12842444D01*
X15992044Y-12913156D01*
X16062756Y-12913156D01*
X16316256Y-12506756D02*
X16316256Y-12436044D01*
X16245544Y-12436044D01*
X16245544Y-12506756D01*
X16316256Y-12506756D01*
X16316756Y-12913156D02*
X16316756Y-12842444D01*
X16246044Y-12842444D01*
X16246044Y-12913156D01*
X16316756Y-12913156D01*
X16630856Y-11418156D02*
X16630856Y-11347444D01*
X16560144Y-11347444D01*
X16560144Y-11418156D01*
X16630856Y-11418156D01*
X16630856Y-11868156D02*
X16630856Y-11797444D01*
X16560144Y-11797444D01*
X16560144Y-11868156D01*
X16630856Y-11868156D01*
D13*
X16345500Y-11322800D02*
X16410500Y-11257800D01*
X16345500Y-11192800D01*
X16280500Y-11257800D01*
X16345500Y-11322800D01*
X16345500Y-12022800D02*
X16410500Y-11957800D01*
X16345500Y-11892800D01*
X16280500Y-11957800D01*
X16345500Y-12022800D01*
D11*
X9828277Y-13573984D02*
X9828277Y-13373984D01*
X9828277Y-13373984D02*
X9875896Y-13373984D01*
X9875896Y-13373984D02*
X9904467Y-13383508D01*
X9904467Y-13383508D02*
X9923515Y-13402555D01*
X9923515Y-13402555D02*
X9933039Y-13421603D01*
X9933039Y-13421603D02*
X9942563Y-13459698D01*
X9942563Y-13459698D02*
X9942563Y-13488269D01*
X9942563Y-13488269D02*
X9933039Y-13526365D01*
X9933039Y-13526365D02*
X9923515Y-13545412D01*
X9923515Y-13545412D02*
X9904467Y-13564460D01*
X9904467Y-13564460D02*
X9875896Y-13573984D01*
X9875896Y-13573984D02*
X9828277Y-13573984D01*
X10028277Y-13573984D02*
X10028277Y-13440650D01*
X10028277Y-13478746D02*
X10037801Y-13459698D01*
X10037801Y-13459698D02*
X10047324Y-13450174D01*
X10047324Y-13450174D02*
X10066372Y-13440650D01*
X10066372Y-13440650D02*
X10085420Y-13440650D01*
X10152086Y-13573984D02*
X10152086Y-13440650D01*
X10152086Y-13373984D02*
X10142563Y-13383508D01*
X10142563Y-13383508D02*
X10152086Y-13393031D01*
X10152086Y-13393031D02*
X10161610Y-13383508D01*
X10161610Y-13383508D02*
X10152086Y-13373984D01*
X10152086Y-13373984D02*
X10152086Y-13393031D01*
X10275896Y-13573984D02*
X10256848Y-13564460D01*
X10256848Y-13564460D02*
X10247324Y-13545412D01*
X10247324Y-13545412D02*
X10247324Y-13373984D01*
X10380658Y-13573984D02*
X10361610Y-13564460D01*
X10361610Y-13564460D02*
X10352086Y-13545412D01*
X10352086Y-13545412D02*
X10352086Y-13373984D01*
X10609229Y-13573984D02*
X10609229Y-13373984D01*
X10609229Y-13373984D02*
X10675896Y-13516841D01*
X10675896Y-13516841D02*
X10742563Y-13373984D01*
X10742563Y-13373984D02*
X10742563Y-13573984D01*
X10923515Y-13573984D02*
X10923515Y-13469222D01*
X10923515Y-13469222D02*
X10913991Y-13450174D01*
X10913991Y-13450174D02*
X10894944Y-13440650D01*
X10894944Y-13440650D02*
X10856848Y-13440650D01*
X10856848Y-13440650D02*
X10837801Y-13450174D01*
X10923515Y-13564460D02*
X10904467Y-13573984D01*
X10904467Y-13573984D02*
X10856848Y-13573984D01*
X10856848Y-13573984D02*
X10837801Y-13564460D01*
X10837801Y-13564460D02*
X10828277Y-13545412D01*
X10828277Y-13545412D02*
X10828277Y-13526365D01*
X10828277Y-13526365D02*
X10837801Y-13507317D01*
X10837801Y-13507317D02*
X10856848Y-13497793D01*
X10856848Y-13497793D02*
X10904467Y-13497793D01*
X10904467Y-13497793D02*
X10923515Y-13488269D01*
X11018753Y-13440650D02*
X11018753Y-13640650D01*
X11018753Y-13450174D02*
X11037801Y-13440650D01*
X11037801Y-13440650D02*
X11075896Y-13440650D01*
X11075896Y-13440650D02*
X11094944Y-13450174D01*
X11094944Y-13450174D02*
X11104467Y-13459698D01*
X11104467Y-13459698D02*
X11113991Y-13478746D01*
X11113991Y-13478746D02*
X11113991Y-13535888D01*
X11113991Y-13535888D02*
X11104467Y-13554936D01*
X11104467Y-13554936D02*
X11094944Y-13564460D01*
X11094944Y-13564460D02*
X11075896Y-13573984D01*
X11075896Y-13573984D02*
X11037801Y-13573984D01*
X11037801Y-13573984D02*
X11018753Y-13564460D01*
X11199705Y-13554936D02*
X11209229Y-13564460D01*
X11209229Y-13564460D02*
X11199705Y-13573984D01*
X11199705Y-13573984D02*
X11190182Y-13564460D01*
X11190182Y-13564460D02*
X11199705Y-13554936D01*
X11199705Y-13554936D02*
X11199705Y-13573984D01*
X11199705Y-13450174D02*
X11209229Y-13459698D01*
X11209229Y-13459698D02*
X11199705Y-13469222D01*
X11199705Y-13469222D02*
X11190182Y-13459698D01*
X11190182Y-13459698D02*
X11199705Y-13450174D01*
X11199705Y-13450174D02*
X11199705Y-13469222D01*
D12*
X9527500Y-13882500D02*
X9567500Y-13922500D01*
X9567500Y-13882500D02*
X9527500Y-13922500D01*
D11*
X9866372Y-13793984D02*
X9885420Y-13793984D01*
X9885420Y-13793984D02*
X9904467Y-13803508D01*
X9904467Y-13803508D02*
X9913991Y-13813031D01*
X9913991Y-13813031D02*
X9923515Y-13832079D01*
X9923515Y-13832079D02*
X9933039Y-13870174D01*
X9933039Y-13870174D02*
X9933039Y-13917793D01*
X9933039Y-13917793D02*
X9923515Y-13955888D01*
X9923515Y-13955888D02*
X9913991Y-13974936D01*
X9913991Y-13974936D02*
X9904467Y-13984460D01*
X9904467Y-13984460D02*
X9885420Y-13993984D01*
X9885420Y-13993984D02*
X9866372Y-13993984D01*
X9866372Y-13993984D02*
X9847324Y-13984460D01*
X9847324Y-13984460D02*
X9837801Y-13974936D01*
X9837801Y-13974936D02*
X9828277Y-13955888D01*
X9828277Y-13955888D02*
X9818753Y-13917793D01*
X9818753Y-13917793D02*
X9818753Y-13870174D01*
X9818753Y-13870174D02*
X9828277Y-13832079D01*
X9828277Y-13832079D02*
X9837801Y-13813031D01*
X9837801Y-13813031D02*
X9847324Y-13803508D01*
X9847324Y-13803508D02*
X9866372Y-13793984D01*
X10018753Y-13974936D02*
X10028277Y-13984460D01*
X10028277Y-13984460D02*
X10018753Y-13993984D01*
X10018753Y-13993984D02*
X10009229Y-13984460D01*
X10009229Y-13984460D02*
X10018753Y-13974936D01*
X10018753Y-13974936D02*
X10018753Y-13993984D01*
X10199705Y-13860650D02*
X10199705Y-13993984D01*
X10152086Y-13784460D02*
X10104467Y-13927317D01*
X10104467Y-13927317D02*
X10228277Y-13927317D01*
X10342563Y-13793984D02*
X10361610Y-13793984D01*
X10361610Y-13793984D02*
X10380658Y-13803508D01*
X10380658Y-13803508D02*
X10390182Y-13813031D01*
X10390182Y-13813031D02*
X10399705Y-13832079D01*
X10399705Y-13832079D02*
X10409229Y-13870174D01*
X10409229Y-13870174D02*
X10409229Y-13917793D01*
X10409229Y-13917793D02*
X10399705Y-13955888D01*
X10399705Y-13955888D02*
X10390182Y-13974936D01*
X10390182Y-13974936D02*
X10380658Y-13984460D01*
X10380658Y-13984460D02*
X10361610Y-13993984D01*
X10361610Y-13993984D02*
X10342563Y-13993984D01*
X10342563Y-13993984D02*
X10323515Y-13984460D01*
X10323515Y-13984460D02*
X10313991Y-13974936D01*
X10313991Y-13974936D02*
X10304467Y-13955888D01*
X10304467Y-13955888D02*
X10294944Y-13917793D01*
X10294944Y-13917793D02*
X10294944Y-13870174D01*
X10294944Y-13870174D02*
X10304467Y-13832079D01*
X10304467Y-13832079D02*
X10313991Y-13813031D01*
X10313991Y-13813031D02*
X10323515Y-13803508D01*
X10323515Y-13803508D02*
X10342563Y-13793984D01*
X10533039Y-13793984D02*
X10552086Y-13793984D01*
X10552086Y-13793984D02*
X10571134Y-13803508D01*
X10571134Y-13803508D02*
X10580658Y-13813031D01*
X10580658Y-13813031D02*
X10590182Y-13832079D01*
X10590182Y-13832079D02*
X10599705Y-13870174D01*
X10599705Y-13870174D02*
X10599705Y-13917793D01*
X10599705Y-13917793D02*
X10590182Y-13955888D01*
X10590182Y-13955888D02*
X10580658Y-13974936D01*
X10580658Y-13974936D02*
X10571134Y-13984460D01*
X10571134Y-13984460D02*
X10552086Y-13993984D01*
X10552086Y-13993984D02*
X10533039Y-13993984D01*
X10533039Y-13993984D02*
X10513991Y-13984460D01*
X10513991Y-13984460D02*
X10504467Y-13974936D01*
X10504467Y-13974936D02*
X10494944Y-13955888D01*
X10494944Y-13955888D02*
X10485420Y-13917793D01*
X10485420Y-13917793D02*
X10485420Y-13870174D01*
X10485420Y-13870174D02*
X10494944Y-13832079D01*
X10494944Y-13832079D02*
X10504467Y-13813031D01*
X10504467Y-13813031D02*
X10513991Y-13803508D01*
X10513991Y-13803508D02*
X10533039Y-13793984D01*
X10685420Y-13993984D02*
X10685420Y-13860650D01*
X10685420Y-13879698D02*
X10694944Y-13870174D01*
X10694944Y-13870174D02*
X10713991Y-13860650D01*
X10713991Y-13860650D02*
X10742563Y-13860650D01*
X10742563Y-13860650D02*
X10761610Y-13870174D01*
X10761610Y-13870174D02*
X10771134Y-13889222D01*
X10771134Y-13889222D02*
X10771134Y-13993984D01*
X10771134Y-13889222D02*
X10780658Y-13870174D01*
X10780658Y-13870174D02*
X10799705Y-13860650D01*
X10799705Y-13860650D02*
X10828277Y-13860650D01*
X10828277Y-13860650D02*
X10847325Y-13870174D01*
X10847325Y-13870174D02*
X10856848Y-13889222D01*
X10856848Y-13889222D02*
X10856848Y-13993984D01*
X10952086Y-13993984D02*
X10952086Y-13860650D01*
X10952086Y-13879698D02*
X10961610Y-13870174D01*
X10961610Y-13870174D02*
X10980658Y-13860650D01*
X10980658Y-13860650D02*
X11009229Y-13860650D01*
X11009229Y-13860650D02*
X11028277Y-13870174D01*
X11028277Y-13870174D02*
X11037801Y-13889222D01*
X11037801Y-13889222D02*
X11037801Y-13993984D01*
X11037801Y-13889222D02*
X11047325Y-13870174D01*
X11047325Y-13870174D02*
X11066372Y-13860650D01*
X11066372Y-13860650D02*
X11094944Y-13860650D01*
X11094944Y-13860650D02*
X11113991Y-13870174D01*
X11113991Y-13870174D02*
X11123515Y-13889222D01*
X11123515Y-13889222D02*
X11123515Y-13993984D01*
X11513991Y-13784460D02*
X11342563Y-14041603D01*
X11771134Y-13793984D02*
X11790182Y-13793984D01*
X11790182Y-13793984D02*
X11809229Y-13803508D01*
X11809229Y-13803508D02*
X11818753Y-13813031D01*
X11818753Y-13813031D02*
X11828277Y-13832079D01*
X11828277Y-13832079D02*
X11837801Y-13870174D01*
X11837801Y-13870174D02*
X11837801Y-13917793D01*
X11837801Y-13917793D02*
X11828277Y-13955888D01*
X11828277Y-13955888D02*
X11818753Y-13974936D01*
X11818753Y-13974936D02*
X11809229Y-13984460D01*
X11809229Y-13984460D02*
X11790182Y-13993984D01*
X11790182Y-13993984D02*
X11771134Y-13993984D01*
X11771134Y-13993984D02*
X11752086Y-13984460D01*
X11752086Y-13984460D02*
X11742563Y-13974936D01*
X11742563Y-13974936D02*
X11733039Y-13955888D01*
X11733039Y-13955888D02*
X11723515Y-13917793D01*
X11723515Y-13917793D02*
X11723515Y-13870174D01*
X11723515Y-13870174D02*
X11733039Y-13832079D01*
X11733039Y-13832079D02*
X11742563Y-13813031D01*
X11742563Y-13813031D02*
X11752086Y-13803508D01*
X11752086Y-13803508D02*
X11771134Y-13793984D01*
X11923515Y-13974936D02*
X11933039Y-13984460D01*
X11933039Y-13984460D02*
X11923515Y-13993984D01*
X11923515Y-13993984D02*
X11913991Y-13984460D01*
X11913991Y-13984460D02*
X11923515Y-13974936D01*
X11923515Y-13974936D02*
X11923515Y-13993984D01*
X12056848Y-13793984D02*
X12075896Y-13793984D01*
X12075896Y-13793984D02*
X12094944Y-13803508D01*
X12094944Y-13803508D02*
X12104467Y-13813031D01*
X12104467Y-13813031D02*
X12113991Y-13832079D01*
X12113991Y-13832079D02*
X12123515Y-13870174D01*
X12123515Y-13870174D02*
X12123515Y-13917793D01*
X12123515Y-13917793D02*
X12113991Y-13955888D01*
X12113991Y-13955888D02*
X12104467Y-13974936D01*
X12104467Y-13974936D02*
X12094944Y-13984460D01*
X12094944Y-13984460D02*
X12075896Y-13993984D01*
X12075896Y-13993984D02*
X12056848Y-13993984D01*
X12056848Y-13993984D02*
X12037801Y-13984460D01*
X12037801Y-13984460D02*
X12028277Y-13974936D01*
X12028277Y-13974936D02*
X12018753Y-13955888D01*
X12018753Y-13955888D02*
X12009229Y-13917793D01*
X12009229Y-13917793D02*
X12009229Y-13870174D01*
X12009229Y-13870174D02*
X12018753Y-13832079D01*
X12018753Y-13832079D02*
X12028277Y-13813031D01*
X12028277Y-13813031D02*
X12037801Y-13803508D01*
X12037801Y-13803508D02*
X12056848Y-13793984D01*
X12313991Y-13993984D02*
X12199706Y-13993984D01*
X12256848Y-13993984D02*
X12256848Y-13793984D01*
X12256848Y-13793984D02*
X12237801Y-13822555D01*
X12237801Y-13822555D02*
X12218753Y-13841603D01*
X12218753Y-13841603D02*
X12199706Y-13851127D01*
X12494944Y-13793984D02*
X12399706Y-13793984D01*
X12399706Y-13793984D02*
X12390182Y-13889222D01*
X12390182Y-13889222D02*
X12399706Y-13879698D01*
X12399706Y-13879698D02*
X12418753Y-13870174D01*
X12418753Y-13870174D02*
X12466372Y-13870174D01*
X12466372Y-13870174D02*
X12485420Y-13879698D01*
X12485420Y-13879698D02*
X12494944Y-13889222D01*
X12494944Y-13889222D02*
X12504467Y-13908269D01*
X12504467Y-13908269D02*
X12504467Y-13955888D01*
X12504467Y-13955888D02*
X12494944Y-13974936D01*
X12494944Y-13974936D02*
X12485420Y-13984460D01*
X12485420Y-13984460D02*
X12466372Y-13993984D01*
X12466372Y-13993984D02*
X12418753Y-13993984D01*
X12418753Y-13993984D02*
X12399706Y-13984460D01*
X12399706Y-13984460D02*
X12390182Y-13974936D01*
X12571134Y-13793984D02*
X12704467Y-13793984D01*
X12704467Y-13793984D02*
X12618753Y-13993984D01*
X12771134Y-13793984D02*
X12771134Y-13832079D01*
X12847325Y-13793984D02*
X12847325Y-13832079D01*
X13142563Y-14070174D02*
X13133039Y-14060650D01*
X13133039Y-14060650D02*
X13113991Y-14032079D01*
X13113991Y-14032079D02*
X13104468Y-14013031D01*
X13104468Y-14013031D02*
X13094944Y-13984460D01*
X13094944Y-13984460D02*
X13085420Y-13936841D01*
X13085420Y-13936841D02*
X13085420Y-13898746D01*
X13085420Y-13898746D02*
X13094944Y-13851127D01*
X13094944Y-13851127D02*
X13104468Y-13822555D01*
X13104468Y-13822555D02*
X13113991Y-13803508D01*
X13113991Y-13803508D02*
X13133039Y-13774936D01*
X13133039Y-13774936D02*
X13142563Y-13765412D01*
X13304468Y-13860650D02*
X13304468Y-13993984D01*
X13256848Y-13784460D02*
X13209229Y-13927317D01*
X13209229Y-13927317D02*
X13333039Y-13927317D01*
X13494944Y-13860650D02*
X13494944Y-13993984D01*
X13447325Y-13784460D02*
X13399706Y-13927317D01*
X13399706Y-13927317D02*
X13523515Y-13927317D01*
X13752087Y-13993984D02*
X13752087Y-13793984D01*
X13837801Y-13993984D02*
X13837801Y-13889222D01*
X13837801Y-13889222D02*
X13828277Y-13870174D01*
X13828277Y-13870174D02*
X13809230Y-13860650D01*
X13809230Y-13860650D02*
X13780658Y-13860650D01*
X13780658Y-13860650D02*
X13761610Y-13870174D01*
X13761610Y-13870174D02*
X13752087Y-13879698D01*
X13961610Y-13993984D02*
X13942563Y-13984460D01*
X13942563Y-13984460D02*
X13933039Y-13974936D01*
X13933039Y-13974936D02*
X13923515Y-13955888D01*
X13923515Y-13955888D02*
X13923515Y-13898746D01*
X13923515Y-13898746D02*
X13933039Y-13879698D01*
X13933039Y-13879698D02*
X13942563Y-13870174D01*
X13942563Y-13870174D02*
X13961610Y-13860650D01*
X13961610Y-13860650D02*
X13990182Y-13860650D01*
X13990182Y-13860650D02*
X14009230Y-13870174D01*
X14009230Y-13870174D02*
X14018753Y-13879698D01*
X14018753Y-13879698D02*
X14028277Y-13898746D01*
X14028277Y-13898746D02*
X14028277Y-13955888D01*
X14028277Y-13955888D02*
X14018753Y-13974936D01*
X14018753Y-13974936D02*
X14009230Y-13984460D01*
X14009230Y-13984460D02*
X13990182Y-13993984D01*
X13990182Y-13993984D02*
X13961610Y-13993984D01*
X14142563Y-13993984D02*
X14123515Y-13984460D01*
X14123515Y-13984460D02*
X14113991Y-13965412D01*
X14113991Y-13965412D02*
X14113991Y-13793984D01*
X14294944Y-13984460D02*
X14275896Y-13993984D01*
X14275896Y-13993984D02*
X14237801Y-13993984D01*
X14237801Y-13993984D02*
X14218753Y-13984460D01*
X14218753Y-13984460D02*
X14209230Y-13965412D01*
X14209230Y-13965412D02*
X14209230Y-13889222D01*
X14209230Y-13889222D02*
X14218753Y-13870174D01*
X14218753Y-13870174D02*
X14237801Y-13860650D01*
X14237801Y-13860650D02*
X14275896Y-13860650D01*
X14275896Y-13860650D02*
X14294944Y-13870174D01*
X14294944Y-13870174D02*
X14304468Y-13889222D01*
X14304468Y-13889222D02*
X14304468Y-13908269D01*
X14304468Y-13908269D02*
X14209230Y-13927317D01*
X14380658Y-13984460D02*
X14399706Y-13993984D01*
X14399706Y-13993984D02*
X14437801Y-13993984D01*
X14437801Y-13993984D02*
X14456849Y-13984460D01*
X14456849Y-13984460D02*
X14466372Y-13965412D01*
X14466372Y-13965412D02*
X14466372Y-13955888D01*
X14466372Y-13955888D02*
X14456849Y-13936841D01*
X14456849Y-13936841D02*
X14437801Y-13927317D01*
X14437801Y-13927317D02*
X14409230Y-13927317D01*
X14409230Y-13927317D02*
X14390182Y-13917793D01*
X14390182Y-13917793D02*
X14380658Y-13898746D01*
X14380658Y-13898746D02*
X14380658Y-13889222D01*
X14380658Y-13889222D02*
X14390182Y-13870174D01*
X14390182Y-13870174D02*
X14409230Y-13860650D01*
X14409230Y-13860650D02*
X14437801Y-13860650D01*
X14437801Y-13860650D02*
X14456849Y-13870174D01*
X14533039Y-14070174D02*
X14542563Y-14060650D01*
X14542563Y-14060650D02*
X14561611Y-14032079D01*
X14561611Y-14032079D02*
X14571134Y-14013031D01*
X14571134Y-14013031D02*
X14580658Y-13984460D01*
X14580658Y-13984460D02*
X14590182Y-13936841D01*
X14590182Y-13936841D02*
X14590182Y-13898746D01*
X14590182Y-13898746D02*
X14580658Y-13851127D01*
X14580658Y-13851127D02*
X14571134Y-13822555D01*
X14571134Y-13822555D02*
X14561611Y-13803508D01*
X14561611Y-13803508D02*
X14542563Y-13774936D01*
X14542563Y-13774936D02*
X14533039Y-13765412D01*
D12*
X9567500Y-14166500D02*
G75*
G03*
X9492500Y-14166500I-37500J0D01*
G01*
X9492500Y-14166500D02*
G75*
G03*
X9567500Y-14166500I37500J0D01*
G01*
D11*
X9866372Y-14057984D02*
X9885420Y-14057984D01*
X9885420Y-14057984D02*
X9904467Y-14067508D01*
X9904467Y-14067508D02*
X9913991Y-14077031D01*
X9913991Y-14077031D02*
X9923515Y-14096079D01*
X9923515Y-14096079D02*
X9933039Y-14134174D01*
X9933039Y-14134174D02*
X9933039Y-14181793D01*
X9933039Y-14181793D02*
X9923515Y-14219888D01*
X9923515Y-14219888D02*
X9913991Y-14238936D01*
X9913991Y-14238936D02*
X9904467Y-14248460D01*
X9904467Y-14248460D02*
X9885420Y-14257984D01*
X9885420Y-14257984D02*
X9866372Y-14257984D01*
X9866372Y-14257984D02*
X9847324Y-14248460D01*
X9847324Y-14248460D02*
X9837801Y-14238936D01*
X9837801Y-14238936D02*
X9828277Y-14219888D01*
X9828277Y-14219888D02*
X9818753Y-14181793D01*
X9818753Y-14181793D02*
X9818753Y-14134174D01*
X9818753Y-14134174D02*
X9828277Y-14096079D01*
X9828277Y-14096079D02*
X9837801Y-14077031D01*
X9837801Y-14077031D02*
X9847324Y-14067508D01*
X9847324Y-14067508D02*
X9866372Y-14057984D01*
X10018753Y-14238936D02*
X10028277Y-14248460D01*
X10028277Y-14248460D02*
X10018753Y-14257984D01*
X10018753Y-14257984D02*
X10009229Y-14248460D01*
X10009229Y-14248460D02*
X10018753Y-14238936D01*
X10018753Y-14238936D02*
X10018753Y-14257984D01*
X10094944Y-14057984D02*
X10228277Y-14057984D01*
X10228277Y-14057984D02*
X10142563Y-14257984D01*
X10399705Y-14057984D02*
X10304467Y-14057984D01*
X10304467Y-14057984D02*
X10294944Y-14153222D01*
X10294944Y-14153222D02*
X10304467Y-14143698D01*
X10304467Y-14143698D02*
X10323515Y-14134174D01*
X10323515Y-14134174D02*
X10371134Y-14134174D01*
X10371134Y-14134174D02*
X10390182Y-14143698D01*
X10390182Y-14143698D02*
X10399705Y-14153222D01*
X10399705Y-14153222D02*
X10409229Y-14172269D01*
X10409229Y-14172269D02*
X10409229Y-14219888D01*
X10409229Y-14219888D02*
X10399705Y-14238936D01*
X10399705Y-14238936D02*
X10390182Y-14248460D01*
X10390182Y-14248460D02*
X10371134Y-14257984D01*
X10371134Y-14257984D02*
X10323515Y-14257984D01*
X10323515Y-14257984D02*
X10304467Y-14248460D01*
X10304467Y-14248460D02*
X10294944Y-14238936D01*
X10533039Y-14057984D02*
X10552086Y-14057984D01*
X10552086Y-14057984D02*
X10571134Y-14067508D01*
X10571134Y-14067508D02*
X10580658Y-14077031D01*
X10580658Y-14077031D02*
X10590182Y-14096079D01*
X10590182Y-14096079D02*
X10599705Y-14134174D01*
X10599705Y-14134174D02*
X10599705Y-14181793D01*
X10599705Y-14181793D02*
X10590182Y-14219888D01*
X10590182Y-14219888D02*
X10580658Y-14238936D01*
X10580658Y-14238936D02*
X10571134Y-14248460D01*
X10571134Y-14248460D02*
X10552086Y-14257984D01*
X10552086Y-14257984D02*
X10533039Y-14257984D01*
X10533039Y-14257984D02*
X10513991Y-14248460D01*
X10513991Y-14248460D02*
X10504467Y-14238936D01*
X10504467Y-14238936D02*
X10494944Y-14219888D01*
X10494944Y-14219888D02*
X10485420Y-14181793D01*
X10485420Y-14181793D02*
X10485420Y-14134174D01*
X10485420Y-14134174D02*
X10494944Y-14096079D01*
X10494944Y-14096079D02*
X10504467Y-14077031D01*
X10504467Y-14077031D02*
X10513991Y-14067508D01*
X10513991Y-14067508D02*
X10533039Y-14057984D01*
X10685420Y-14257984D02*
X10685420Y-14124650D01*
X10685420Y-14143698D02*
X10694944Y-14134174D01*
X10694944Y-14134174D02*
X10713991Y-14124650D01*
X10713991Y-14124650D02*
X10742563Y-14124650D01*
X10742563Y-14124650D02*
X10761610Y-14134174D01*
X10761610Y-14134174D02*
X10771134Y-14153222D01*
X10771134Y-14153222D02*
X10771134Y-14257984D01*
X10771134Y-14153222D02*
X10780658Y-14134174D01*
X10780658Y-14134174D02*
X10799705Y-14124650D01*
X10799705Y-14124650D02*
X10828277Y-14124650D01*
X10828277Y-14124650D02*
X10847325Y-14134174D01*
X10847325Y-14134174D02*
X10856848Y-14153222D01*
X10856848Y-14153222D02*
X10856848Y-14257984D01*
X10952086Y-14257984D02*
X10952086Y-14124650D01*
X10952086Y-14143698D02*
X10961610Y-14134174D01*
X10961610Y-14134174D02*
X10980658Y-14124650D01*
X10980658Y-14124650D02*
X11009229Y-14124650D01*
X11009229Y-14124650D02*
X11028277Y-14134174D01*
X11028277Y-14134174D02*
X11037801Y-14153222D01*
X11037801Y-14153222D02*
X11037801Y-14257984D01*
X11037801Y-14153222D02*
X11047325Y-14134174D01*
X11047325Y-14134174D02*
X11066372Y-14124650D01*
X11066372Y-14124650D02*
X11094944Y-14124650D01*
X11094944Y-14124650D02*
X11113991Y-14134174D01*
X11113991Y-14134174D02*
X11123515Y-14153222D01*
X11123515Y-14153222D02*
X11123515Y-14257984D01*
X11513991Y-14048460D02*
X11342563Y-14305603D01*
X11771134Y-14057984D02*
X11790182Y-14057984D01*
X11790182Y-14057984D02*
X11809229Y-14067508D01*
X11809229Y-14067508D02*
X11818753Y-14077031D01*
X11818753Y-14077031D02*
X11828277Y-14096079D01*
X11828277Y-14096079D02*
X11837801Y-14134174D01*
X11837801Y-14134174D02*
X11837801Y-14181793D01*
X11837801Y-14181793D02*
X11828277Y-14219888D01*
X11828277Y-14219888D02*
X11818753Y-14238936D01*
X11818753Y-14238936D02*
X11809229Y-14248460D01*
X11809229Y-14248460D02*
X11790182Y-14257984D01*
X11790182Y-14257984D02*
X11771134Y-14257984D01*
X11771134Y-14257984D02*
X11752086Y-14248460D01*
X11752086Y-14248460D02*
X11742563Y-14238936D01*
X11742563Y-14238936D02*
X11733039Y-14219888D01*
X11733039Y-14219888D02*
X11723515Y-14181793D01*
X11723515Y-14181793D02*
X11723515Y-14134174D01*
X11723515Y-14134174D02*
X11733039Y-14096079D01*
X11733039Y-14096079D02*
X11742563Y-14077031D01*
X11742563Y-14077031D02*
X11752086Y-14067508D01*
X11752086Y-14067508D02*
X11771134Y-14057984D01*
X11923515Y-14238936D02*
X11933039Y-14248460D01*
X11933039Y-14248460D02*
X11923515Y-14257984D01*
X11923515Y-14257984D02*
X11913991Y-14248460D01*
X11913991Y-14248460D02*
X11923515Y-14238936D01*
X11923515Y-14238936D02*
X11923515Y-14257984D01*
X12056848Y-14057984D02*
X12075896Y-14057984D01*
X12075896Y-14057984D02*
X12094944Y-14067508D01*
X12094944Y-14067508D02*
X12104467Y-14077031D01*
X12104467Y-14077031D02*
X12113991Y-14096079D01*
X12113991Y-14096079D02*
X12123515Y-14134174D01*
X12123515Y-14134174D02*
X12123515Y-14181793D01*
X12123515Y-14181793D02*
X12113991Y-14219888D01*
X12113991Y-14219888D02*
X12104467Y-14238936D01*
X12104467Y-14238936D02*
X12094944Y-14248460D01*
X12094944Y-14248460D02*
X12075896Y-14257984D01*
X12075896Y-14257984D02*
X12056848Y-14257984D01*
X12056848Y-14257984D02*
X12037801Y-14248460D01*
X12037801Y-14248460D02*
X12028277Y-14238936D01*
X12028277Y-14238936D02*
X12018753Y-14219888D01*
X12018753Y-14219888D02*
X12009229Y-14181793D01*
X12009229Y-14181793D02*
X12009229Y-14134174D01*
X12009229Y-14134174D02*
X12018753Y-14096079D01*
X12018753Y-14096079D02*
X12028277Y-14077031D01*
X12028277Y-14077031D02*
X12037801Y-14067508D01*
X12037801Y-14067508D02*
X12056848Y-14057984D01*
X12199706Y-14077031D02*
X12209229Y-14067508D01*
X12209229Y-14067508D02*
X12228277Y-14057984D01*
X12228277Y-14057984D02*
X12275896Y-14057984D01*
X12275896Y-14057984D02*
X12294944Y-14067508D01*
X12294944Y-14067508D02*
X12304467Y-14077031D01*
X12304467Y-14077031D02*
X12313991Y-14096079D01*
X12313991Y-14096079D02*
X12313991Y-14115127D01*
X12313991Y-14115127D02*
X12304467Y-14143698D01*
X12304467Y-14143698D02*
X12190182Y-14257984D01*
X12190182Y-14257984D02*
X12313991Y-14257984D01*
X12409229Y-14257984D02*
X12447325Y-14257984D01*
X12447325Y-14257984D02*
X12466372Y-14248460D01*
X12466372Y-14248460D02*
X12475896Y-14238936D01*
X12475896Y-14238936D02*
X12494944Y-14210365D01*
X12494944Y-14210365D02*
X12504467Y-14172269D01*
X12504467Y-14172269D02*
X12504467Y-14096079D01*
X12504467Y-14096079D02*
X12494944Y-14077031D01*
X12494944Y-14077031D02*
X12485420Y-14067508D01*
X12485420Y-14067508D02*
X12466372Y-14057984D01*
X12466372Y-14057984D02*
X12428277Y-14057984D01*
X12428277Y-14057984D02*
X12409229Y-14067508D01*
X12409229Y-14067508D02*
X12399706Y-14077031D01*
X12399706Y-14077031D02*
X12390182Y-14096079D01*
X12390182Y-14096079D02*
X12390182Y-14143698D01*
X12390182Y-14143698D02*
X12399706Y-14162746D01*
X12399706Y-14162746D02*
X12409229Y-14172269D01*
X12409229Y-14172269D02*
X12428277Y-14181793D01*
X12428277Y-14181793D02*
X12466372Y-14181793D01*
X12466372Y-14181793D02*
X12485420Y-14172269D01*
X12485420Y-14172269D02*
X12494944Y-14162746D01*
X12494944Y-14162746D02*
X12504467Y-14143698D01*
X12685420Y-14057984D02*
X12590182Y-14057984D01*
X12590182Y-14057984D02*
X12580658Y-14153222D01*
X12580658Y-14153222D02*
X12590182Y-14143698D01*
X12590182Y-14143698D02*
X12609229Y-14134174D01*
X12609229Y-14134174D02*
X12656848Y-14134174D01*
X12656848Y-14134174D02*
X12675896Y-14143698D01*
X12675896Y-14143698D02*
X12685420Y-14153222D01*
X12685420Y-14153222D02*
X12694944Y-14172269D01*
X12694944Y-14172269D02*
X12694944Y-14219888D01*
X12694944Y-14219888D02*
X12685420Y-14238936D01*
X12685420Y-14238936D02*
X12675896Y-14248460D01*
X12675896Y-14248460D02*
X12656848Y-14257984D01*
X12656848Y-14257984D02*
X12609229Y-14257984D01*
X12609229Y-14257984D02*
X12590182Y-14248460D01*
X12590182Y-14248460D02*
X12580658Y-14238936D01*
X12771134Y-14057984D02*
X12771134Y-14096079D01*
X12847325Y-14057984D02*
X12847325Y-14096079D01*
X13142563Y-14334174D02*
X13133039Y-14324650D01*
X13133039Y-14324650D02*
X13113991Y-14296079D01*
X13113991Y-14296079D02*
X13104468Y-14277031D01*
X13104468Y-14277031D02*
X13094944Y-14248460D01*
X13094944Y-14248460D02*
X13085420Y-14200841D01*
X13085420Y-14200841D02*
X13085420Y-14162746D01*
X13085420Y-14162746D02*
X13094944Y-14115127D01*
X13094944Y-14115127D02*
X13104468Y-14086555D01*
X13104468Y-14086555D02*
X13113991Y-14067508D01*
X13113991Y-14067508D02*
X13133039Y-14038936D01*
X13133039Y-14038936D02*
X13142563Y-14029412D01*
X13313991Y-14057984D02*
X13218753Y-14057984D01*
X13218753Y-14057984D02*
X13209229Y-14153222D01*
X13209229Y-14153222D02*
X13218753Y-14143698D01*
X13218753Y-14143698D02*
X13237801Y-14134174D01*
X13237801Y-14134174D02*
X13285420Y-14134174D01*
X13285420Y-14134174D02*
X13304468Y-14143698D01*
X13304468Y-14143698D02*
X13313991Y-14153222D01*
X13313991Y-14153222D02*
X13323515Y-14172269D01*
X13323515Y-14172269D02*
X13323515Y-14219888D01*
X13323515Y-14219888D02*
X13313991Y-14238936D01*
X13313991Y-14238936D02*
X13304468Y-14248460D01*
X13304468Y-14248460D02*
X13285420Y-14257984D01*
X13285420Y-14257984D02*
X13237801Y-14257984D01*
X13237801Y-14257984D02*
X13218753Y-14248460D01*
X13218753Y-14248460D02*
X13209229Y-14238936D01*
X13561610Y-14257984D02*
X13561610Y-14057984D01*
X13647325Y-14257984D02*
X13647325Y-14153222D01*
X13647325Y-14153222D02*
X13637801Y-14134174D01*
X13637801Y-14134174D02*
X13618753Y-14124650D01*
X13618753Y-14124650D02*
X13590182Y-14124650D01*
X13590182Y-14124650D02*
X13571134Y-14134174D01*
X13571134Y-14134174D02*
X13561610Y-14143698D01*
X13771134Y-14257984D02*
X13752087Y-14248460D01*
X13752087Y-14248460D02*
X13742563Y-14238936D01*
X13742563Y-14238936D02*
X13733039Y-14219888D01*
X13733039Y-14219888D02*
X13733039Y-14162746D01*
X13733039Y-14162746D02*
X13742563Y-14143698D01*
X13742563Y-14143698D02*
X13752087Y-14134174D01*
X13752087Y-14134174D02*
X13771134Y-14124650D01*
X13771134Y-14124650D02*
X13799706Y-14124650D01*
X13799706Y-14124650D02*
X13818753Y-14134174D01*
X13818753Y-14134174D02*
X13828277Y-14143698D01*
X13828277Y-14143698D02*
X13837801Y-14162746D01*
X13837801Y-14162746D02*
X13837801Y-14219888D01*
X13837801Y-14219888D02*
X13828277Y-14238936D01*
X13828277Y-14238936D02*
X13818753Y-14248460D01*
X13818753Y-14248460D02*
X13799706Y-14257984D01*
X13799706Y-14257984D02*
X13771134Y-14257984D01*
X13952087Y-14257984D02*
X13933039Y-14248460D01*
X13933039Y-14248460D02*
X13923515Y-14229412D01*
X13923515Y-14229412D02*
X13923515Y-14057984D01*
X14104468Y-14248460D02*
X14085420Y-14257984D01*
X14085420Y-14257984D02*
X14047325Y-14257984D01*
X14047325Y-14257984D02*
X14028277Y-14248460D01*
X14028277Y-14248460D02*
X14018753Y-14229412D01*
X14018753Y-14229412D02*
X14018753Y-14153222D01*
X14018753Y-14153222D02*
X14028277Y-14134174D01*
X14028277Y-14134174D02*
X14047325Y-14124650D01*
X14047325Y-14124650D02*
X14085420Y-14124650D01*
X14085420Y-14124650D02*
X14104468Y-14134174D01*
X14104468Y-14134174D02*
X14113991Y-14153222D01*
X14113991Y-14153222D02*
X14113991Y-14172269D01*
X14113991Y-14172269D02*
X14018753Y-14191317D01*
X14190182Y-14248460D02*
X14209230Y-14257984D01*
X14209230Y-14257984D02*
X14247325Y-14257984D01*
X14247325Y-14257984D02*
X14266372Y-14248460D01*
X14266372Y-14248460D02*
X14275896Y-14229412D01*
X14275896Y-14229412D02*
X14275896Y-14219888D01*
X14275896Y-14219888D02*
X14266372Y-14200841D01*
X14266372Y-14200841D02*
X14247325Y-14191317D01*
X14247325Y-14191317D02*
X14218753Y-14191317D01*
X14218753Y-14191317D02*
X14199706Y-14181793D01*
X14199706Y-14181793D02*
X14190182Y-14162746D01*
X14190182Y-14162746D02*
X14190182Y-14153222D01*
X14190182Y-14153222D02*
X14199706Y-14134174D01*
X14199706Y-14134174D02*
X14218753Y-14124650D01*
X14218753Y-14124650D02*
X14247325Y-14124650D01*
X14247325Y-14124650D02*
X14266372Y-14134174D01*
X14342563Y-14334174D02*
X14352087Y-14324650D01*
X14352087Y-14324650D02*
X14371134Y-14296079D01*
X14371134Y-14296079D02*
X14380658Y-14277031D01*
X14380658Y-14277031D02*
X14390182Y-14248460D01*
X14390182Y-14248460D02*
X14399706Y-14200841D01*
X14399706Y-14200841D02*
X14399706Y-14162746D01*
X14399706Y-14162746D02*
X14390182Y-14115127D01*
X14390182Y-14115127D02*
X14380658Y-14086555D01*
X14380658Y-14086555D02*
X14371134Y-14067508D01*
X14371134Y-14067508D02*
X14352087Y-14038936D01*
X14352087Y-14038936D02*
X14342563Y-14029412D01*
D12*
X9527500Y-14390500D02*
X9527500Y-14470500D01*
X9487500Y-14430500D02*
X9567500Y-14430500D01*
D11*
X9866372Y-14321984D02*
X9885420Y-14321984D01*
X9885420Y-14321984D02*
X9904467Y-14331508D01*
X9904467Y-14331508D02*
X9913991Y-14341031D01*
X9913991Y-14341031D02*
X9923515Y-14360079D01*
X9923515Y-14360079D02*
X9933039Y-14398174D01*
X9933039Y-14398174D02*
X9933039Y-14445793D01*
X9933039Y-14445793D02*
X9923515Y-14483888D01*
X9923515Y-14483888D02*
X9913991Y-14502936D01*
X9913991Y-14502936D02*
X9904467Y-14512460D01*
X9904467Y-14512460D02*
X9885420Y-14521984D01*
X9885420Y-14521984D02*
X9866372Y-14521984D01*
X9866372Y-14521984D02*
X9847324Y-14512460D01*
X9847324Y-14512460D02*
X9837801Y-14502936D01*
X9837801Y-14502936D02*
X9828277Y-14483888D01*
X9828277Y-14483888D02*
X9818753Y-14445793D01*
X9818753Y-14445793D02*
X9818753Y-14398174D01*
X9818753Y-14398174D02*
X9828277Y-14360079D01*
X9828277Y-14360079D02*
X9837801Y-14341031D01*
X9837801Y-14341031D02*
X9847324Y-14331508D01*
X9847324Y-14331508D02*
X9866372Y-14321984D01*
X10018753Y-14502936D02*
X10028277Y-14512460D01*
X10028277Y-14512460D02*
X10018753Y-14521984D01*
X10018753Y-14521984D02*
X10009229Y-14512460D01*
X10009229Y-14512460D02*
X10018753Y-14502936D01*
X10018753Y-14502936D02*
X10018753Y-14521984D01*
X10142563Y-14407698D02*
X10123515Y-14398174D01*
X10123515Y-14398174D02*
X10113991Y-14388650D01*
X10113991Y-14388650D02*
X10104467Y-14369603D01*
X10104467Y-14369603D02*
X10104467Y-14360079D01*
X10104467Y-14360079D02*
X10113991Y-14341031D01*
X10113991Y-14341031D02*
X10123515Y-14331508D01*
X10123515Y-14331508D02*
X10142563Y-14321984D01*
X10142563Y-14321984D02*
X10180658Y-14321984D01*
X10180658Y-14321984D02*
X10199705Y-14331508D01*
X10199705Y-14331508D02*
X10209229Y-14341031D01*
X10209229Y-14341031D02*
X10218753Y-14360079D01*
X10218753Y-14360079D02*
X10218753Y-14369603D01*
X10218753Y-14369603D02*
X10209229Y-14388650D01*
X10209229Y-14388650D02*
X10199705Y-14398174D01*
X10199705Y-14398174D02*
X10180658Y-14407698D01*
X10180658Y-14407698D02*
X10142563Y-14407698D01*
X10142563Y-14407698D02*
X10123515Y-14417222D01*
X10123515Y-14417222D02*
X10113991Y-14426746D01*
X10113991Y-14426746D02*
X10104467Y-14445793D01*
X10104467Y-14445793D02*
X10104467Y-14483888D01*
X10104467Y-14483888D02*
X10113991Y-14502936D01*
X10113991Y-14502936D02*
X10123515Y-14512460D01*
X10123515Y-14512460D02*
X10142563Y-14521984D01*
X10142563Y-14521984D02*
X10180658Y-14521984D01*
X10180658Y-14521984D02*
X10199705Y-14512460D01*
X10199705Y-14512460D02*
X10209229Y-14502936D01*
X10209229Y-14502936D02*
X10218753Y-14483888D01*
X10218753Y-14483888D02*
X10218753Y-14445793D01*
X10218753Y-14445793D02*
X10209229Y-14426746D01*
X10209229Y-14426746D02*
X10199705Y-14417222D01*
X10199705Y-14417222D02*
X10180658Y-14407698D01*
X10342563Y-14321984D02*
X10361610Y-14321984D01*
X10361610Y-14321984D02*
X10380658Y-14331508D01*
X10380658Y-14331508D02*
X10390182Y-14341031D01*
X10390182Y-14341031D02*
X10399705Y-14360079D01*
X10399705Y-14360079D02*
X10409229Y-14398174D01*
X10409229Y-14398174D02*
X10409229Y-14445793D01*
X10409229Y-14445793D02*
X10399705Y-14483888D01*
X10399705Y-14483888D02*
X10390182Y-14502936D01*
X10390182Y-14502936D02*
X10380658Y-14512460D01*
X10380658Y-14512460D02*
X10361610Y-14521984D01*
X10361610Y-14521984D02*
X10342563Y-14521984D01*
X10342563Y-14521984D02*
X10323515Y-14512460D01*
X10323515Y-14512460D02*
X10313991Y-14502936D01*
X10313991Y-14502936D02*
X10304467Y-14483888D01*
X10304467Y-14483888D02*
X10294944Y-14445793D01*
X10294944Y-14445793D02*
X10294944Y-14398174D01*
X10294944Y-14398174D02*
X10304467Y-14360079D01*
X10304467Y-14360079D02*
X10313991Y-14341031D01*
X10313991Y-14341031D02*
X10323515Y-14331508D01*
X10323515Y-14331508D02*
X10342563Y-14321984D01*
X10533039Y-14321984D02*
X10552086Y-14321984D01*
X10552086Y-14321984D02*
X10571134Y-14331508D01*
X10571134Y-14331508D02*
X10580658Y-14341031D01*
X10580658Y-14341031D02*
X10590182Y-14360079D01*
X10590182Y-14360079D02*
X10599705Y-14398174D01*
X10599705Y-14398174D02*
X10599705Y-14445793D01*
X10599705Y-14445793D02*
X10590182Y-14483888D01*
X10590182Y-14483888D02*
X10580658Y-14502936D01*
X10580658Y-14502936D02*
X10571134Y-14512460D01*
X10571134Y-14512460D02*
X10552086Y-14521984D01*
X10552086Y-14521984D02*
X10533039Y-14521984D01*
X10533039Y-14521984D02*
X10513991Y-14512460D01*
X10513991Y-14512460D02*
X10504467Y-14502936D01*
X10504467Y-14502936D02*
X10494944Y-14483888D01*
X10494944Y-14483888D02*
X10485420Y-14445793D01*
X10485420Y-14445793D02*
X10485420Y-14398174D01*
X10485420Y-14398174D02*
X10494944Y-14360079D01*
X10494944Y-14360079D02*
X10504467Y-14341031D01*
X10504467Y-14341031D02*
X10513991Y-14331508D01*
X10513991Y-14331508D02*
X10533039Y-14321984D01*
X10685420Y-14521984D02*
X10685420Y-14388650D01*
X10685420Y-14407698D02*
X10694944Y-14398174D01*
X10694944Y-14398174D02*
X10713991Y-14388650D01*
X10713991Y-14388650D02*
X10742563Y-14388650D01*
X10742563Y-14388650D02*
X10761610Y-14398174D01*
X10761610Y-14398174D02*
X10771134Y-14417222D01*
X10771134Y-14417222D02*
X10771134Y-14521984D01*
X10771134Y-14417222D02*
X10780658Y-14398174D01*
X10780658Y-14398174D02*
X10799705Y-14388650D01*
X10799705Y-14388650D02*
X10828277Y-14388650D01*
X10828277Y-14388650D02*
X10847325Y-14398174D01*
X10847325Y-14398174D02*
X10856848Y-14417222D01*
X10856848Y-14417222D02*
X10856848Y-14521984D01*
X10952086Y-14521984D02*
X10952086Y-14388650D01*
X10952086Y-14407698D02*
X10961610Y-14398174D01*
X10961610Y-14398174D02*
X10980658Y-14388650D01*
X10980658Y-14388650D02*
X11009229Y-14388650D01*
X11009229Y-14388650D02*
X11028277Y-14398174D01*
X11028277Y-14398174D02*
X11037801Y-14417222D01*
X11037801Y-14417222D02*
X11037801Y-14521984D01*
X11037801Y-14417222D02*
X11047325Y-14398174D01*
X11047325Y-14398174D02*
X11066372Y-14388650D01*
X11066372Y-14388650D02*
X11094944Y-14388650D01*
X11094944Y-14388650D02*
X11113991Y-14398174D01*
X11113991Y-14398174D02*
X11123515Y-14417222D01*
X11123515Y-14417222D02*
X11123515Y-14521984D01*
X11513991Y-14312460D02*
X11342563Y-14569603D01*
X11771134Y-14321984D02*
X11790182Y-14321984D01*
X11790182Y-14321984D02*
X11809229Y-14331508D01*
X11809229Y-14331508D02*
X11818753Y-14341031D01*
X11818753Y-14341031D02*
X11828277Y-14360079D01*
X11828277Y-14360079D02*
X11837801Y-14398174D01*
X11837801Y-14398174D02*
X11837801Y-14445793D01*
X11837801Y-14445793D02*
X11828277Y-14483888D01*
X11828277Y-14483888D02*
X11818753Y-14502936D01*
X11818753Y-14502936D02*
X11809229Y-14512460D01*
X11809229Y-14512460D02*
X11790182Y-14521984D01*
X11790182Y-14521984D02*
X11771134Y-14521984D01*
X11771134Y-14521984D02*
X11752086Y-14512460D01*
X11752086Y-14512460D02*
X11742563Y-14502936D01*
X11742563Y-14502936D02*
X11733039Y-14483888D01*
X11733039Y-14483888D02*
X11723515Y-14445793D01*
X11723515Y-14445793D02*
X11723515Y-14398174D01*
X11723515Y-14398174D02*
X11733039Y-14360079D01*
X11733039Y-14360079D02*
X11742563Y-14341031D01*
X11742563Y-14341031D02*
X11752086Y-14331508D01*
X11752086Y-14331508D02*
X11771134Y-14321984D01*
X11923515Y-14502936D02*
X11933039Y-14512460D01*
X11933039Y-14512460D02*
X11923515Y-14521984D01*
X11923515Y-14521984D02*
X11913991Y-14512460D01*
X11913991Y-14512460D02*
X11923515Y-14502936D01*
X11923515Y-14502936D02*
X11923515Y-14521984D01*
X12056848Y-14321984D02*
X12075896Y-14321984D01*
X12075896Y-14321984D02*
X12094944Y-14331508D01*
X12094944Y-14331508D02*
X12104467Y-14341031D01*
X12104467Y-14341031D02*
X12113991Y-14360079D01*
X12113991Y-14360079D02*
X12123515Y-14398174D01*
X12123515Y-14398174D02*
X12123515Y-14445793D01*
X12123515Y-14445793D02*
X12113991Y-14483888D01*
X12113991Y-14483888D02*
X12104467Y-14502936D01*
X12104467Y-14502936D02*
X12094944Y-14512460D01*
X12094944Y-14512460D02*
X12075896Y-14521984D01*
X12075896Y-14521984D02*
X12056848Y-14521984D01*
X12056848Y-14521984D02*
X12037801Y-14512460D01*
X12037801Y-14512460D02*
X12028277Y-14502936D01*
X12028277Y-14502936D02*
X12018753Y-14483888D01*
X12018753Y-14483888D02*
X12009229Y-14445793D01*
X12009229Y-14445793D02*
X12009229Y-14398174D01*
X12009229Y-14398174D02*
X12018753Y-14360079D01*
X12018753Y-14360079D02*
X12028277Y-14341031D01*
X12028277Y-14341031D02*
X12037801Y-14331508D01*
X12037801Y-14331508D02*
X12056848Y-14321984D01*
X12190182Y-14321984D02*
X12313991Y-14321984D01*
X12313991Y-14321984D02*
X12247325Y-14398174D01*
X12247325Y-14398174D02*
X12275896Y-14398174D01*
X12275896Y-14398174D02*
X12294944Y-14407698D01*
X12294944Y-14407698D02*
X12304467Y-14417222D01*
X12304467Y-14417222D02*
X12313991Y-14436269D01*
X12313991Y-14436269D02*
X12313991Y-14483888D01*
X12313991Y-14483888D02*
X12304467Y-14502936D01*
X12304467Y-14502936D02*
X12294944Y-14512460D01*
X12294944Y-14512460D02*
X12275896Y-14521984D01*
X12275896Y-14521984D02*
X12218753Y-14521984D01*
X12218753Y-14521984D02*
X12199706Y-14512460D01*
X12199706Y-14512460D02*
X12190182Y-14502936D01*
X12504467Y-14521984D02*
X12390182Y-14521984D01*
X12447325Y-14521984D02*
X12447325Y-14321984D01*
X12447325Y-14321984D02*
X12428277Y-14350555D01*
X12428277Y-14350555D02*
X12409229Y-14369603D01*
X12409229Y-14369603D02*
X12390182Y-14379127D01*
X12685420Y-14321984D02*
X12590182Y-14321984D01*
X12590182Y-14321984D02*
X12580658Y-14417222D01*
X12580658Y-14417222D02*
X12590182Y-14407698D01*
X12590182Y-14407698D02*
X12609229Y-14398174D01*
X12609229Y-14398174D02*
X12656848Y-14398174D01*
X12656848Y-14398174D02*
X12675896Y-14407698D01*
X12675896Y-14407698D02*
X12685420Y-14417222D01*
X12685420Y-14417222D02*
X12694944Y-14436269D01*
X12694944Y-14436269D02*
X12694944Y-14483888D01*
X12694944Y-14483888D02*
X12685420Y-14502936D01*
X12685420Y-14502936D02*
X12675896Y-14512460D01*
X12675896Y-14512460D02*
X12656848Y-14521984D01*
X12656848Y-14521984D02*
X12609229Y-14521984D01*
X12609229Y-14521984D02*
X12590182Y-14512460D01*
X12590182Y-14512460D02*
X12580658Y-14502936D01*
X12771134Y-14321984D02*
X12771134Y-14360079D01*
X12847325Y-14321984D02*
X12847325Y-14360079D01*
X13142563Y-14598174D02*
X13133039Y-14588650D01*
X13133039Y-14588650D02*
X13113991Y-14560079D01*
X13113991Y-14560079D02*
X13104468Y-14541031D01*
X13104468Y-14541031D02*
X13094944Y-14512460D01*
X13094944Y-14512460D02*
X13085420Y-14464841D01*
X13085420Y-14464841D02*
X13085420Y-14426746D01*
X13085420Y-14426746D02*
X13094944Y-14379127D01*
X13094944Y-14379127D02*
X13104468Y-14350555D01*
X13104468Y-14350555D02*
X13113991Y-14331508D01*
X13113991Y-14331508D02*
X13133039Y-14302936D01*
X13133039Y-14302936D02*
X13142563Y-14293412D01*
X13199706Y-14321984D02*
X13333039Y-14321984D01*
X13333039Y-14321984D02*
X13247325Y-14521984D01*
X13447325Y-14321984D02*
X13466372Y-14321984D01*
X13466372Y-14321984D02*
X13485420Y-14331508D01*
X13485420Y-14331508D02*
X13494944Y-14341031D01*
X13494944Y-14341031D02*
X13504468Y-14360079D01*
X13504468Y-14360079D02*
X13513991Y-14398174D01*
X13513991Y-14398174D02*
X13513991Y-14445793D01*
X13513991Y-14445793D02*
X13504468Y-14483888D01*
X13504468Y-14483888D02*
X13494944Y-14502936D01*
X13494944Y-14502936D02*
X13485420Y-14512460D01*
X13485420Y-14512460D02*
X13466372Y-14521984D01*
X13466372Y-14521984D02*
X13447325Y-14521984D01*
X13447325Y-14521984D02*
X13428277Y-14512460D01*
X13428277Y-14512460D02*
X13418753Y-14502936D01*
X13418753Y-14502936D02*
X13409229Y-14483888D01*
X13409229Y-14483888D02*
X13399706Y-14445793D01*
X13399706Y-14445793D02*
X13399706Y-14398174D01*
X13399706Y-14398174D02*
X13409229Y-14360079D01*
X13409229Y-14360079D02*
X13418753Y-14341031D01*
X13418753Y-14341031D02*
X13428277Y-14331508D01*
X13428277Y-14331508D02*
X13447325Y-14321984D01*
X13752087Y-14521984D02*
X13752087Y-14321984D01*
X13837801Y-14521984D02*
X13837801Y-14417222D01*
X13837801Y-14417222D02*
X13828277Y-14398174D01*
X13828277Y-14398174D02*
X13809230Y-14388650D01*
X13809230Y-14388650D02*
X13780658Y-14388650D01*
X13780658Y-14388650D02*
X13761610Y-14398174D01*
X13761610Y-14398174D02*
X13752087Y-14407698D01*
X13961610Y-14521984D02*
X13942563Y-14512460D01*
X13942563Y-14512460D02*
X13933039Y-14502936D01*
X13933039Y-14502936D02*
X13923515Y-14483888D01*
X13923515Y-14483888D02*
X13923515Y-14426746D01*
X13923515Y-14426746D02*
X13933039Y-14407698D01*
X13933039Y-14407698D02*
X13942563Y-14398174D01*
X13942563Y-14398174D02*
X13961610Y-14388650D01*
X13961610Y-14388650D02*
X13990182Y-14388650D01*
X13990182Y-14388650D02*
X14009230Y-14398174D01*
X14009230Y-14398174D02*
X14018753Y-14407698D01*
X14018753Y-14407698D02*
X14028277Y-14426746D01*
X14028277Y-14426746D02*
X14028277Y-14483888D01*
X14028277Y-14483888D02*
X14018753Y-14502936D01*
X14018753Y-14502936D02*
X14009230Y-14512460D01*
X14009230Y-14512460D02*
X13990182Y-14521984D01*
X13990182Y-14521984D02*
X13961610Y-14521984D01*
X14142563Y-14521984D02*
X14123515Y-14512460D01*
X14123515Y-14512460D02*
X14113991Y-14493412D01*
X14113991Y-14493412D02*
X14113991Y-14321984D01*
X14294944Y-14512460D02*
X14275896Y-14521984D01*
X14275896Y-14521984D02*
X14237801Y-14521984D01*
X14237801Y-14521984D02*
X14218753Y-14512460D01*
X14218753Y-14512460D02*
X14209230Y-14493412D01*
X14209230Y-14493412D02*
X14209230Y-14417222D01*
X14209230Y-14417222D02*
X14218753Y-14398174D01*
X14218753Y-14398174D02*
X14237801Y-14388650D01*
X14237801Y-14388650D02*
X14275896Y-14388650D01*
X14275896Y-14388650D02*
X14294944Y-14398174D01*
X14294944Y-14398174D02*
X14304468Y-14417222D01*
X14304468Y-14417222D02*
X14304468Y-14436269D01*
X14304468Y-14436269D02*
X14209230Y-14455317D01*
X14380658Y-14512460D02*
X14399706Y-14521984D01*
X14399706Y-14521984D02*
X14437801Y-14521984D01*
X14437801Y-14521984D02*
X14456849Y-14512460D01*
X14456849Y-14512460D02*
X14466372Y-14493412D01*
X14466372Y-14493412D02*
X14466372Y-14483888D01*
X14466372Y-14483888D02*
X14456849Y-14464841D01*
X14456849Y-14464841D02*
X14437801Y-14455317D01*
X14437801Y-14455317D02*
X14409230Y-14455317D01*
X14409230Y-14455317D02*
X14390182Y-14445793D01*
X14390182Y-14445793D02*
X14380658Y-14426746D01*
X14380658Y-14426746D02*
X14380658Y-14417222D01*
X14380658Y-14417222D02*
X14390182Y-14398174D01*
X14390182Y-14398174D02*
X14409230Y-14388650D01*
X14409230Y-14388650D02*
X14437801Y-14388650D01*
X14437801Y-14388650D02*
X14456849Y-14398174D01*
X14533039Y-14598174D02*
X14542563Y-14588650D01*
X14542563Y-14588650D02*
X14561611Y-14560079D01*
X14561611Y-14560079D02*
X14571134Y-14541031D01*
X14571134Y-14541031D02*
X14580658Y-14512460D01*
X14580658Y-14512460D02*
X14590182Y-14464841D01*
X14590182Y-14464841D02*
X14590182Y-14426746D01*
X14590182Y-14426746D02*
X14580658Y-14379127D01*
X14580658Y-14379127D02*
X14571134Y-14350555D01*
X14571134Y-14350555D02*
X14561611Y-14331508D01*
X14561611Y-14331508D02*
X14542563Y-14302936D01*
X14542563Y-14302936D02*
X14533039Y-14293412D01*
D12*
X9552856Y-14729856D02*
X9552856Y-14659144D01*
X9482144Y-14659144D01*
X9482144Y-14729856D01*
X9552856Y-14729856D01*
D11*
X9933039Y-14785984D02*
X9818753Y-14785984D01*
X9875896Y-14785984D02*
X9875896Y-14585984D01*
X9875896Y-14585984D02*
X9856848Y-14614555D01*
X9856848Y-14614555D02*
X9837801Y-14633603D01*
X9837801Y-14633603D02*
X9818753Y-14643127D01*
X10018753Y-14766936D02*
X10028277Y-14776460D01*
X10028277Y-14776460D02*
X10018753Y-14785984D01*
X10018753Y-14785984D02*
X10009229Y-14776460D01*
X10009229Y-14776460D02*
X10018753Y-14766936D01*
X10018753Y-14766936D02*
X10018753Y-14785984D01*
X10152086Y-14585984D02*
X10171134Y-14585984D01*
X10171134Y-14585984D02*
X10190182Y-14595508D01*
X10190182Y-14595508D02*
X10199705Y-14605031D01*
X10199705Y-14605031D02*
X10209229Y-14624079D01*
X10209229Y-14624079D02*
X10218753Y-14662174D01*
X10218753Y-14662174D02*
X10218753Y-14709793D01*
X10218753Y-14709793D02*
X10209229Y-14747888D01*
X10209229Y-14747888D02*
X10199705Y-14766936D01*
X10199705Y-14766936D02*
X10190182Y-14776460D01*
X10190182Y-14776460D02*
X10171134Y-14785984D01*
X10171134Y-14785984D02*
X10152086Y-14785984D01*
X10152086Y-14785984D02*
X10133039Y-14776460D01*
X10133039Y-14776460D02*
X10123515Y-14766936D01*
X10123515Y-14766936D02*
X10113991Y-14747888D01*
X10113991Y-14747888D02*
X10104467Y-14709793D01*
X10104467Y-14709793D02*
X10104467Y-14662174D01*
X10104467Y-14662174D02*
X10113991Y-14624079D01*
X10113991Y-14624079D02*
X10123515Y-14605031D01*
X10123515Y-14605031D02*
X10133039Y-14595508D01*
X10133039Y-14595508D02*
X10152086Y-14585984D01*
X10342563Y-14585984D02*
X10361610Y-14585984D01*
X10361610Y-14585984D02*
X10380658Y-14595508D01*
X10380658Y-14595508D02*
X10390182Y-14605031D01*
X10390182Y-14605031D02*
X10399705Y-14624079D01*
X10399705Y-14624079D02*
X10409229Y-14662174D01*
X10409229Y-14662174D02*
X10409229Y-14709793D01*
X10409229Y-14709793D02*
X10399705Y-14747888D01*
X10399705Y-14747888D02*
X10390182Y-14766936D01*
X10390182Y-14766936D02*
X10380658Y-14776460D01*
X10380658Y-14776460D02*
X10361610Y-14785984D01*
X10361610Y-14785984D02*
X10342563Y-14785984D01*
X10342563Y-14785984D02*
X10323515Y-14776460D01*
X10323515Y-14776460D02*
X10313991Y-14766936D01*
X10313991Y-14766936D02*
X10304467Y-14747888D01*
X10304467Y-14747888D02*
X10294944Y-14709793D01*
X10294944Y-14709793D02*
X10294944Y-14662174D01*
X10294944Y-14662174D02*
X10304467Y-14624079D01*
X10304467Y-14624079D02*
X10313991Y-14605031D01*
X10313991Y-14605031D02*
X10323515Y-14595508D01*
X10323515Y-14595508D02*
X10342563Y-14585984D01*
X10533039Y-14585984D02*
X10552086Y-14585984D01*
X10552086Y-14585984D02*
X10571134Y-14595508D01*
X10571134Y-14595508D02*
X10580658Y-14605031D01*
X10580658Y-14605031D02*
X10590182Y-14624079D01*
X10590182Y-14624079D02*
X10599705Y-14662174D01*
X10599705Y-14662174D02*
X10599705Y-14709793D01*
X10599705Y-14709793D02*
X10590182Y-14747888D01*
X10590182Y-14747888D02*
X10580658Y-14766936D01*
X10580658Y-14766936D02*
X10571134Y-14776460D01*
X10571134Y-14776460D02*
X10552086Y-14785984D01*
X10552086Y-14785984D02*
X10533039Y-14785984D01*
X10533039Y-14785984D02*
X10513991Y-14776460D01*
X10513991Y-14776460D02*
X10504467Y-14766936D01*
X10504467Y-14766936D02*
X10494944Y-14747888D01*
X10494944Y-14747888D02*
X10485420Y-14709793D01*
X10485420Y-14709793D02*
X10485420Y-14662174D01*
X10485420Y-14662174D02*
X10494944Y-14624079D01*
X10494944Y-14624079D02*
X10504467Y-14605031D01*
X10504467Y-14605031D02*
X10513991Y-14595508D01*
X10513991Y-14595508D02*
X10533039Y-14585984D01*
X10685420Y-14785984D02*
X10685420Y-14652650D01*
X10685420Y-14671698D02*
X10694944Y-14662174D01*
X10694944Y-14662174D02*
X10713991Y-14652650D01*
X10713991Y-14652650D02*
X10742563Y-14652650D01*
X10742563Y-14652650D02*
X10761610Y-14662174D01*
X10761610Y-14662174D02*
X10771134Y-14681222D01*
X10771134Y-14681222D02*
X10771134Y-14785984D01*
X10771134Y-14681222D02*
X10780658Y-14662174D01*
X10780658Y-14662174D02*
X10799705Y-14652650D01*
X10799705Y-14652650D02*
X10828277Y-14652650D01*
X10828277Y-14652650D02*
X10847325Y-14662174D01*
X10847325Y-14662174D02*
X10856848Y-14681222D01*
X10856848Y-14681222D02*
X10856848Y-14785984D01*
X10952086Y-14785984D02*
X10952086Y-14652650D01*
X10952086Y-14671698D02*
X10961610Y-14662174D01*
X10961610Y-14662174D02*
X10980658Y-14652650D01*
X10980658Y-14652650D02*
X11009229Y-14652650D01*
X11009229Y-14652650D02*
X11028277Y-14662174D01*
X11028277Y-14662174D02*
X11037801Y-14681222D01*
X11037801Y-14681222D02*
X11037801Y-14785984D01*
X11037801Y-14681222D02*
X11047325Y-14662174D01*
X11047325Y-14662174D02*
X11066372Y-14652650D01*
X11066372Y-14652650D02*
X11094944Y-14652650D01*
X11094944Y-14652650D02*
X11113991Y-14662174D01*
X11113991Y-14662174D02*
X11123515Y-14681222D01*
X11123515Y-14681222D02*
X11123515Y-14785984D01*
X11513991Y-14576460D02*
X11342563Y-14833603D01*
X11771134Y-14585984D02*
X11790182Y-14585984D01*
X11790182Y-14585984D02*
X11809229Y-14595508D01*
X11809229Y-14595508D02*
X11818753Y-14605031D01*
X11818753Y-14605031D02*
X11828277Y-14624079D01*
X11828277Y-14624079D02*
X11837801Y-14662174D01*
X11837801Y-14662174D02*
X11837801Y-14709793D01*
X11837801Y-14709793D02*
X11828277Y-14747888D01*
X11828277Y-14747888D02*
X11818753Y-14766936D01*
X11818753Y-14766936D02*
X11809229Y-14776460D01*
X11809229Y-14776460D02*
X11790182Y-14785984D01*
X11790182Y-14785984D02*
X11771134Y-14785984D01*
X11771134Y-14785984D02*
X11752086Y-14776460D01*
X11752086Y-14776460D02*
X11742563Y-14766936D01*
X11742563Y-14766936D02*
X11733039Y-14747888D01*
X11733039Y-14747888D02*
X11723515Y-14709793D01*
X11723515Y-14709793D02*
X11723515Y-14662174D01*
X11723515Y-14662174D02*
X11733039Y-14624079D01*
X11733039Y-14624079D02*
X11742563Y-14605031D01*
X11742563Y-14605031D02*
X11752086Y-14595508D01*
X11752086Y-14595508D02*
X11771134Y-14585984D01*
X11923515Y-14766936D02*
X11933039Y-14776460D01*
X11933039Y-14776460D02*
X11923515Y-14785984D01*
X11923515Y-14785984D02*
X11913991Y-14776460D01*
X11913991Y-14776460D02*
X11923515Y-14766936D01*
X11923515Y-14766936D02*
X11923515Y-14785984D01*
X12056848Y-14585984D02*
X12075896Y-14585984D01*
X12075896Y-14585984D02*
X12094944Y-14595508D01*
X12094944Y-14595508D02*
X12104467Y-14605031D01*
X12104467Y-14605031D02*
X12113991Y-14624079D01*
X12113991Y-14624079D02*
X12123515Y-14662174D01*
X12123515Y-14662174D02*
X12123515Y-14709793D01*
X12123515Y-14709793D02*
X12113991Y-14747888D01*
X12113991Y-14747888D02*
X12104467Y-14766936D01*
X12104467Y-14766936D02*
X12094944Y-14776460D01*
X12094944Y-14776460D02*
X12075896Y-14785984D01*
X12075896Y-14785984D02*
X12056848Y-14785984D01*
X12056848Y-14785984D02*
X12037801Y-14776460D01*
X12037801Y-14776460D02*
X12028277Y-14766936D01*
X12028277Y-14766936D02*
X12018753Y-14747888D01*
X12018753Y-14747888D02*
X12009229Y-14709793D01*
X12009229Y-14709793D02*
X12009229Y-14662174D01*
X12009229Y-14662174D02*
X12018753Y-14624079D01*
X12018753Y-14624079D02*
X12028277Y-14605031D01*
X12028277Y-14605031D02*
X12037801Y-14595508D01*
X12037801Y-14595508D02*
X12056848Y-14585984D01*
X12190182Y-14585984D02*
X12313991Y-14585984D01*
X12313991Y-14585984D02*
X12247325Y-14662174D01*
X12247325Y-14662174D02*
X12275896Y-14662174D01*
X12275896Y-14662174D02*
X12294944Y-14671698D01*
X12294944Y-14671698D02*
X12304467Y-14681222D01*
X12304467Y-14681222D02*
X12313991Y-14700269D01*
X12313991Y-14700269D02*
X12313991Y-14747888D01*
X12313991Y-14747888D02*
X12304467Y-14766936D01*
X12304467Y-14766936D02*
X12294944Y-14776460D01*
X12294944Y-14776460D02*
X12275896Y-14785984D01*
X12275896Y-14785984D02*
X12218753Y-14785984D01*
X12218753Y-14785984D02*
X12199706Y-14776460D01*
X12199706Y-14776460D02*
X12190182Y-14766936D01*
X12409229Y-14785984D02*
X12447325Y-14785984D01*
X12447325Y-14785984D02*
X12466372Y-14776460D01*
X12466372Y-14776460D02*
X12475896Y-14766936D01*
X12475896Y-14766936D02*
X12494944Y-14738365D01*
X12494944Y-14738365D02*
X12504467Y-14700269D01*
X12504467Y-14700269D02*
X12504467Y-14624079D01*
X12504467Y-14624079D02*
X12494944Y-14605031D01*
X12494944Y-14605031D02*
X12485420Y-14595508D01*
X12485420Y-14595508D02*
X12466372Y-14585984D01*
X12466372Y-14585984D02*
X12428277Y-14585984D01*
X12428277Y-14585984D02*
X12409229Y-14595508D01*
X12409229Y-14595508D02*
X12399706Y-14605031D01*
X12399706Y-14605031D02*
X12390182Y-14624079D01*
X12390182Y-14624079D02*
X12390182Y-14671698D01*
X12390182Y-14671698D02*
X12399706Y-14690746D01*
X12399706Y-14690746D02*
X12409229Y-14700269D01*
X12409229Y-14700269D02*
X12428277Y-14709793D01*
X12428277Y-14709793D02*
X12466372Y-14709793D01*
X12466372Y-14709793D02*
X12485420Y-14700269D01*
X12485420Y-14700269D02*
X12494944Y-14690746D01*
X12494944Y-14690746D02*
X12504467Y-14671698D01*
X12675896Y-14652650D02*
X12675896Y-14785984D01*
X12628277Y-14576460D02*
X12580658Y-14719317D01*
X12580658Y-14719317D02*
X12704467Y-14719317D01*
X12771134Y-14585984D02*
X12771134Y-14624079D01*
X12847325Y-14585984D02*
X12847325Y-14624079D01*
X13142563Y-14862174D02*
X13133039Y-14852650D01*
X13133039Y-14852650D02*
X13113991Y-14824079D01*
X13113991Y-14824079D02*
X13104468Y-14805031D01*
X13104468Y-14805031D02*
X13094944Y-14776460D01*
X13094944Y-14776460D02*
X13085420Y-14728841D01*
X13085420Y-14728841D02*
X13085420Y-14690746D01*
X13085420Y-14690746D02*
X13094944Y-14643127D01*
X13094944Y-14643127D02*
X13104468Y-14614555D01*
X13104468Y-14614555D02*
X13113991Y-14595508D01*
X13113991Y-14595508D02*
X13133039Y-14566936D01*
X13133039Y-14566936D02*
X13142563Y-14557412D01*
X13323515Y-14785984D02*
X13209229Y-14785984D01*
X13266372Y-14785984D02*
X13266372Y-14585984D01*
X13266372Y-14585984D02*
X13247325Y-14614555D01*
X13247325Y-14614555D02*
X13228277Y-14633603D01*
X13228277Y-14633603D02*
X13209229Y-14643127D01*
X13504468Y-14585984D02*
X13409229Y-14585984D01*
X13409229Y-14585984D02*
X13399706Y-14681222D01*
X13399706Y-14681222D02*
X13409229Y-14671698D01*
X13409229Y-14671698D02*
X13428277Y-14662174D01*
X13428277Y-14662174D02*
X13475896Y-14662174D01*
X13475896Y-14662174D02*
X13494944Y-14671698D01*
X13494944Y-14671698D02*
X13504468Y-14681222D01*
X13504468Y-14681222D02*
X13513991Y-14700269D01*
X13513991Y-14700269D02*
X13513991Y-14747888D01*
X13513991Y-14747888D02*
X13504468Y-14766936D01*
X13504468Y-14766936D02*
X13494944Y-14776460D01*
X13494944Y-14776460D02*
X13475896Y-14785984D01*
X13475896Y-14785984D02*
X13428277Y-14785984D01*
X13428277Y-14785984D02*
X13409229Y-14776460D01*
X13409229Y-14776460D02*
X13399706Y-14766936D01*
X13752087Y-14785984D02*
X13752087Y-14585984D01*
X13837801Y-14785984D02*
X13837801Y-14681222D01*
X13837801Y-14681222D02*
X13828277Y-14662174D01*
X13828277Y-14662174D02*
X13809230Y-14652650D01*
X13809230Y-14652650D02*
X13780658Y-14652650D01*
X13780658Y-14652650D02*
X13761610Y-14662174D01*
X13761610Y-14662174D02*
X13752087Y-14671698D01*
X13961610Y-14785984D02*
X13942563Y-14776460D01*
X13942563Y-14776460D02*
X13933039Y-14766936D01*
X13933039Y-14766936D02*
X13923515Y-14747888D01*
X13923515Y-14747888D02*
X13923515Y-14690746D01*
X13923515Y-14690746D02*
X13933039Y-14671698D01*
X13933039Y-14671698D02*
X13942563Y-14662174D01*
X13942563Y-14662174D02*
X13961610Y-14652650D01*
X13961610Y-14652650D02*
X13990182Y-14652650D01*
X13990182Y-14652650D02*
X14009230Y-14662174D01*
X14009230Y-14662174D02*
X14018753Y-14671698D01*
X14018753Y-14671698D02*
X14028277Y-14690746D01*
X14028277Y-14690746D02*
X14028277Y-14747888D01*
X14028277Y-14747888D02*
X14018753Y-14766936D01*
X14018753Y-14766936D02*
X14009230Y-14776460D01*
X14009230Y-14776460D02*
X13990182Y-14785984D01*
X13990182Y-14785984D02*
X13961610Y-14785984D01*
X14142563Y-14785984D02*
X14123515Y-14776460D01*
X14123515Y-14776460D02*
X14113991Y-14757412D01*
X14113991Y-14757412D02*
X14113991Y-14585984D01*
X14294944Y-14776460D02*
X14275896Y-14785984D01*
X14275896Y-14785984D02*
X14237801Y-14785984D01*
X14237801Y-14785984D02*
X14218753Y-14776460D01*
X14218753Y-14776460D02*
X14209230Y-14757412D01*
X14209230Y-14757412D02*
X14209230Y-14681222D01*
X14209230Y-14681222D02*
X14218753Y-14662174D01*
X14218753Y-14662174D02*
X14237801Y-14652650D01*
X14237801Y-14652650D02*
X14275896Y-14652650D01*
X14275896Y-14652650D02*
X14294944Y-14662174D01*
X14294944Y-14662174D02*
X14304468Y-14681222D01*
X14304468Y-14681222D02*
X14304468Y-14700269D01*
X14304468Y-14700269D02*
X14209230Y-14719317D01*
X14380658Y-14776460D02*
X14399706Y-14785984D01*
X14399706Y-14785984D02*
X14437801Y-14785984D01*
X14437801Y-14785984D02*
X14456849Y-14776460D01*
X14456849Y-14776460D02*
X14466372Y-14757412D01*
X14466372Y-14757412D02*
X14466372Y-14747888D01*
X14466372Y-14747888D02*
X14456849Y-14728841D01*
X14456849Y-14728841D02*
X14437801Y-14719317D01*
X14437801Y-14719317D02*
X14409230Y-14719317D01*
X14409230Y-14719317D02*
X14390182Y-14709793D01*
X14390182Y-14709793D02*
X14380658Y-14690746D01*
X14380658Y-14690746D02*
X14380658Y-14681222D01*
X14380658Y-14681222D02*
X14390182Y-14662174D01*
X14390182Y-14662174D02*
X14409230Y-14652650D01*
X14409230Y-14652650D02*
X14437801Y-14652650D01*
X14437801Y-14652650D02*
X14456849Y-14662174D01*
X14533039Y-14862174D02*
X14542563Y-14852650D01*
X14542563Y-14852650D02*
X14561611Y-14824079D01*
X14561611Y-14824079D02*
X14571134Y-14805031D01*
X14571134Y-14805031D02*
X14580658Y-14776460D01*
X14580658Y-14776460D02*
X14590182Y-14728841D01*
X14590182Y-14728841D02*
X14590182Y-14690746D01*
X14590182Y-14690746D02*
X14580658Y-14643127D01*
X14580658Y-14643127D02*
X14571134Y-14614555D01*
X14571134Y-14614555D02*
X14561611Y-14595508D01*
X14561611Y-14595508D02*
X14542563Y-14566936D01*
X14542563Y-14566936D02*
X14533039Y-14557412D01*
D13*
X9502500Y-15023500D02*
X9567500Y-14958500D01*
X9502500Y-14893500D01*
X9437500Y-14958500D01*
X9502500Y-15023500D01*
D11*
X9933039Y-15049984D02*
X9818753Y-15049984D01*
X9875896Y-15049984D02*
X9875896Y-14849984D01*
X9875896Y-14849984D02*
X9856848Y-14878555D01*
X9856848Y-14878555D02*
X9837801Y-14897603D01*
X9837801Y-14897603D02*
X9818753Y-14907127D01*
X10018753Y-15030936D02*
X10028277Y-15040460D01*
X10028277Y-15040460D02*
X10018753Y-15049984D01*
X10018753Y-15049984D02*
X10009229Y-15040460D01*
X10009229Y-15040460D02*
X10018753Y-15030936D01*
X10018753Y-15030936D02*
X10018753Y-15049984D01*
X10094944Y-14849984D02*
X10218753Y-14849984D01*
X10218753Y-14849984D02*
X10152086Y-14926174D01*
X10152086Y-14926174D02*
X10180658Y-14926174D01*
X10180658Y-14926174D02*
X10199705Y-14935698D01*
X10199705Y-14935698D02*
X10209229Y-14945222D01*
X10209229Y-14945222D02*
X10218753Y-14964269D01*
X10218753Y-14964269D02*
X10218753Y-15011888D01*
X10218753Y-15011888D02*
X10209229Y-15030936D01*
X10209229Y-15030936D02*
X10199705Y-15040460D01*
X10199705Y-15040460D02*
X10180658Y-15049984D01*
X10180658Y-15049984D02*
X10123515Y-15049984D01*
X10123515Y-15049984D02*
X10104467Y-15040460D01*
X10104467Y-15040460D02*
X10094944Y-15030936D01*
X10342563Y-14849984D02*
X10361610Y-14849984D01*
X10361610Y-14849984D02*
X10380658Y-14859508D01*
X10380658Y-14859508D02*
X10390182Y-14869031D01*
X10390182Y-14869031D02*
X10399705Y-14888079D01*
X10399705Y-14888079D02*
X10409229Y-14926174D01*
X10409229Y-14926174D02*
X10409229Y-14973793D01*
X10409229Y-14973793D02*
X10399705Y-15011888D01*
X10399705Y-15011888D02*
X10390182Y-15030936D01*
X10390182Y-15030936D02*
X10380658Y-15040460D01*
X10380658Y-15040460D02*
X10361610Y-15049984D01*
X10361610Y-15049984D02*
X10342563Y-15049984D01*
X10342563Y-15049984D02*
X10323515Y-15040460D01*
X10323515Y-15040460D02*
X10313991Y-15030936D01*
X10313991Y-15030936D02*
X10304467Y-15011888D01*
X10304467Y-15011888D02*
X10294944Y-14973793D01*
X10294944Y-14973793D02*
X10294944Y-14926174D01*
X10294944Y-14926174D02*
X10304467Y-14888079D01*
X10304467Y-14888079D02*
X10313991Y-14869031D01*
X10313991Y-14869031D02*
X10323515Y-14859508D01*
X10323515Y-14859508D02*
X10342563Y-14849984D01*
X10533039Y-14849984D02*
X10552086Y-14849984D01*
X10552086Y-14849984D02*
X10571134Y-14859508D01*
X10571134Y-14859508D02*
X10580658Y-14869031D01*
X10580658Y-14869031D02*
X10590182Y-14888079D01*
X10590182Y-14888079D02*
X10599705Y-14926174D01*
X10599705Y-14926174D02*
X10599705Y-14973793D01*
X10599705Y-14973793D02*
X10590182Y-15011888D01*
X10590182Y-15011888D02*
X10580658Y-15030936D01*
X10580658Y-15030936D02*
X10571134Y-15040460D01*
X10571134Y-15040460D02*
X10552086Y-15049984D01*
X10552086Y-15049984D02*
X10533039Y-15049984D01*
X10533039Y-15049984D02*
X10513991Y-15040460D01*
X10513991Y-15040460D02*
X10504467Y-15030936D01*
X10504467Y-15030936D02*
X10494944Y-15011888D01*
X10494944Y-15011888D02*
X10485420Y-14973793D01*
X10485420Y-14973793D02*
X10485420Y-14926174D01*
X10485420Y-14926174D02*
X10494944Y-14888079D01*
X10494944Y-14888079D02*
X10504467Y-14869031D01*
X10504467Y-14869031D02*
X10513991Y-14859508D01*
X10513991Y-14859508D02*
X10533039Y-14849984D01*
X10685420Y-15049984D02*
X10685420Y-14916650D01*
X10685420Y-14935698D02*
X10694944Y-14926174D01*
X10694944Y-14926174D02*
X10713991Y-14916650D01*
X10713991Y-14916650D02*
X10742563Y-14916650D01*
X10742563Y-14916650D02*
X10761610Y-14926174D01*
X10761610Y-14926174D02*
X10771134Y-14945222D01*
X10771134Y-14945222D02*
X10771134Y-15049984D01*
X10771134Y-14945222D02*
X10780658Y-14926174D01*
X10780658Y-14926174D02*
X10799705Y-14916650D01*
X10799705Y-14916650D02*
X10828277Y-14916650D01*
X10828277Y-14916650D02*
X10847325Y-14926174D01*
X10847325Y-14926174D02*
X10856848Y-14945222D01*
X10856848Y-14945222D02*
X10856848Y-15049984D01*
X10952086Y-15049984D02*
X10952086Y-14916650D01*
X10952086Y-14935698D02*
X10961610Y-14926174D01*
X10961610Y-14926174D02*
X10980658Y-14916650D01*
X10980658Y-14916650D02*
X11009229Y-14916650D01*
X11009229Y-14916650D02*
X11028277Y-14926174D01*
X11028277Y-14926174D02*
X11037801Y-14945222D01*
X11037801Y-14945222D02*
X11037801Y-15049984D01*
X11037801Y-14945222D02*
X11047325Y-14926174D01*
X11047325Y-14926174D02*
X11066372Y-14916650D01*
X11066372Y-14916650D02*
X11094944Y-14916650D01*
X11094944Y-14916650D02*
X11113991Y-14926174D01*
X11113991Y-14926174D02*
X11123515Y-14945222D01*
X11123515Y-14945222D02*
X11123515Y-15049984D01*
X11513991Y-14840460D02*
X11342563Y-15097603D01*
X11771134Y-14849984D02*
X11790182Y-14849984D01*
X11790182Y-14849984D02*
X11809229Y-14859508D01*
X11809229Y-14859508D02*
X11818753Y-14869031D01*
X11818753Y-14869031D02*
X11828277Y-14888079D01*
X11828277Y-14888079D02*
X11837801Y-14926174D01*
X11837801Y-14926174D02*
X11837801Y-14973793D01*
X11837801Y-14973793D02*
X11828277Y-15011888D01*
X11828277Y-15011888D02*
X11818753Y-15030936D01*
X11818753Y-15030936D02*
X11809229Y-15040460D01*
X11809229Y-15040460D02*
X11790182Y-15049984D01*
X11790182Y-15049984D02*
X11771134Y-15049984D01*
X11771134Y-15049984D02*
X11752086Y-15040460D01*
X11752086Y-15040460D02*
X11742563Y-15030936D01*
X11742563Y-15030936D02*
X11733039Y-15011888D01*
X11733039Y-15011888D02*
X11723515Y-14973793D01*
X11723515Y-14973793D02*
X11723515Y-14926174D01*
X11723515Y-14926174D02*
X11733039Y-14888079D01*
X11733039Y-14888079D02*
X11742563Y-14869031D01*
X11742563Y-14869031D02*
X11752086Y-14859508D01*
X11752086Y-14859508D02*
X11771134Y-14849984D01*
X11923515Y-15030936D02*
X11933039Y-15040460D01*
X11933039Y-15040460D02*
X11923515Y-15049984D01*
X11923515Y-15049984D02*
X11913991Y-15040460D01*
X11913991Y-15040460D02*
X11923515Y-15030936D01*
X11923515Y-15030936D02*
X11923515Y-15049984D01*
X12056848Y-14849984D02*
X12075896Y-14849984D01*
X12075896Y-14849984D02*
X12094944Y-14859508D01*
X12094944Y-14859508D02*
X12104467Y-14869031D01*
X12104467Y-14869031D02*
X12113991Y-14888079D01*
X12113991Y-14888079D02*
X12123515Y-14926174D01*
X12123515Y-14926174D02*
X12123515Y-14973793D01*
X12123515Y-14973793D02*
X12113991Y-15011888D01*
X12113991Y-15011888D02*
X12104467Y-15030936D01*
X12104467Y-15030936D02*
X12094944Y-15040460D01*
X12094944Y-15040460D02*
X12075896Y-15049984D01*
X12075896Y-15049984D02*
X12056848Y-15049984D01*
X12056848Y-15049984D02*
X12037801Y-15040460D01*
X12037801Y-15040460D02*
X12028277Y-15030936D01*
X12028277Y-15030936D02*
X12018753Y-15011888D01*
X12018753Y-15011888D02*
X12009229Y-14973793D01*
X12009229Y-14973793D02*
X12009229Y-14926174D01*
X12009229Y-14926174D02*
X12018753Y-14888079D01*
X12018753Y-14888079D02*
X12028277Y-14869031D01*
X12028277Y-14869031D02*
X12037801Y-14859508D01*
X12037801Y-14859508D02*
X12056848Y-14849984D01*
X12304467Y-14849984D02*
X12209229Y-14849984D01*
X12209229Y-14849984D02*
X12199706Y-14945222D01*
X12199706Y-14945222D02*
X12209229Y-14935698D01*
X12209229Y-14935698D02*
X12228277Y-14926174D01*
X12228277Y-14926174D02*
X12275896Y-14926174D01*
X12275896Y-14926174D02*
X12294944Y-14935698D01*
X12294944Y-14935698D02*
X12304467Y-14945222D01*
X12304467Y-14945222D02*
X12313991Y-14964269D01*
X12313991Y-14964269D02*
X12313991Y-15011888D01*
X12313991Y-15011888D02*
X12304467Y-15030936D01*
X12304467Y-15030936D02*
X12294944Y-15040460D01*
X12294944Y-15040460D02*
X12275896Y-15049984D01*
X12275896Y-15049984D02*
X12228277Y-15049984D01*
X12228277Y-15049984D02*
X12209229Y-15040460D01*
X12209229Y-15040460D02*
X12199706Y-15030936D01*
X12504467Y-15049984D02*
X12390182Y-15049984D01*
X12447325Y-15049984D02*
X12447325Y-14849984D01*
X12447325Y-14849984D02*
X12428277Y-14878555D01*
X12428277Y-14878555D02*
X12409229Y-14897603D01*
X12409229Y-14897603D02*
X12390182Y-14907127D01*
X12580658Y-14869031D02*
X12590182Y-14859508D01*
X12590182Y-14859508D02*
X12609229Y-14849984D01*
X12609229Y-14849984D02*
X12656848Y-14849984D01*
X12656848Y-14849984D02*
X12675896Y-14859508D01*
X12675896Y-14859508D02*
X12685420Y-14869031D01*
X12685420Y-14869031D02*
X12694944Y-14888079D01*
X12694944Y-14888079D02*
X12694944Y-14907127D01*
X12694944Y-14907127D02*
X12685420Y-14935698D01*
X12685420Y-14935698D02*
X12571134Y-15049984D01*
X12571134Y-15049984D02*
X12694944Y-15049984D01*
X12771134Y-14849984D02*
X12771134Y-14888079D01*
X12847325Y-14849984D02*
X12847325Y-14888079D01*
X13142563Y-15126174D02*
X13133039Y-15116650D01*
X13133039Y-15116650D02*
X13113991Y-15088079D01*
X13113991Y-15088079D02*
X13104468Y-15069031D01*
X13104468Y-15069031D02*
X13094944Y-15040460D01*
X13094944Y-15040460D02*
X13085420Y-14992841D01*
X13085420Y-14992841D02*
X13085420Y-14954746D01*
X13085420Y-14954746D02*
X13094944Y-14907127D01*
X13094944Y-14907127D02*
X13104468Y-14878555D01*
X13104468Y-14878555D02*
X13113991Y-14859508D01*
X13113991Y-14859508D02*
X13133039Y-14830936D01*
X13133039Y-14830936D02*
X13142563Y-14821412D01*
X13209229Y-14869031D02*
X13218753Y-14859508D01*
X13218753Y-14859508D02*
X13237801Y-14849984D01*
X13237801Y-14849984D02*
X13285420Y-14849984D01*
X13285420Y-14849984D02*
X13304468Y-14859508D01*
X13304468Y-14859508D02*
X13313991Y-14869031D01*
X13313991Y-14869031D02*
X13323515Y-14888079D01*
X13323515Y-14888079D02*
X13323515Y-14907127D01*
X13323515Y-14907127D02*
X13313991Y-14935698D01*
X13313991Y-14935698D02*
X13199706Y-15049984D01*
X13199706Y-15049984D02*
X13323515Y-15049984D01*
X13561610Y-15049984D02*
X13561610Y-14849984D01*
X13647325Y-15049984D02*
X13647325Y-14945222D01*
X13647325Y-14945222D02*
X13637801Y-14926174D01*
X13637801Y-14926174D02*
X13618753Y-14916650D01*
X13618753Y-14916650D02*
X13590182Y-14916650D01*
X13590182Y-14916650D02*
X13571134Y-14926174D01*
X13571134Y-14926174D02*
X13561610Y-14935698D01*
X13771134Y-15049984D02*
X13752087Y-15040460D01*
X13752087Y-15040460D02*
X13742563Y-15030936D01*
X13742563Y-15030936D02*
X13733039Y-15011888D01*
X13733039Y-15011888D02*
X13733039Y-14954746D01*
X13733039Y-14954746D02*
X13742563Y-14935698D01*
X13742563Y-14935698D02*
X13752087Y-14926174D01*
X13752087Y-14926174D02*
X13771134Y-14916650D01*
X13771134Y-14916650D02*
X13799706Y-14916650D01*
X13799706Y-14916650D02*
X13818753Y-14926174D01*
X13818753Y-14926174D02*
X13828277Y-14935698D01*
X13828277Y-14935698D02*
X13837801Y-14954746D01*
X13837801Y-14954746D02*
X13837801Y-15011888D01*
X13837801Y-15011888D02*
X13828277Y-15030936D01*
X13828277Y-15030936D02*
X13818753Y-15040460D01*
X13818753Y-15040460D02*
X13799706Y-15049984D01*
X13799706Y-15049984D02*
X13771134Y-15049984D01*
X13952087Y-15049984D02*
X13933039Y-15040460D01*
X13933039Y-15040460D02*
X13923515Y-15021412D01*
X13923515Y-15021412D02*
X13923515Y-14849984D01*
X14104468Y-15040460D02*
X14085420Y-15049984D01*
X14085420Y-15049984D02*
X14047325Y-15049984D01*
X14047325Y-15049984D02*
X14028277Y-15040460D01*
X14028277Y-15040460D02*
X14018753Y-15021412D01*
X14018753Y-15021412D02*
X14018753Y-14945222D01*
X14018753Y-14945222D02*
X14028277Y-14926174D01*
X14028277Y-14926174D02*
X14047325Y-14916650D01*
X14047325Y-14916650D02*
X14085420Y-14916650D01*
X14085420Y-14916650D02*
X14104468Y-14926174D01*
X14104468Y-14926174D02*
X14113991Y-14945222D01*
X14113991Y-14945222D02*
X14113991Y-14964269D01*
X14113991Y-14964269D02*
X14018753Y-14983317D01*
X14190182Y-15040460D02*
X14209230Y-15049984D01*
X14209230Y-15049984D02*
X14247325Y-15049984D01*
X14247325Y-15049984D02*
X14266372Y-15040460D01*
X14266372Y-15040460D02*
X14275896Y-15021412D01*
X14275896Y-15021412D02*
X14275896Y-15011888D01*
X14275896Y-15011888D02*
X14266372Y-14992841D01*
X14266372Y-14992841D02*
X14247325Y-14983317D01*
X14247325Y-14983317D02*
X14218753Y-14983317D01*
X14218753Y-14983317D02*
X14199706Y-14973793D01*
X14199706Y-14973793D02*
X14190182Y-14954746D01*
X14190182Y-14954746D02*
X14190182Y-14945222D01*
X14190182Y-14945222D02*
X14199706Y-14926174D01*
X14199706Y-14926174D02*
X14218753Y-14916650D01*
X14218753Y-14916650D02*
X14247325Y-14916650D01*
X14247325Y-14916650D02*
X14266372Y-14926174D01*
X14342563Y-15126174D02*
X14352087Y-15116650D01*
X14352087Y-15116650D02*
X14371134Y-15088079D01*
X14371134Y-15088079D02*
X14380658Y-15069031D01*
X14380658Y-15069031D02*
X14390182Y-15040460D01*
X14390182Y-15040460D02*
X14399706Y-14992841D01*
X14399706Y-14992841D02*
X14399706Y-14954746D01*
X14399706Y-14954746D02*
X14390182Y-14907127D01*
X14390182Y-14907127D02*
X14380658Y-14878555D01*
X14380658Y-14878555D02*
X14371134Y-14859508D01*
X14371134Y-14859508D02*
X14352087Y-14830936D01*
X14352087Y-14830936D02*
X14342563Y-14821412D01*
M02*
