%TF.GenerationSoftware,KiCad,Pcbnew,7.0.10-7.0.10~ubuntu20.04.1*%
%TF.CreationDate,2024-02-18T22:33:08+01:00*%
%TF.ProjectId,ESP32Hardware,45535033-3248-4617-9264-776172652e6b,rev?*%
%TF.SameCoordinates,Original*%
%TF.FileFunction,Drillmap*%
%TF.FilePolarity,Positive*%
%FSLAX45Y45*%
G04 Gerber Fmt 4.5, Leading zero omitted, Abs format (unit mm)*
G04 Created by KiCad (PCBNEW 7.0.10-7.0.10~ubuntu20.04.1) date 2024-02-18 22:33:08*
%MOMM*%
%LPD*%
G01*
G04 APERTURE LIST*
%ADD10C,0.050000*%
%ADD11C,0.200000*%
%ADD12C,0.100000*%
G04 APERTURE END LIST*
D10*
X9570000Y-13260000D02*
X9570000Y-13209200D01*
X9570000Y-7418000D02*
X16840200Y-7416800D01*
X16840200Y-13258800D02*
X9570000Y-13260000D01*
X16840200Y-7416800D02*
X16840200Y-13258800D01*
X9570000Y-7418000D02*
X9570000Y-13209200D01*
D11*
D12*
X16348054Y-9129297D02*
X16438054Y-9219297D01*
X16438054Y-9129297D02*
X16348054Y-9219297D01*
X16348054Y-9929297D02*
X16438054Y-10019297D01*
X16438054Y-9929297D02*
X16348054Y-10019297D01*
D11*
X9828277Y-13573984D02*
X9828277Y-13373984D01*
X9828277Y-13373984D02*
X9875896Y-13373984D01*
X9875896Y-13373984D02*
X9904467Y-13383508D01*
X9904467Y-13383508D02*
X9923515Y-13402555D01*
X9923515Y-13402555D02*
X9933039Y-13421603D01*
X9933039Y-13421603D02*
X9942563Y-13459698D01*
X9942563Y-13459698D02*
X9942563Y-13488269D01*
X9942563Y-13488269D02*
X9933039Y-13526365D01*
X9933039Y-13526365D02*
X9923515Y-13545412D01*
X9923515Y-13545412D02*
X9904467Y-13564460D01*
X9904467Y-13564460D02*
X9875896Y-13573984D01*
X9875896Y-13573984D02*
X9828277Y-13573984D01*
X10028277Y-13573984D02*
X10028277Y-13440650D01*
X10028277Y-13478746D02*
X10037801Y-13459698D01*
X10037801Y-13459698D02*
X10047324Y-13450174D01*
X10047324Y-13450174D02*
X10066372Y-13440650D01*
X10066372Y-13440650D02*
X10085420Y-13440650D01*
X10152086Y-13573984D02*
X10152086Y-13440650D01*
X10152086Y-13373984D02*
X10142563Y-13383508D01*
X10142563Y-13383508D02*
X10152086Y-13393031D01*
X10152086Y-13393031D02*
X10161610Y-13383508D01*
X10161610Y-13383508D02*
X10152086Y-13373984D01*
X10152086Y-13373984D02*
X10152086Y-13393031D01*
X10275896Y-13573984D02*
X10256848Y-13564460D01*
X10256848Y-13564460D02*
X10247324Y-13545412D01*
X10247324Y-13545412D02*
X10247324Y-13373984D01*
X10380658Y-13573984D02*
X10361610Y-13564460D01*
X10361610Y-13564460D02*
X10352086Y-13545412D01*
X10352086Y-13545412D02*
X10352086Y-13373984D01*
X10609229Y-13573984D02*
X10609229Y-13373984D01*
X10609229Y-13373984D02*
X10675896Y-13516841D01*
X10675896Y-13516841D02*
X10742563Y-13373984D01*
X10742563Y-13373984D02*
X10742563Y-13573984D01*
X10923515Y-13573984D02*
X10923515Y-13469222D01*
X10923515Y-13469222D02*
X10913991Y-13450174D01*
X10913991Y-13450174D02*
X10894944Y-13440650D01*
X10894944Y-13440650D02*
X10856848Y-13440650D01*
X10856848Y-13440650D02*
X10837801Y-13450174D01*
X10923515Y-13564460D02*
X10904467Y-13573984D01*
X10904467Y-13573984D02*
X10856848Y-13573984D01*
X10856848Y-13573984D02*
X10837801Y-13564460D01*
X10837801Y-13564460D02*
X10828277Y-13545412D01*
X10828277Y-13545412D02*
X10828277Y-13526365D01*
X10828277Y-13526365D02*
X10837801Y-13507317D01*
X10837801Y-13507317D02*
X10856848Y-13497793D01*
X10856848Y-13497793D02*
X10904467Y-13497793D01*
X10904467Y-13497793D02*
X10923515Y-13488269D01*
X11018753Y-13440650D02*
X11018753Y-13640650D01*
X11018753Y-13450174D02*
X11037801Y-13440650D01*
X11037801Y-13440650D02*
X11075896Y-13440650D01*
X11075896Y-13440650D02*
X11094944Y-13450174D01*
X11094944Y-13450174D02*
X11104467Y-13459698D01*
X11104467Y-13459698D02*
X11113991Y-13478746D01*
X11113991Y-13478746D02*
X11113991Y-13535888D01*
X11113991Y-13535888D02*
X11104467Y-13554936D01*
X11104467Y-13554936D02*
X11094944Y-13564460D01*
X11094944Y-13564460D02*
X11075896Y-13573984D01*
X11075896Y-13573984D02*
X11037801Y-13573984D01*
X11037801Y-13573984D02*
X11018753Y-13564460D01*
X11199705Y-13554936D02*
X11209229Y-13564460D01*
X11209229Y-13564460D02*
X11199705Y-13573984D01*
X11199705Y-13573984D02*
X11190182Y-13564460D01*
X11190182Y-13564460D02*
X11199705Y-13554936D01*
X11199705Y-13554936D02*
X11199705Y-13573984D01*
X11199705Y-13450174D02*
X11209229Y-13459698D01*
X11209229Y-13459698D02*
X11199705Y-13469222D01*
X11199705Y-13469222D02*
X11190182Y-13459698D01*
X11190182Y-13459698D02*
X11199705Y-13450174D01*
X11199705Y-13450174D02*
X11199705Y-13469222D01*
D12*
X9477500Y-13857500D02*
X9567500Y-13947500D01*
X9567500Y-13857500D02*
X9477500Y-13947500D01*
D11*
X9866372Y-13793984D02*
X9885420Y-13793984D01*
X9885420Y-13793984D02*
X9904467Y-13803508D01*
X9904467Y-13803508D02*
X9913991Y-13813031D01*
X9913991Y-13813031D02*
X9923515Y-13832079D01*
X9923515Y-13832079D02*
X9933039Y-13870174D01*
X9933039Y-13870174D02*
X9933039Y-13917793D01*
X9933039Y-13917793D02*
X9923515Y-13955888D01*
X9923515Y-13955888D02*
X9913991Y-13974936D01*
X9913991Y-13974936D02*
X9904467Y-13984460D01*
X9904467Y-13984460D02*
X9885420Y-13993984D01*
X9885420Y-13993984D02*
X9866372Y-13993984D01*
X9866372Y-13993984D02*
X9847324Y-13984460D01*
X9847324Y-13984460D02*
X9837801Y-13974936D01*
X9837801Y-13974936D02*
X9828277Y-13955888D01*
X9828277Y-13955888D02*
X9818753Y-13917793D01*
X9818753Y-13917793D02*
X9818753Y-13870174D01*
X9818753Y-13870174D02*
X9828277Y-13832079D01*
X9828277Y-13832079D02*
X9837801Y-13813031D01*
X9837801Y-13813031D02*
X9847324Y-13803508D01*
X9847324Y-13803508D02*
X9866372Y-13793984D01*
X10018753Y-13974936D02*
X10028277Y-13984460D01*
X10028277Y-13984460D02*
X10018753Y-13993984D01*
X10018753Y-13993984D02*
X10009229Y-13984460D01*
X10009229Y-13984460D02*
X10018753Y-13974936D01*
X10018753Y-13974936D02*
X10018753Y-13993984D01*
X10123515Y-13993984D02*
X10161610Y-13993984D01*
X10161610Y-13993984D02*
X10180658Y-13984460D01*
X10180658Y-13984460D02*
X10190182Y-13974936D01*
X10190182Y-13974936D02*
X10209229Y-13946365D01*
X10209229Y-13946365D02*
X10218753Y-13908269D01*
X10218753Y-13908269D02*
X10218753Y-13832079D01*
X10218753Y-13832079D02*
X10209229Y-13813031D01*
X10209229Y-13813031D02*
X10199705Y-13803508D01*
X10199705Y-13803508D02*
X10180658Y-13793984D01*
X10180658Y-13793984D02*
X10142563Y-13793984D01*
X10142563Y-13793984D02*
X10123515Y-13803508D01*
X10123515Y-13803508D02*
X10113991Y-13813031D01*
X10113991Y-13813031D02*
X10104467Y-13832079D01*
X10104467Y-13832079D02*
X10104467Y-13879698D01*
X10104467Y-13879698D02*
X10113991Y-13898746D01*
X10113991Y-13898746D02*
X10123515Y-13908269D01*
X10123515Y-13908269D02*
X10142563Y-13917793D01*
X10142563Y-13917793D02*
X10180658Y-13917793D01*
X10180658Y-13917793D02*
X10199705Y-13908269D01*
X10199705Y-13908269D02*
X10209229Y-13898746D01*
X10209229Y-13898746D02*
X10218753Y-13879698D01*
X10342563Y-13793984D02*
X10361610Y-13793984D01*
X10361610Y-13793984D02*
X10380658Y-13803508D01*
X10380658Y-13803508D02*
X10390182Y-13813031D01*
X10390182Y-13813031D02*
X10399705Y-13832079D01*
X10399705Y-13832079D02*
X10409229Y-13870174D01*
X10409229Y-13870174D02*
X10409229Y-13917793D01*
X10409229Y-13917793D02*
X10399705Y-13955888D01*
X10399705Y-13955888D02*
X10390182Y-13974936D01*
X10390182Y-13974936D02*
X10380658Y-13984460D01*
X10380658Y-13984460D02*
X10361610Y-13993984D01*
X10361610Y-13993984D02*
X10342563Y-13993984D01*
X10342563Y-13993984D02*
X10323515Y-13984460D01*
X10323515Y-13984460D02*
X10313991Y-13974936D01*
X10313991Y-13974936D02*
X10304467Y-13955888D01*
X10304467Y-13955888D02*
X10294944Y-13917793D01*
X10294944Y-13917793D02*
X10294944Y-13870174D01*
X10294944Y-13870174D02*
X10304467Y-13832079D01*
X10304467Y-13832079D02*
X10313991Y-13813031D01*
X10313991Y-13813031D02*
X10323515Y-13803508D01*
X10323515Y-13803508D02*
X10342563Y-13793984D01*
X10533039Y-13793984D02*
X10552086Y-13793984D01*
X10552086Y-13793984D02*
X10571134Y-13803508D01*
X10571134Y-13803508D02*
X10580658Y-13813031D01*
X10580658Y-13813031D02*
X10590182Y-13832079D01*
X10590182Y-13832079D02*
X10599705Y-13870174D01*
X10599705Y-13870174D02*
X10599705Y-13917793D01*
X10599705Y-13917793D02*
X10590182Y-13955888D01*
X10590182Y-13955888D02*
X10580658Y-13974936D01*
X10580658Y-13974936D02*
X10571134Y-13984460D01*
X10571134Y-13984460D02*
X10552086Y-13993984D01*
X10552086Y-13993984D02*
X10533039Y-13993984D01*
X10533039Y-13993984D02*
X10513991Y-13984460D01*
X10513991Y-13984460D02*
X10504467Y-13974936D01*
X10504467Y-13974936D02*
X10494944Y-13955888D01*
X10494944Y-13955888D02*
X10485420Y-13917793D01*
X10485420Y-13917793D02*
X10485420Y-13870174D01*
X10485420Y-13870174D02*
X10494944Y-13832079D01*
X10494944Y-13832079D02*
X10504467Y-13813031D01*
X10504467Y-13813031D02*
X10513991Y-13803508D01*
X10513991Y-13803508D02*
X10533039Y-13793984D01*
X10685420Y-13993984D02*
X10685420Y-13860650D01*
X10685420Y-13879698D02*
X10694944Y-13870174D01*
X10694944Y-13870174D02*
X10713991Y-13860650D01*
X10713991Y-13860650D02*
X10742563Y-13860650D01*
X10742563Y-13860650D02*
X10761610Y-13870174D01*
X10761610Y-13870174D02*
X10771134Y-13889222D01*
X10771134Y-13889222D02*
X10771134Y-13993984D01*
X10771134Y-13889222D02*
X10780658Y-13870174D01*
X10780658Y-13870174D02*
X10799705Y-13860650D01*
X10799705Y-13860650D02*
X10828277Y-13860650D01*
X10828277Y-13860650D02*
X10847325Y-13870174D01*
X10847325Y-13870174D02*
X10856848Y-13889222D01*
X10856848Y-13889222D02*
X10856848Y-13993984D01*
X10952086Y-13993984D02*
X10952086Y-13860650D01*
X10952086Y-13879698D02*
X10961610Y-13870174D01*
X10961610Y-13870174D02*
X10980658Y-13860650D01*
X10980658Y-13860650D02*
X11009229Y-13860650D01*
X11009229Y-13860650D02*
X11028277Y-13870174D01*
X11028277Y-13870174D02*
X11037801Y-13889222D01*
X11037801Y-13889222D02*
X11037801Y-13993984D01*
X11037801Y-13889222D02*
X11047325Y-13870174D01*
X11047325Y-13870174D02*
X11066372Y-13860650D01*
X11066372Y-13860650D02*
X11094944Y-13860650D01*
X11094944Y-13860650D02*
X11113991Y-13870174D01*
X11113991Y-13870174D02*
X11123515Y-13889222D01*
X11123515Y-13889222D02*
X11123515Y-13993984D01*
X11513991Y-13784460D02*
X11342563Y-14041603D01*
X11771134Y-13793984D02*
X11790182Y-13793984D01*
X11790182Y-13793984D02*
X11809229Y-13803508D01*
X11809229Y-13803508D02*
X11818753Y-13813031D01*
X11818753Y-13813031D02*
X11828277Y-13832079D01*
X11828277Y-13832079D02*
X11837801Y-13870174D01*
X11837801Y-13870174D02*
X11837801Y-13917793D01*
X11837801Y-13917793D02*
X11828277Y-13955888D01*
X11828277Y-13955888D02*
X11818753Y-13974936D01*
X11818753Y-13974936D02*
X11809229Y-13984460D01*
X11809229Y-13984460D02*
X11790182Y-13993984D01*
X11790182Y-13993984D02*
X11771134Y-13993984D01*
X11771134Y-13993984D02*
X11752086Y-13984460D01*
X11752086Y-13984460D02*
X11742563Y-13974936D01*
X11742563Y-13974936D02*
X11733039Y-13955888D01*
X11733039Y-13955888D02*
X11723515Y-13917793D01*
X11723515Y-13917793D02*
X11723515Y-13870174D01*
X11723515Y-13870174D02*
X11733039Y-13832079D01*
X11733039Y-13832079D02*
X11742563Y-13813031D01*
X11742563Y-13813031D02*
X11752086Y-13803508D01*
X11752086Y-13803508D02*
X11771134Y-13793984D01*
X11923515Y-13974936D02*
X11933039Y-13984460D01*
X11933039Y-13984460D02*
X11923515Y-13993984D01*
X11923515Y-13993984D02*
X11913991Y-13984460D01*
X11913991Y-13984460D02*
X11923515Y-13974936D01*
X11923515Y-13974936D02*
X11923515Y-13993984D01*
X12056848Y-13793984D02*
X12075896Y-13793984D01*
X12075896Y-13793984D02*
X12094944Y-13803508D01*
X12094944Y-13803508D02*
X12104467Y-13813031D01*
X12104467Y-13813031D02*
X12113991Y-13832079D01*
X12113991Y-13832079D02*
X12123515Y-13870174D01*
X12123515Y-13870174D02*
X12123515Y-13917793D01*
X12123515Y-13917793D02*
X12113991Y-13955888D01*
X12113991Y-13955888D02*
X12104467Y-13974936D01*
X12104467Y-13974936D02*
X12094944Y-13984460D01*
X12094944Y-13984460D02*
X12075896Y-13993984D01*
X12075896Y-13993984D02*
X12056848Y-13993984D01*
X12056848Y-13993984D02*
X12037801Y-13984460D01*
X12037801Y-13984460D02*
X12028277Y-13974936D01*
X12028277Y-13974936D02*
X12018753Y-13955888D01*
X12018753Y-13955888D02*
X12009229Y-13917793D01*
X12009229Y-13917793D02*
X12009229Y-13870174D01*
X12009229Y-13870174D02*
X12018753Y-13832079D01*
X12018753Y-13832079D02*
X12028277Y-13813031D01*
X12028277Y-13813031D02*
X12037801Y-13803508D01*
X12037801Y-13803508D02*
X12056848Y-13793984D01*
X12190182Y-13793984D02*
X12313991Y-13793984D01*
X12313991Y-13793984D02*
X12247325Y-13870174D01*
X12247325Y-13870174D02*
X12275896Y-13870174D01*
X12275896Y-13870174D02*
X12294944Y-13879698D01*
X12294944Y-13879698D02*
X12304467Y-13889222D01*
X12304467Y-13889222D02*
X12313991Y-13908269D01*
X12313991Y-13908269D02*
X12313991Y-13955888D01*
X12313991Y-13955888D02*
X12304467Y-13974936D01*
X12304467Y-13974936D02*
X12294944Y-13984460D01*
X12294944Y-13984460D02*
X12275896Y-13993984D01*
X12275896Y-13993984D02*
X12218753Y-13993984D01*
X12218753Y-13993984D02*
X12199706Y-13984460D01*
X12199706Y-13984460D02*
X12190182Y-13974936D01*
X12494944Y-13793984D02*
X12399706Y-13793984D01*
X12399706Y-13793984D02*
X12390182Y-13889222D01*
X12390182Y-13889222D02*
X12399706Y-13879698D01*
X12399706Y-13879698D02*
X12418753Y-13870174D01*
X12418753Y-13870174D02*
X12466372Y-13870174D01*
X12466372Y-13870174D02*
X12485420Y-13879698D01*
X12485420Y-13879698D02*
X12494944Y-13889222D01*
X12494944Y-13889222D02*
X12504467Y-13908269D01*
X12504467Y-13908269D02*
X12504467Y-13955888D01*
X12504467Y-13955888D02*
X12494944Y-13974936D01*
X12494944Y-13974936D02*
X12485420Y-13984460D01*
X12485420Y-13984460D02*
X12466372Y-13993984D01*
X12466372Y-13993984D02*
X12418753Y-13993984D01*
X12418753Y-13993984D02*
X12399706Y-13984460D01*
X12399706Y-13984460D02*
X12390182Y-13974936D01*
X12675896Y-13860650D02*
X12675896Y-13993984D01*
X12628277Y-13784460D02*
X12580658Y-13927317D01*
X12580658Y-13927317D02*
X12704467Y-13927317D01*
X12771134Y-13793984D02*
X12771134Y-13832079D01*
X12847325Y-13793984D02*
X12847325Y-13832079D01*
X13142563Y-14070174D02*
X13133039Y-14060650D01*
X13133039Y-14060650D02*
X13113991Y-14032079D01*
X13113991Y-14032079D02*
X13104468Y-14013031D01*
X13104468Y-14013031D02*
X13094944Y-13984460D01*
X13094944Y-13984460D02*
X13085420Y-13936841D01*
X13085420Y-13936841D02*
X13085420Y-13898746D01*
X13085420Y-13898746D02*
X13094944Y-13851127D01*
X13094944Y-13851127D02*
X13104468Y-13822555D01*
X13104468Y-13822555D02*
X13113991Y-13803508D01*
X13113991Y-13803508D02*
X13133039Y-13774936D01*
X13133039Y-13774936D02*
X13142563Y-13765412D01*
X13209229Y-13813031D02*
X13218753Y-13803508D01*
X13218753Y-13803508D02*
X13237801Y-13793984D01*
X13237801Y-13793984D02*
X13285420Y-13793984D01*
X13285420Y-13793984D02*
X13304468Y-13803508D01*
X13304468Y-13803508D02*
X13313991Y-13813031D01*
X13313991Y-13813031D02*
X13323515Y-13832079D01*
X13323515Y-13832079D02*
X13323515Y-13851127D01*
X13323515Y-13851127D02*
X13313991Y-13879698D01*
X13313991Y-13879698D02*
X13199706Y-13993984D01*
X13199706Y-13993984D02*
X13323515Y-13993984D01*
X13561610Y-13993984D02*
X13561610Y-13793984D01*
X13647325Y-13993984D02*
X13647325Y-13889222D01*
X13647325Y-13889222D02*
X13637801Y-13870174D01*
X13637801Y-13870174D02*
X13618753Y-13860650D01*
X13618753Y-13860650D02*
X13590182Y-13860650D01*
X13590182Y-13860650D02*
X13571134Y-13870174D01*
X13571134Y-13870174D02*
X13561610Y-13879698D01*
X13771134Y-13993984D02*
X13752087Y-13984460D01*
X13752087Y-13984460D02*
X13742563Y-13974936D01*
X13742563Y-13974936D02*
X13733039Y-13955888D01*
X13733039Y-13955888D02*
X13733039Y-13898746D01*
X13733039Y-13898746D02*
X13742563Y-13879698D01*
X13742563Y-13879698D02*
X13752087Y-13870174D01*
X13752087Y-13870174D02*
X13771134Y-13860650D01*
X13771134Y-13860650D02*
X13799706Y-13860650D01*
X13799706Y-13860650D02*
X13818753Y-13870174D01*
X13818753Y-13870174D02*
X13828277Y-13879698D01*
X13828277Y-13879698D02*
X13837801Y-13898746D01*
X13837801Y-13898746D02*
X13837801Y-13955888D01*
X13837801Y-13955888D02*
X13828277Y-13974936D01*
X13828277Y-13974936D02*
X13818753Y-13984460D01*
X13818753Y-13984460D02*
X13799706Y-13993984D01*
X13799706Y-13993984D02*
X13771134Y-13993984D01*
X13952087Y-13993984D02*
X13933039Y-13984460D01*
X13933039Y-13984460D02*
X13923515Y-13965412D01*
X13923515Y-13965412D02*
X13923515Y-13793984D01*
X14104468Y-13984460D02*
X14085420Y-13993984D01*
X14085420Y-13993984D02*
X14047325Y-13993984D01*
X14047325Y-13993984D02*
X14028277Y-13984460D01*
X14028277Y-13984460D02*
X14018753Y-13965412D01*
X14018753Y-13965412D02*
X14018753Y-13889222D01*
X14018753Y-13889222D02*
X14028277Y-13870174D01*
X14028277Y-13870174D02*
X14047325Y-13860650D01*
X14047325Y-13860650D02*
X14085420Y-13860650D01*
X14085420Y-13860650D02*
X14104468Y-13870174D01*
X14104468Y-13870174D02*
X14113991Y-13889222D01*
X14113991Y-13889222D02*
X14113991Y-13908269D01*
X14113991Y-13908269D02*
X14018753Y-13927317D01*
X14190182Y-13984460D02*
X14209230Y-13993984D01*
X14209230Y-13993984D02*
X14247325Y-13993984D01*
X14247325Y-13993984D02*
X14266372Y-13984460D01*
X14266372Y-13984460D02*
X14275896Y-13965412D01*
X14275896Y-13965412D02*
X14275896Y-13955888D01*
X14275896Y-13955888D02*
X14266372Y-13936841D01*
X14266372Y-13936841D02*
X14247325Y-13927317D01*
X14247325Y-13927317D02*
X14218753Y-13927317D01*
X14218753Y-13927317D02*
X14199706Y-13917793D01*
X14199706Y-13917793D02*
X14190182Y-13898746D01*
X14190182Y-13898746D02*
X14190182Y-13889222D01*
X14190182Y-13889222D02*
X14199706Y-13870174D01*
X14199706Y-13870174D02*
X14218753Y-13860650D01*
X14218753Y-13860650D02*
X14247325Y-13860650D01*
X14247325Y-13860650D02*
X14266372Y-13870174D01*
X14342563Y-14070174D02*
X14352087Y-14060650D01*
X14352087Y-14060650D02*
X14371134Y-14032079D01*
X14371134Y-14032079D02*
X14380658Y-14013031D01*
X14380658Y-14013031D02*
X14390182Y-13984460D01*
X14390182Y-13984460D02*
X14399706Y-13936841D01*
X14399706Y-13936841D02*
X14399706Y-13898746D01*
X14399706Y-13898746D02*
X14390182Y-13851127D01*
X14390182Y-13851127D02*
X14380658Y-13822555D01*
X14380658Y-13822555D02*
X14371134Y-13803508D01*
X14371134Y-13803508D02*
X14352087Y-13774936D01*
X14352087Y-13774936D02*
X14342563Y-13765412D01*
X14704468Y-14070174D02*
X14694944Y-14060650D01*
X14694944Y-14060650D02*
X14675896Y-14032079D01*
X14675896Y-14032079D02*
X14666372Y-14013031D01*
X14666372Y-14013031D02*
X14656849Y-13984460D01*
X14656849Y-13984460D02*
X14647325Y-13936841D01*
X14647325Y-13936841D02*
X14647325Y-13898746D01*
X14647325Y-13898746D02*
X14656849Y-13851127D01*
X14656849Y-13851127D02*
X14666372Y-13822555D01*
X14666372Y-13822555D02*
X14675896Y-13803508D01*
X14675896Y-13803508D02*
X14694944Y-13774936D01*
X14694944Y-13774936D02*
X14704468Y-13765412D01*
X14780658Y-13860650D02*
X14780658Y-13993984D01*
X14780658Y-13879698D02*
X14790182Y-13870174D01*
X14790182Y-13870174D02*
X14809230Y-13860650D01*
X14809230Y-13860650D02*
X14837801Y-13860650D01*
X14837801Y-13860650D02*
X14856849Y-13870174D01*
X14856849Y-13870174D02*
X14866372Y-13889222D01*
X14866372Y-13889222D02*
X14866372Y-13993984D01*
X14990182Y-13993984D02*
X14971134Y-13984460D01*
X14971134Y-13984460D02*
X14961611Y-13974936D01*
X14961611Y-13974936D02*
X14952087Y-13955888D01*
X14952087Y-13955888D02*
X14952087Y-13898746D01*
X14952087Y-13898746D02*
X14961611Y-13879698D01*
X14961611Y-13879698D02*
X14971134Y-13870174D01*
X14971134Y-13870174D02*
X14990182Y-13860650D01*
X14990182Y-13860650D02*
X15018753Y-13860650D01*
X15018753Y-13860650D02*
X15037801Y-13870174D01*
X15037801Y-13870174D02*
X15047325Y-13879698D01*
X15047325Y-13879698D02*
X15056849Y-13898746D01*
X15056849Y-13898746D02*
X15056849Y-13955888D01*
X15056849Y-13955888D02*
X15047325Y-13974936D01*
X15047325Y-13974936D02*
X15037801Y-13984460D01*
X15037801Y-13984460D02*
X15018753Y-13993984D01*
X15018753Y-13993984D02*
X14990182Y-13993984D01*
X15113992Y-13860650D02*
X15190182Y-13860650D01*
X15142563Y-13793984D02*
X15142563Y-13965412D01*
X15142563Y-13965412D02*
X15152087Y-13984460D01*
X15152087Y-13984460D02*
X15171134Y-13993984D01*
X15171134Y-13993984D02*
X15190182Y-13993984D01*
X15409230Y-13860650D02*
X15409230Y-14060650D01*
X15409230Y-13870174D02*
X15428277Y-13860650D01*
X15428277Y-13860650D02*
X15466373Y-13860650D01*
X15466373Y-13860650D02*
X15485420Y-13870174D01*
X15485420Y-13870174D02*
X15494944Y-13879698D01*
X15494944Y-13879698D02*
X15504468Y-13898746D01*
X15504468Y-13898746D02*
X15504468Y-13955888D01*
X15504468Y-13955888D02*
X15494944Y-13974936D01*
X15494944Y-13974936D02*
X15485420Y-13984460D01*
X15485420Y-13984460D02*
X15466373Y-13993984D01*
X15466373Y-13993984D02*
X15428277Y-13993984D01*
X15428277Y-13993984D02*
X15409230Y-13984460D01*
X15618753Y-13993984D02*
X15599706Y-13984460D01*
X15599706Y-13984460D02*
X15590182Y-13965412D01*
X15590182Y-13965412D02*
X15590182Y-13793984D01*
X15780658Y-13993984D02*
X15780658Y-13889222D01*
X15780658Y-13889222D02*
X15771134Y-13870174D01*
X15771134Y-13870174D02*
X15752087Y-13860650D01*
X15752087Y-13860650D02*
X15713992Y-13860650D01*
X15713992Y-13860650D02*
X15694944Y-13870174D01*
X15780658Y-13984460D02*
X15761611Y-13993984D01*
X15761611Y-13993984D02*
X15713992Y-13993984D01*
X15713992Y-13993984D02*
X15694944Y-13984460D01*
X15694944Y-13984460D02*
X15685420Y-13965412D01*
X15685420Y-13965412D02*
X15685420Y-13946365D01*
X15685420Y-13946365D02*
X15694944Y-13927317D01*
X15694944Y-13927317D02*
X15713992Y-13917793D01*
X15713992Y-13917793D02*
X15761611Y-13917793D01*
X15761611Y-13917793D02*
X15780658Y-13908269D01*
X15847325Y-13860650D02*
X15923515Y-13860650D01*
X15875896Y-13793984D02*
X15875896Y-13965412D01*
X15875896Y-13965412D02*
X15885420Y-13984460D01*
X15885420Y-13984460D02*
X15904468Y-13993984D01*
X15904468Y-13993984D02*
X15923515Y-13993984D01*
X16066373Y-13984460D02*
X16047325Y-13993984D01*
X16047325Y-13993984D02*
X16009230Y-13993984D01*
X16009230Y-13993984D02*
X15990182Y-13984460D01*
X15990182Y-13984460D02*
X15980658Y-13965412D01*
X15980658Y-13965412D02*
X15980658Y-13889222D01*
X15980658Y-13889222D02*
X15990182Y-13870174D01*
X15990182Y-13870174D02*
X16009230Y-13860650D01*
X16009230Y-13860650D02*
X16047325Y-13860650D01*
X16047325Y-13860650D02*
X16066373Y-13870174D01*
X16066373Y-13870174D02*
X16075896Y-13889222D01*
X16075896Y-13889222D02*
X16075896Y-13908269D01*
X16075896Y-13908269D02*
X15980658Y-13927317D01*
X16247325Y-13993984D02*
X16247325Y-13793984D01*
X16247325Y-13984460D02*
X16228277Y-13993984D01*
X16228277Y-13993984D02*
X16190182Y-13993984D01*
X16190182Y-13993984D02*
X16171134Y-13984460D01*
X16171134Y-13984460D02*
X16161611Y-13974936D01*
X16161611Y-13974936D02*
X16152087Y-13955888D01*
X16152087Y-13955888D02*
X16152087Y-13898746D01*
X16152087Y-13898746D02*
X16161611Y-13879698D01*
X16161611Y-13879698D02*
X16171134Y-13870174D01*
X16171134Y-13870174D02*
X16190182Y-13860650D01*
X16190182Y-13860650D02*
X16228277Y-13860650D01*
X16228277Y-13860650D02*
X16247325Y-13870174D01*
X16323515Y-14070174D02*
X16333039Y-14060650D01*
X16333039Y-14060650D02*
X16352087Y-14032079D01*
X16352087Y-14032079D02*
X16361611Y-14013031D01*
X16361611Y-14013031D02*
X16371134Y-13984460D01*
X16371134Y-13984460D02*
X16380658Y-13936841D01*
X16380658Y-13936841D02*
X16380658Y-13898746D01*
X16380658Y-13898746D02*
X16371134Y-13851127D01*
X16371134Y-13851127D02*
X16361611Y-13822555D01*
X16361611Y-13822555D02*
X16352087Y-13803508D01*
X16352087Y-13803508D02*
X16333039Y-13774936D01*
X16333039Y-13774936D02*
X16323515Y-13765412D01*
M02*
