G04 #@! TF.GenerationSoftware,KiCad,Pcbnew,7.0.10-7.0.10~ubuntu20.04.1*
G04 #@! TF.CreationDate,2024-02-18T22:33:17+01:00*
G04 #@! TF.ProjectId,ESP32Hardware,45535033-3248-4617-9264-776172652e6b,rev?*
G04 #@! TF.SameCoordinates,Original*
G04 #@! TF.FileFunction,Soldermask,Bot*
G04 #@! TF.FilePolarity,Negative*
%FSLAX46Y46*%
G04 Gerber Fmt 4.6, Leading zero omitted, Abs format (unit mm)*
G04 Created by KiCad (PCBNEW 7.0.10-7.0.10~ubuntu20.04.1) date 2024-02-18 22:33:17*
%MOMM*%
%LPD*%
G01*
G04 APERTURE LIST*
%ADD10C,0.100000*%
%ADD11R,1.500000X1.050000*%
%ADD12O,1.500000X1.050000*%
%ADD13R,8.300000X58.420000*%
%ADD14R,8.000000X1.524000*%
%ADD15C,2.200000*%
%ADD16C,1.700000*%
%ADD17R,1.600000X1.600000*%
%ADD18O,1.600000X1.600000*%
%ADD19R,1.500000X1.500000*%
%ADD20O,1.500000X1.500000*%
%ADD21R,1.700000X1.700000*%
%ADD22O,1.700000X1.700000*%
%ADD23C,1.600000*%
%ADD24C,1.400000*%
%ADD25C,0.900000*%
G04 APERTURE END LIST*
D10*
X164598000Y-112578000D02*
G75*
G03*
X162312000Y-112578000I-1143000J0D01*
G01*
X162312000Y-112578000D02*
G75*
G03*
X164598000Y-112578000I1143000J0D01*
G01*
X166844000Y-113828000D02*
G75*
G03*
X165066000Y-113828000I-889000J0D01*
G01*
X165066000Y-113828000D02*
G75*
G03*
X166844000Y-113828000I889000J0D01*
G01*
X166844000Y-118328000D02*
G75*
G03*
X165066000Y-118328000I-889000J0D01*
G01*
X165066000Y-118328000D02*
G75*
G03*
X166844000Y-118328000I889000J0D01*
G01*
X164598000Y-119578000D02*
G75*
G03*
X162312000Y-119578000I-1143000J0D01*
G01*
X162312000Y-119578000D02*
G75*
G03*
X164598000Y-119578000I1143000J0D01*
G01*
D11*
X147574000Y-95504000D03*
D12*
X147574000Y-94234000D03*
X147574000Y-92964000D03*
D13*
X99764000Y-103390000D03*
D14*
X99892274Y-76720000D03*
X99892274Y-79260000D03*
X99892274Y-81800000D03*
X99892274Y-84340000D03*
X99892274Y-86880000D03*
X99892274Y-89420000D03*
X99892274Y-91960000D03*
X99892274Y-94500000D03*
X99892274Y-97040000D03*
X99892274Y-99580000D03*
X99892274Y-102120000D03*
X99892274Y-104660000D03*
X99892274Y-107200000D03*
X99892274Y-109740000D03*
X99892274Y-112280000D03*
X99892274Y-114820000D03*
X99892274Y-117360000D03*
X99892274Y-119900000D03*
X99892274Y-122440000D03*
X99892274Y-124980000D03*
X99892274Y-127520000D03*
X99892274Y-130060000D03*
D15*
X163455000Y-112578000D03*
X163455000Y-119578000D03*
D16*
X165955000Y-113828000D03*
X165955000Y-118328000D03*
D17*
X115072000Y-128021000D03*
D18*
X117612000Y-128021000D03*
X120152000Y-128021000D03*
X122692000Y-128021000D03*
X125232000Y-128021000D03*
X127772000Y-128021000D03*
X130312000Y-128021000D03*
X132852000Y-128021000D03*
X135392000Y-128021000D03*
X137932000Y-128021000D03*
X140472000Y-128021000D03*
X143012000Y-128021000D03*
X145552000Y-128021000D03*
X148092000Y-128021000D03*
X148092000Y-112781000D03*
X145552000Y-112781000D03*
X143012000Y-112781000D03*
X140472000Y-112781000D03*
X137932000Y-112781000D03*
X135392000Y-112781000D03*
X132852000Y-112781000D03*
X130312000Y-112781000D03*
X127772000Y-112781000D03*
X125232000Y-112781000D03*
X122692000Y-112781000D03*
X120152000Y-112781000D03*
X117612000Y-112781000D03*
X115072000Y-112781000D03*
D19*
X141478000Y-90927000D03*
D20*
X141478000Y-98547000D03*
D21*
X155702000Y-116459000D03*
D22*
X158242000Y-116459000D03*
D23*
X129032000Y-86340000D03*
X129032000Y-83840000D03*
D24*
X161798000Y-80518000D03*
X161798000Y-83058000D03*
X159258000Y-80518000D03*
X159258000Y-83058000D03*
X156718000Y-80518000D03*
X156718000Y-83058000D03*
X154178000Y-80518000D03*
X154178000Y-83058000D03*
X151638000Y-80518000D03*
X151638000Y-83058000D03*
X149098000Y-80518000D03*
X149098000Y-83058000D03*
X146558000Y-80518000D03*
X146558000Y-83058000D03*
X144018000Y-80518000D03*
X144018000Y-83058000D03*
X141478000Y-80518000D03*
X141478000Y-83058000D03*
X138938000Y-80518000D03*
X138938000Y-83058000D03*
X161798000Y-105918000D03*
X161798000Y-108458000D03*
X159258000Y-105918000D03*
X159258000Y-108458000D03*
X156718000Y-105918000D03*
X156718000Y-108458000D03*
X154178000Y-105918000D03*
X154178000Y-108458000D03*
X151638000Y-105918000D03*
X151638000Y-108458000D03*
X149098000Y-105918000D03*
X149098000Y-108458000D03*
X146558000Y-105918000D03*
X146558000Y-108458000D03*
X144018000Y-105918000D03*
X144018000Y-108458000D03*
X141478000Y-105918000D03*
X141478000Y-108458000D03*
X138938000Y-105918000D03*
X138938000Y-108458000D03*
D21*
X155702000Y-120396000D03*
D22*
X158242000Y-120396000D03*
D21*
X155702000Y-124460000D03*
D22*
X155702000Y-127000000D03*
X155702000Y-129540000D03*
D21*
X160274000Y-128778000D03*
D22*
X162814000Y-128778000D03*
D21*
X155697000Y-112522000D03*
D22*
X158237000Y-112522000D03*
D21*
X160269000Y-124714000D03*
D22*
X162809000Y-124714000D03*
D25*
X163930545Y-91742968D03*
X163930545Y-99742968D03*
M02*
