G04 #@! TF.GenerationSoftware,KiCad,Pcbnew,7.0.10-7.0.10~ubuntu20.04.1*
G04 #@! TF.CreationDate,2024-02-18T22:33:17+01:00*
G04 #@! TF.ProjectId,ESP32Hardware,45535033-3248-4617-9264-776172652e6b,rev?*
G04 #@! TF.SameCoordinates,Original*
G04 #@! TF.FileFunction,Copper,L2,Bot*
G04 #@! TF.FilePolarity,Positive*
%FSLAX46Y46*%
G04 Gerber Fmt 4.6, Leading zero omitted, Abs format (unit mm)*
G04 Created by KiCad (PCBNEW 7.0.10-7.0.10~ubuntu20.04.1) date 2024-02-18 22:33:17*
%MOMM*%
%LPD*%
G01*
G04 APERTURE LIST*
G04 #@! TA.AperFunction,ComponentPad*
%ADD10R,1.500000X1.050000*%
G04 #@! TD*
G04 #@! TA.AperFunction,ComponentPad*
%ADD11O,1.500000X1.050000*%
G04 #@! TD*
G04 #@! TA.AperFunction,SMDPad,CuDef*
%ADD12R,8.000000X1.524000*%
G04 #@! TD*
G04 #@! TA.AperFunction,ComponentPad*
%ADD13C,2.200000*%
G04 #@! TD*
G04 #@! TA.AperFunction,ComponentPad*
%ADD14C,1.700000*%
G04 #@! TD*
G04 #@! TA.AperFunction,ComponentPad*
%ADD15R,1.600000X1.600000*%
G04 #@! TD*
G04 #@! TA.AperFunction,ComponentPad*
%ADD16O,1.600000X1.600000*%
G04 #@! TD*
G04 #@! TA.AperFunction,ComponentPad*
%ADD17R,1.500000X1.500000*%
G04 #@! TD*
G04 #@! TA.AperFunction,ComponentPad*
%ADD18O,1.500000X1.500000*%
G04 #@! TD*
G04 #@! TA.AperFunction,ComponentPad*
%ADD19R,1.700000X1.700000*%
G04 #@! TD*
G04 #@! TA.AperFunction,ComponentPad*
%ADD20O,1.700000X1.700000*%
G04 #@! TD*
G04 #@! TA.AperFunction,ComponentPad*
%ADD21C,1.600000*%
G04 #@! TD*
G04 #@! TA.AperFunction,ComponentPad*
%ADD22C,1.400000*%
G04 #@! TD*
G04 #@! TA.AperFunction,ViaPad*
%ADD23C,0.800000*%
G04 #@! TD*
G04 #@! TA.AperFunction,Conductor*
%ADD24C,0.250000*%
G04 #@! TD*
G04 APERTURE END LIST*
D10*
X147574000Y-95504000D03*
D11*
X147574000Y-94234000D03*
X147574000Y-92964000D03*
D12*
X99892274Y-76720000D03*
X99892274Y-79260000D03*
X99892274Y-81800000D03*
X99892274Y-84340000D03*
X99892274Y-86880000D03*
X99892274Y-89420000D03*
X99892274Y-91960000D03*
X99892274Y-94500000D03*
X99892274Y-97040000D03*
X99892274Y-99580000D03*
X99892274Y-102120000D03*
X99892274Y-104660000D03*
X99892274Y-107200000D03*
X99892274Y-109740000D03*
X99892274Y-112280000D03*
X99892274Y-114820000D03*
X99892274Y-117360000D03*
X99892274Y-119900000D03*
X99892274Y-122440000D03*
X99892274Y-124980000D03*
X99892274Y-127520000D03*
X99892274Y-130060000D03*
D13*
X163455000Y-112578000D03*
X163455000Y-119578000D03*
D14*
X165955000Y-113828000D03*
X165955000Y-118328000D03*
D15*
X115072000Y-128021000D03*
D16*
X117612000Y-128021000D03*
X120152000Y-128021000D03*
X122692000Y-128021000D03*
X125232000Y-128021000D03*
X127772000Y-128021000D03*
X130312000Y-128021000D03*
X132852000Y-128021000D03*
X135392000Y-128021000D03*
X137932000Y-128021000D03*
X140472000Y-128021000D03*
X143012000Y-128021000D03*
X145552000Y-128021000D03*
X148092000Y-128021000D03*
X148092000Y-112781000D03*
X145552000Y-112781000D03*
X143012000Y-112781000D03*
X140472000Y-112781000D03*
X137932000Y-112781000D03*
X135392000Y-112781000D03*
X132852000Y-112781000D03*
X130312000Y-112781000D03*
X127772000Y-112781000D03*
X125232000Y-112781000D03*
X122692000Y-112781000D03*
X120152000Y-112781000D03*
X117612000Y-112781000D03*
X115072000Y-112781000D03*
D17*
X141478000Y-90927000D03*
D18*
X141478000Y-98547000D03*
D19*
X155702000Y-116459000D03*
D20*
X158242000Y-116459000D03*
D21*
X129032000Y-86340000D03*
X129032000Y-83840000D03*
D22*
X161798000Y-80518000D03*
X161798000Y-83058000D03*
X159258000Y-80518000D03*
X159258000Y-83058000D03*
X156718000Y-80518000D03*
X156718000Y-83058000D03*
X154178000Y-80518000D03*
X154178000Y-83058000D03*
X151638000Y-80518000D03*
X151638000Y-83058000D03*
X149098000Y-80518000D03*
X149098000Y-83058000D03*
X146558000Y-80518000D03*
X146558000Y-83058000D03*
X144018000Y-80518000D03*
X144018000Y-83058000D03*
X141478000Y-80518000D03*
X141478000Y-83058000D03*
X138938000Y-80518000D03*
X138938000Y-83058000D03*
X161798000Y-105918000D03*
X161798000Y-108458000D03*
X159258000Y-105918000D03*
X159258000Y-108458000D03*
X156718000Y-105918000D03*
X156718000Y-108458000D03*
X154178000Y-105918000D03*
X154178000Y-108458000D03*
X151638000Y-105918000D03*
X151638000Y-108458000D03*
X149098000Y-105918000D03*
X149098000Y-108458000D03*
X146558000Y-105918000D03*
X146558000Y-108458000D03*
X144018000Y-105918000D03*
X144018000Y-108458000D03*
X141478000Y-105918000D03*
X141478000Y-108458000D03*
X138938000Y-105918000D03*
X138938000Y-108458000D03*
D19*
X155702000Y-120396000D03*
D20*
X158242000Y-120396000D03*
D19*
X155702000Y-124460000D03*
D20*
X155702000Y-127000000D03*
X155702000Y-129540000D03*
D19*
X160274000Y-128778000D03*
D20*
X162814000Y-128778000D03*
D19*
X155697000Y-112522000D03*
D20*
X158237000Y-112522000D03*
D19*
X160269000Y-124714000D03*
D20*
X162809000Y-124714000D03*
D23*
X136526300Y-93874700D03*
X104576100Y-83949800D03*
X104581300Y-81705200D03*
X134649100Y-121771600D03*
X132316100Y-96415200D03*
X123339100Y-89188000D03*
X136668800Y-111473700D03*
X110239700Y-108488700D03*
X109824900Y-104034600D03*
X104462400Y-103525400D03*
X113605400Y-127079800D03*
X130055500Y-98025200D03*
X119356100Y-85459200D03*
X120203700Y-96382900D03*
X128651200Y-99871100D03*
X126557000Y-103594500D03*
X123526300Y-97043500D03*
X125073600Y-103578100D03*
X123809800Y-102941900D03*
X131904000Y-98649100D03*
X131407200Y-99880100D03*
X135158300Y-110529800D03*
X121389900Y-97014300D03*
X118652900Y-95404700D03*
X121771500Y-105056900D03*
X112250000Y-118340400D03*
X115528800Y-109714500D03*
X111723000Y-107597000D03*
X124881700Y-106351100D03*
X118296700Y-96928500D03*
X112545500Y-110461600D03*
X118056400Y-124153500D03*
X123306900Y-106332600D03*
X116985700Y-88241200D03*
X124096800Y-120182000D03*
X148929300Y-111006700D03*
X114109000Y-87430600D03*
X113709200Y-99052100D03*
X112056400Y-80665700D03*
X130884700Y-79731200D03*
X124034700Y-76944500D03*
X104543100Y-130335500D03*
X104558900Y-76720000D03*
X126509900Y-80518000D03*
D24*
X136526300Y-95742800D02*
X136526300Y-93874700D01*
X145288000Y-104504500D02*
X136526300Y-95742800D01*
X145288000Y-107188000D02*
X145288000Y-104504500D01*
X146558000Y-108458000D02*
X145288000Y-107188000D01*
X104267600Y-84258300D02*
X104267600Y-84340000D01*
X104576100Y-83949800D02*
X104267600Y-84258300D01*
X99892300Y-84340000D02*
X104267600Y-84340000D01*
X99892300Y-81800000D02*
X104267600Y-81800000D01*
X104362400Y-81705200D02*
X104581300Y-81705200D01*
X104267600Y-81800000D02*
X104362400Y-81705200D01*
X155702000Y-129540000D02*
X155702000Y-128314700D01*
X99892300Y-79260000D02*
X104267600Y-79260000D01*
X156161500Y-128314700D02*
X155702000Y-128314700D01*
X156934200Y-127542000D02*
X156161500Y-128314700D01*
X156934200Y-126476600D02*
X156934200Y-127542000D01*
X156194000Y-125736400D02*
X156934200Y-126476600D01*
X146665400Y-125736400D02*
X156194000Y-125736400D01*
X134122000Y-113193000D02*
X146665400Y-125736400D01*
X134122000Y-112315200D02*
X134122000Y-113193000D01*
X126766100Y-104959300D02*
X134122000Y-112315200D01*
X124023200Y-104959300D02*
X126766100Y-104959300D01*
X119428400Y-100364500D02*
X124023200Y-104959300D01*
X119428400Y-87198800D02*
X119428400Y-100364500D01*
X112831700Y-80602100D02*
X119428400Y-87198800D01*
X112831700Y-80344500D02*
X112831700Y-80602100D01*
X111747200Y-79260000D02*
X112831700Y-80344500D01*
X104267600Y-79260000D02*
X111747200Y-79260000D01*
X155702000Y-127000000D02*
X154476700Y-127000000D01*
X130312000Y-112781000D02*
X130312000Y-113956300D01*
X130663700Y-113956300D02*
X130312000Y-113956300D01*
X144282000Y-127574600D02*
X130663700Y-113956300D01*
X144282000Y-128418700D02*
X144282000Y-127574600D01*
X145072500Y-129209200D02*
X144282000Y-128418700D01*
X152267500Y-129209200D02*
X145072500Y-129209200D01*
X154476700Y-127000000D02*
X152267500Y-129209200D01*
X117612000Y-112781000D02*
X118787300Y-112781000D01*
X127442200Y-121771600D02*
X134649100Y-121771600D01*
X118787300Y-113116700D02*
X127442200Y-121771600D01*
X118787300Y-112781000D02*
X118787300Y-113116700D01*
X121434400Y-114063400D02*
X120152000Y-112781000D01*
X128037700Y-114063400D02*
X121434400Y-114063400D01*
X139202000Y-125227700D02*
X128037700Y-114063400D01*
X139202000Y-128458100D02*
X139202000Y-125227700D01*
X141564400Y-130820500D02*
X139202000Y-128458100D01*
X156166000Y-130820500D02*
X141564400Y-130820500D01*
X157435900Y-129550600D02*
X156166000Y-130820500D01*
X157435900Y-123355200D02*
X157435900Y-129550600D01*
X155702000Y-121621300D02*
X157435900Y-123355200D01*
X155702000Y-120396000D02*
X155702000Y-121621300D01*
X147574000Y-95504000D02*
X147574000Y-95729000D01*
X150368000Y-98523000D02*
X147574000Y-95729000D01*
X150368000Y-113378000D02*
X150368000Y-98523000D01*
X154822300Y-117832300D02*
X150368000Y-113378000D01*
X155406900Y-117832300D02*
X154822300Y-117832300D01*
X156927400Y-119352800D02*
X155406900Y-117832300D01*
X156927400Y-120836300D02*
X156927400Y-119352800D01*
X159579800Y-123488700D02*
X156927400Y-120836300D01*
X160269000Y-123488700D02*
X159579800Y-123488700D01*
X160269000Y-124714000D02*
X160269000Y-123488700D01*
X135639100Y-93092200D02*
X132316100Y-96415200D01*
X138296500Y-93092200D02*
X135639100Y-93092200D01*
X140933300Y-95729000D02*
X138296500Y-93092200D01*
X147574000Y-95729000D02*
X140933300Y-95729000D01*
X160274000Y-128778000D02*
X161499300Y-128778000D01*
X161499300Y-121519400D02*
X161499300Y-128778000D01*
X160676100Y-120696200D02*
X161499300Y-121519400D01*
X160676100Y-89018000D02*
X160676100Y-120696200D01*
X157988000Y-86329900D02*
X160676100Y-89018000D01*
X157988000Y-80228200D02*
X157988000Y-86329900D01*
X156136900Y-78377100D02*
X157988000Y-80228200D01*
X136345100Y-78377100D02*
X156136900Y-78377100D01*
X129632200Y-85090000D02*
X136345100Y-78377100D01*
X127437100Y-85090000D02*
X129632200Y-85090000D01*
X123339100Y-89188000D02*
X127437100Y-85090000D01*
X136668800Y-113185200D02*
X136668800Y-111473700D01*
X147943600Y-124460000D02*
X136668800Y-113185200D01*
X155702000Y-124460000D02*
X147943600Y-124460000D01*
X99892300Y-97040000D02*
X104267600Y-97040000D01*
X109824900Y-102597300D02*
X109824900Y-104034600D01*
X104267600Y-97040000D02*
X109824900Y-102597300D01*
X110239700Y-118140700D02*
X110239700Y-108488700D01*
X117612000Y-125513000D02*
X110239700Y-118140700D01*
X117612000Y-128021000D02*
X117612000Y-125513000D01*
X127772000Y-112781000D02*
X126596700Y-112781000D01*
X99892300Y-99580000D02*
X104267600Y-99580000D01*
X109947200Y-105259600D02*
X104267600Y-99580000D01*
X119442600Y-105259600D02*
X109947200Y-105259600D01*
X126596700Y-112413700D02*
X119442600Y-105259600D01*
X126596700Y-112781000D02*
X126596700Y-112413700D01*
X99892300Y-102120000D02*
X104267600Y-102120000D01*
X104267600Y-103330600D02*
X104462400Y-103525400D01*
X104267600Y-102120000D02*
X104267600Y-103330600D01*
X106062100Y-119154500D02*
X104267600Y-117360000D01*
X106062100Y-121207800D02*
X106062100Y-119154500D01*
X114574300Y-129720000D02*
X106062100Y-121207800D01*
X125265000Y-129720000D02*
X114574300Y-129720000D01*
X126596700Y-128388300D02*
X125265000Y-129720000D01*
X126596700Y-128021000D02*
X126596700Y-128388300D01*
X127772000Y-128021000D02*
X126596700Y-128021000D01*
X99892300Y-117360000D02*
X104267600Y-117360000D01*
X130312000Y-128021000D02*
X129136700Y-128021000D01*
X129136700Y-128318600D02*
X129136700Y-128021000D01*
X127180100Y-130275200D02*
X129136700Y-128318600D01*
X114418800Y-130275200D02*
X127180100Y-130275200D01*
X104267600Y-120124000D02*
X114418800Y-130275200D01*
X104267600Y-119900000D02*
X104267600Y-120124000D01*
X99892300Y-119900000D02*
X104267600Y-119900000D01*
X132852000Y-128021000D02*
X131676700Y-128021000D01*
X131676700Y-128318600D02*
X131676700Y-128021000D01*
X129219800Y-130775500D02*
X131676700Y-128318600D01*
X113987400Y-130775500D02*
X129219800Y-130775500D01*
X105651900Y-122440000D02*
X113987400Y-130775500D01*
X99892300Y-122440000D02*
X105651900Y-122440000D01*
X135392000Y-128021000D02*
X134216700Y-128021000D01*
X134216700Y-128318600D02*
X134216700Y-128021000D01*
X131259500Y-131275800D02*
X134216700Y-128318600D01*
X113780100Y-131275800D02*
X131259500Y-131275800D01*
X107484300Y-124980000D02*
X113780100Y-131275800D01*
X99892300Y-124980000D02*
X107484300Y-124980000D01*
X137932000Y-128021000D02*
X136756700Y-128021000D01*
X136756700Y-128386300D02*
X136756700Y-128021000D01*
X133366900Y-131776100D02*
X136756700Y-128386300D01*
X113572800Y-131776100D02*
X133366900Y-131776100D01*
X109316700Y-127520000D02*
X113572800Y-131776100D01*
X99892300Y-127520000D02*
X109316700Y-127520000D01*
X99892300Y-109740000D02*
X104267600Y-109740000D01*
X120152000Y-128021000D02*
X120152000Y-126845700D01*
X119652200Y-126845700D02*
X120152000Y-126845700D01*
X111015000Y-118208500D02*
X119652200Y-126845700D01*
X111015000Y-108167500D02*
X111015000Y-118208500D01*
X110560900Y-107713400D02*
X111015000Y-108167500D01*
X106294200Y-107713400D02*
X110560900Y-107713400D01*
X104267600Y-109740000D02*
X106294200Y-107713400D01*
X104267600Y-113830500D02*
X104267600Y-112280000D01*
X116416700Y-125979600D02*
X104267600Y-113830500D01*
X116416700Y-128547300D02*
X116416700Y-125979600D01*
X117089000Y-129219600D02*
X116416700Y-128547300D01*
X120685400Y-129219600D02*
X117089000Y-129219600D01*
X121516700Y-128388300D02*
X120685400Y-129219600D01*
X121516700Y-128021000D02*
X121516700Y-128388300D01*
X122692000Y-128021000D02*
X121516700Y-128021000D01*
X99892300Y-112280000D02*
X104267600Y-112280000D01*
X99892300Y-114820000D02*
X104267600Y-114820000D01*
X113605400Y-124157800D02*
X113605400Y-127079800D01*
X104267600Y-114820000D02*
X113605400Y-124157800D01*
X104650600Y-106817000D02*
X104267600Y-107200000D01*
X115920000Y-106817000D02*
X104650600Y-106817000D01*
X121516700Y-112413700D02*
X115920000Y-106817000D01*
X121516700Y-112781000D02*
X121516700Y-112413700D01*
X122692000Y-112781000D02*
X121516700Y-112781000D01*
X99892300Y-107200000D02*
X104267600Y-107200000D01*
X125232000Y-112781000D02*
X124056700Y-112781000D01*
X99892300Y-104660000D02*
X104267600Y-104660000D01*
X105867700Y-106260100D02*
X104267600Y-104660000D01*
X117903100Y-106260100D02*
X105867700Y-106260100D01*
X124056700Y-112413700D02*
X117903100Y-106260100D01*
X124056700Y-112781000D02*
X124056700Y-112413700D01*
X130055500Y-97571100D02*
X130055500Y-98025200D01*
X135065000Y-92561600D02*
X130055500Y-97571100D01*
X146478000Y-92561600D02*
X135065000Y-92561600D01*
X147018100Y-92021500D02*
X146478000Y-92561600D01*
X148148800Y-92021500D02*
X147018100Y-92021500D01*
X155266000Y-99138700D02*
X148148800Y-92021500D01*
X155266000Y-107370000D02*
X155266000Y-99138700D01*
X154178000Y-108458000D02*
X155266000Y-107370000D01*
X152735300Y-84155300D02*
X151638000Y-83058000D01*
X154601600Y-84155300D02*
X152735300Y-84155300D01*
X155307500Y-83449400D02*
X154601600Y-84155300D01*
X155307500Y-80096100D02*
X155307500Y-83449400D01*
X154127300Y-78915900D02*
X155307500Y-80096100D01*
X138885600Y-78915900D02*
X154127300Y-78915900D01*
X127834700Y-89966800D02*
X138885600Y-78915900D01*
X122947000Y-89966800D02*
X127834700Y-89966800D01*
X119356100Y-86375900D02*
X122947000Y-89966800D01*
X119356100Y-85459200D02*
X119356100Y-86375900D01*
X120347600Y-96239000D02*
X120203700Y-96382900D01*
X122519800Y-96239000D02*
X120347600Y-96239000D01*
X136970800Y-81788000D02*
X122519800Y-96239000D01*
X140208000Y-81788000D02*
X136970800Y-81788000D01*
X141478000Y-80518000D02*
X140208000Y-81788000D01*
X128651200Y-98267700D02*
X128651200Y-99871100D01*
X134857700Y-92061200D02*
X128651200Y-98267700D01*
X143628800Y-92061200D02*
X134857700Y-92061200D01*
X144168900Y-91521100D02*
X143628800Y-92061200D01*
X148375200Y-91521100D02*
X144168900Y-91521100D01*
X159258000Y-102403900D02*
X148375200Y-91521100D01*
X159258000Y-105918000D02*
X159258000Y-102403900D01*
X130872500Y-99279000D02*
X126557000Y-103594500D01*
X130872500Y-98565800D02*
X130872500Y-99279000D01*
X131580200Y-97858100D02*
X130872500Y-98565800D01*
X135958100Y-97858100D02*
X131580200Y-97858100D01*
X144018000Y-105918000D02*
X135958100Y-97858100D01*
X134066500Y-86503300D02*
X123526300Y-97043500D01*
X134066500Y-86503200D02*
X134066500Y-86503300D01*
X139602700Y-86503200D02*
X134066500Y-86503200D01*
X142748000Y-83357900D02*
X139602700Y-86503200D01*
X142748000Y-82798700D02*
X142748000Y-83357900D01*
X143564100Y-81982600D02*
X142748000Y-82798700D01*
X150173400Y-81982600D02*
X143564100Y-81982600D01*
X151638000Y-80518000D02*
X150173400Y-81982600D01*
X148849000Y-90927000D02*
X156718000Y-83058000D01*
X142603300Y-90927000D02*
X148849000Y-90927000D01*
X141478000Y-90927000D02*
X142603300Y-90927000D01*
X125073600Y-101137800D02*
X125073600Y-103578100D01*
X138126500Y-88084900D02*
X125073600Y-101137800D01*
X144071200Y-88084900D02*
X138126500Y-88084900D01*
X144071200Y-88084800D02*
X144071200Y-88084900D01*
X149098000Y-83058000D02*
X144071200Y-88084800D01*
X123809800Y-101649900D02*
X123809800Y-102941900D01*
X138456100Y-87003600D02*
X123809800Y-101649900D01*
X140072400Y-87003600D02*
X138456100Y-87003600D01*
X144018000Y-83058000D02*
X140072400Y-87003600D01*
X137932000Y-112781000D02*
X139107300Y-112781000D01*
X139107300Y-113146300D02*
X139107300Y-112781000D01*
X139917400Y-113956400D02*
X139107300Y-113146300D01*
X141001700Y-113956400D02*
X139917400Y-113956400D01*
X141836600Y-113121500D02*
X141001700Y-113956400D01*
X141836600Y-112106200D02*
X141836600Y-113121500D01*
X142577100Y-111365700D02*
X141836600Y-112106200D01*
X142577100Y-105490700D02*
X142577100Y-111365700D01*
X135735500Y-98649100D02*
X142577100Y-105490700D01*
X131904000Y-98649100D02*
X135735500Y-98649100D01*
X140472000Y-112781000D02*
X140472000Y-111605700D01*
X131407200Y-99917800D02*
X131407200Y-99880100D01*
X138677400Y-107188000D02*
X131407200Y-99917800D01*
X139197400Y-107188000D02*
X138677400Y-107188000D01*
X140013400Y-108004000D02*
X139197400Y-107188000D01*
X140013400Y-111147100D02*
X140013400Y-108004000D01*
X140472000Y-111605700D02*
X140013400Y-111147100D01*
X129005700Y-104377200D02*
X135158300Y-110529800D01*
X124148700Y-104377200D02*
X129005700Y-104377200D01*
X121389900Y-101618400D02*
X124148700Y-104377200D01*
X121389900Y-97014300D02*
X121389900Y-101618400D01*
X117521400Y-96536200D02*
X118652900Y-95404700D01*
X117521400Y-100806800D02*
X117521400Y-96536200D01*
X121771500Y-105056900D02*
X117521400Y-100806800D01*
X111723000Y-109184900D02*
X111723000Y-107597000D01*
X112224400Y-109686300D02*
X111723000Y-109184900D01*
X115500600Y-109686300D02*
X112224400Y-109686300D01*
X115528800Y-109714500D02*
X115500600Y-109686300D01*
X111770200Y-117860600D02*
X112250000Y-118340400D01*
X111770200Y-110140500D02*
X111770200Y-117860600D01*
X112224400Y-109686300D02*
X111770200Y-110140500D01*
X145552000Y-128021000D02*
X145552000Y-126845700D01*
X125544800Y-106351100D02*
X124881700Y-106351100D01*
X131582000Y-112388300D02*
X125544800Y-106351100D01*
X131582000Y-113243000D02*
X131582000Y-112388300D01*
X145184700Y-126845700D02*
X131582000Y-113243000D01*
X145552000Y-126845700D02*
X145184700Y-126845700D01*
X124707400Y-106351100D02*
X124881700Y-106351100D01*
X118296700Y-99940400D02*
X124707400Y-106351100D01*
X118296700Y-96928500D02*
X118296700Y-99940400D01*
X113041300Y-110957400D02*
X112545500Y-110461600D01*
X113041300Y-119138400D02*
X113041300Y-110957400D01*
X118056400Y-124153500D02*
X113041300Y-119138400D01*
X121950600Y-106332600D02*
X123306900Y-106332600D01*
X116985700Y-101367700D02*
X121950600Y-106332600D01*
X116985700Y-88241200D02*
X116985700Y-101367700D01*
X140472000Y-125083100D02*
X140472000Y-128021000D01*
X128950500Y-113561600D02*
X140472000Y-125083100D01*
X128950500Y-111976200D02*
X128950500Y-113561600D01*
X123306900Y-106332600D02*
X128950500Y-111976200D01*
X165955000Y-89755000D02*
X165955000Y-113828000D01*
X159258000Y-83058000D02*
X165955000Y-89755000D01*
X123281000Y-120182000D02*
X124096800Y-120182000D01*
X116247300Y-113148300D02*
X123281000Y-120182000D01*
X116247300Y-112781000D02*
X116247300Y-113148300D01*
X115072000Y-112781000D02*
X116247300Y-112781000D01*
X147828000Y-109905400D02*
X148929300Y-111006700D01*
X147828000Y-105600300D02*
X147828000Y-109905400D01*
X141900000Y-99672300D02*
X147828000Y-105600300D01*
X141478000Y-99672300D02*
X141900000Y-99672300D01*
X141478000Y-98547000D02*
X141478000Y-99672300D01*
X114109000Y-87430600D02*
X113966300Y-87430600D01*
X113709200Y-87687700D02*
X113966300Y-87430600D01*
X113709200Y-99052100D02*
X113709200Y-87687700D01*
X113966300Y-82575600D02*
X112056400Y-80665700D01*
X113966300Y-87430600D02*
X113966300Y-82575600D01*
X128098000Y-76944500D02*
X130884700Y-79731200D01*
X124034700Y-76944500D02*
X128098000Y-76944500D01*
X158242000Y-120396000D02*
X158242000Y-116459000D01*
X104267600Y-130060000D02*
X104543100Y-130335500D01*
X99892300Y-130060000D02*
X104267600Y-130060000D01*
X135392000Y-112781000D02*
X135392000Y-111605700D01*
X99892300Y-76720000D02*
X104267600Y-76720000D01*
X138539700Y-108458000D02*
X135392000Y-111605700D01*
X138938000Y-108458000D02*
X138539700Y-108458000D01*
X157011700Y-111565800D02*
X157011700Y-112522000D01*
X154979300Y-109533400D02*
X157011700Y-111565800D01*
X153731400Y-109533400D02*
X154979300Y-109533400D01*
X152908000Y-108710000D02*
X153731400Y-109533400D01*
X152908000Y-98069600D02*
X152908000Y-108710000D01*
X147802400Y-92964000D02*
X152908000Y-98069600D01*
X147574000Y-92964000D02*
X147802400Y-92964000D01*
X158237000Y-112522000D02*
X157011700Y-112522000D01*
X152908000Y-81788000D02*
X154178000Y-83058000D01*
X152908000Y-80248800D02*
X152908000Y-81788000D01*
X152079800Y-79420600D02*
X152908000Y-80248800D01*
X140035400Y-79420600D02*
X152079800Y-79420600D01*
X138938000Y-80518000D02*
X140035400Y-79420600D01*
X104267600Y-76720000D02*
X104558900Y-76720000D01*
X126110000Y-80917900D02*
X126509900Y-80518000D01*
X129032000Y-83840000D02*
X126110000Y-80917900D01*
X121912000Y-76720000D02*
X104558900Y-76720000D01*
X126110000Y-80917900D02*
X121912000Y-76720000D01*
M02*
