G04 #@! TF.GenerationSoftware,KiCad,Pcbnew,7.0.10-7.0.10~ubuntu20.04.1*
G04 #@! TF.CreationDate,2024-02-18T22:33:17+01:00*
G04 #@! TF.ProjectId,ESP32Hardware,45535033-3248-4617-9264-776172652e6b,rev?*
G04 #@! TF.SameCoordinates,Original*
G04 #@! TF.FileFunction,Copper,L1,Top*
G04 #@! TF.FilePolarity,Positive*
%FSLAX46Y46*%
G04 Gerber Fmt 4.6, Leading zero omitted, Abs format (unit mm)*
G04 Created by KiCad (PCBNEW 7.0.10-7.0.10~ubuntu20.04.1) date 2024-02-18 22:33:17*
%MOMM*%
%LPD*%
G01*
G04 APERTURE LIST*
G04 Aperture macros list*
%AMRoundRect*
0 Rectangle with rounded corners*
0 $1 Rounding radius*
0 $2 $3 $4 $5 $6 $7 $8 $9 X,Y pos of 4 corners*
0 Add a 4 corners polygon primitive as box body*
4,1,4,$2,$3,$4,$5,$6,$7,$8,$9,$2,$3,0*
0 Add four circle primitives for the rounded corners*
1,1,$1+$1,$2,$3*
1,1,$1+$1,$4,$5*
1,1,$1+$1,$6,$7*
1,1,$1+$1,$8,$9*
0 Add four rect primitives between the rounded corners*
20,1,$1+$1,$2,$3,$4,$5,0*
20,1,$1+$1,$4,$5,$6,$7,0*
20,1,$1+$1,$6,$7,$8,$9,0*
20,1,$1+$1,$8,$9,$2,$3,0*%
G04 Aperture macros list end*
G04 #@! TA.AperFunction,SMDPad,CuDef*
%ADD10RoundRect,0.250000X-0.450000X0.262500X-0.450000X-0.262500X0.450000X-0.262500X0.450000X0.262500X0*%
G04 #@! TD*
G04 #@! TA.AperFunction,ComponentPad*
%ADD11R,1.500000X1.050000*%
G04 #@! TD*
G04 #@! TA.AperFunction,ComponentPad*
%ADD12O,1.500000X1.050000*%
G04 #@! TD*
G04 #@! TA.AperFunction,SMDPad,CuDef*
%ADD13RoundRect,0.250000X-0.475000X0.250000X-0.475000X-0.250000X0.475000X-0.250000X0.475000X0.250000X0*%
G04 #@! TD*
G04 #@! TA.AperFunction,SMDPad,CuDef*
%ADD14R,8.000000X1.524000*%
G04 #@! TD*
G04 #@! TA.AperFunction,ComponentPad*
%ADD15C,2.200000*%
G04 #@! TD*
G04 #@! TA.AperFunction,ComponentPad*
%ADD16C,1.700000*%
G04 #@! TD*
G04 #@! TA.AperFunction,ComponentPad*
%ADD17R,1.600000X1.600000*%
G04 #@! TD*
G04 #@! TA.AperFunction,ComponentPad*
%ADD18O,1.600000X1.600000*%
G04 #@! TD*
G04 #@! TA.AperFunction,SMDPad,CuDef*
%ADD19RoundRect,0.250000X0.450000X-0.262500X0.450000X0.262500X-0.450000X0.262500X-0.450000X-0.262500X0*%
G04 #@! TD*
G04 #@! TA.AperFunction,SMDPad,CuDef*
%ADD20RoundRect,0.250000X0.262500X0.450000X-0.262500X0.450000X-0.262500X-0.450000X0.262500X-0.450000X0*%
G04 #@! TD*
G04 #@! TA.AperFunction,ComponentPad*
%ADD21R,1.500000X1.500000*%
G04 #@! TD*
G04 #@! TA.AperFunction,ComponentPad*
%ADD22O,1.500000X1.500000*%
G04 #@! TD*
G04 #@! TA.AperFunction,ComponentPad*
%ADD23R,1.700000X1.700000*%
G04 #@! TD*
G04 #@! TA.AperFunction,ComponentPad*
%ADD24O,1.700000X1.700000*%
G04 #@! TD*
G04 #@! TA.AperFunction,SMDPad,CuDef*
%ADD25RoundRect,0.150000X0.150000X-0.875000X0.150000X0.875000X-0.150000X0.875000X-0.150000X-0.875000X0*%
G04 #@! TD*
G04 #@! TA.AperFunction,SMDPad,CuDef*
%ADD26RoundRect,0.150000X0.150000X-0.825000X0.150000X0.825000X-0.150000X0.825000X-0.150000X-0.825000X0*%
G04 #@! TD*
G04 #@! TA.AperFunction,SMDPad,CuDef*
%ADD27RoundRect,0.250000X-0.262500X-0.450000X0.262500X-0.450000X0.262500X0.450000X-0.262500X0.450000X0*%
G04 #@! TD*
G04 #@! TA.AperFunction,ComponentPad*
%ADD28C,1.600000*%
G04 #@! TD*
G04 #@! TA.AperFunction,SMDPad,CuDef*
%ADD29RoundRect,0.250000X-0.250000X-0.475000X0.250000X-0.475000X0.250000X0.475000X-0.250000X0.475000X0*%
G04 #@! TD*
G04 #@! TA.AperFunction,ComponentPad*
%ADD30C,1.400000*%
G04 #@! TD*
G04 #@! TA.AperFunction,SMDPad,CuDef*
%ADD31R,1.600000X0.700000*%
G04 #@! TD*
G04 #@! TA.AperFunction,SMDPad,CuDef*
%ADD32R,2.200000X1.200000*%
G04 #@! TD*
G04 #@! TA.AperFunction,SMDPad,CuDef*
%ADD33R,1.400000X1.600000*%
G04 #@! TD*
G04 #@! TA.AperFunction,SMDPad,CuDef*
%ADD34R,1.400000X1.200000*%
G04 #@! TD*
G04 #@! TA.AperFunction,SMDPad,CuDef*
%ADD35R,0.600000X1.500000*%
G04 #@! TD*
G04 #@! TA.AperFunction,ViaPad*
%ADD36C,0.800000*%
G04 #@! TD*
G04 #@! TA.AperFunction,Conductor*
%ADD37C,0.250000*%
G04 #@! TD*
G04 APERTURE END LIST*
D10*
X143764000Y-95297000D03*
X143764000Y-93472000D03*
X150876000Y-96162500D03*
X150876000Y-94337500D03*
D11*
X147574000Y-95504000D03*
D12*
X147574000Y-94234000D03*
X147574000Y-92964000D03*
D13*
X128270000Y-101920000D03*
X128270000Y-103820000D03*
X126238000Y-89474000D03*
X126238000Y-91374000D03*
D14*
X99892274Y-76720000D03*
X99892274Y-79260000D03*
X99892274Y-81800000D03*
X99892274Y-84340000D03*
X99892274Y-86880000D03*
X99892274Y-89420000D03*
X99892274Y-91960000D03*
X99892274Y-94500000D03*
X99892274Y-97040000D03*
X99892274Y-99580000D03*
X99892274Y-102120000D03*
X99892274Y-104660000D03*
X99892274Y-107200000D03*
X99892274Y-109740000D03*
X99892274Y-112280000D03*
X99892274Y-114820000D03*
X99892274Y-117360000D03*
X99892274Y-119900000D03*
X99892274Y-122440000D03*
X99892274Y-124980000D03*
X99892274Y-127520000D03*
X99892274Y-130060000D03*
D15*
X163455000Y-112578000D03*
X163455000Y-119578000D03*
D16*
X165955000Y-113828000D03*
X165955000Y-118328000D03*
D17*
X115072000Y-128021000D03*
D18*
X117612000Y-128021000D03*
X120152000Y-128021000D03*
X122692000Y-128021000D03*
X125232000Y-128021000D03*
X127772000Y-128021000D03*
X130312000Y-128021000D03*
X132852000Y-128021000D03*
X135392000Y-128021000D03*
X137932000Y-128021000D03*
X140472000Y-128021000D03*
X143012000Y-128021000D03*
X145552000Y-128021000D03*
X148092000Y-128021000D03*
X148092000Y-112781000D03*
X145552000Y-112781000D03*
X143012000Y-112781000D03*
X140472000Y-112781000D03*
X137932000Y-112781000D03*
X135392000Y-112781000D03*
X132852000Y-112781000D03*
X130312000Y-112781000D03*
X127772000Y-112781000D03*
X125232000Y-112781000D03*
X122692000Y-112781000D03*
X120152000Y-112781000D03*
X117612000Y-112781000D03*
X115072000Y-112781000D03*
D19*
X151638000Y-128166500D03*
X151638000Y-126341500D03*
D20*
X133049000Y-89806300D03*
X134874000Y-89806300D03*
D13*
X124714000Y-78806000D03*
X124714000Y-80706000D03*
D21*
X141478000Y-90927000D03*
D22*
X141478000Y-98547000D03*
D23*
X155702000Y-116459000D03*
D24*
X158242000Y-116459000D03*
D10*
X151638000Y-122635000D03*
X151638000Y-124460000D03*
X151638000Y-119079000D03*
X151638000Y-120904000D03*
D25*
X114681000Y-108028000D03*
X115951000Y-108028000D03*
X117221000Y-108028000D03*
X118491000Y-108028000D03*
X119761000Y-108028000D03*
X121031000Y-108028000D03*
X122301000Y-108028000D03*
X123571000Y-108028000D03*
X124841000Y-108028000D03*
X126111000Y-108028000D03*
X126111000Y-98728000D03*
X124841000Y-98728000D03*
X123571000Y-98728000D03*
X122301000Y-98728000D03*
X121031000Y-98728000D03*
X119761000Y-98728000D03*
X118491000Y-98728000D03*
X117221000Y-98728000D03*
X115951000Y-98728000D03*
X114681000Y-98728000D03*
D13*
X151384000Y-111318000D03*
X151384000Y-113218000D03*
D26*
X114935000Y-82550000D03*
X116205000Y-82550000D03*
X117475000Y-82550000D03*
X118745000Y-82550000D03*
X120015000Y-82550000D03*
X121285000Y-82550000D03*
X122555000Y-82550000D03*
X122555000Y-77600000D03*
X121285000Y-77600000D03*
X120015000Y-77600000D03*
X118745000Y-77600000D03*
X117475000Y-77600000D03*
X116205000Y-77600000D03*
X114935000Y-77600000D03*
D27*
X134874000Y-100462800D03*
X133049000Y-100462800D03*
D28*
X129032000Y-86340000D03*
X129032000Y-83840000D03*
D27*
X134770500Y-87122000D03*
X132945500Y-87122000D03*
D20*
X133049000Y-92467500D03*
X134874000Y-92467500D03*
X133049000Y-97790000D03*
X134874000Y-97790000D03*
D29*
X155128000Y-85344000D03*
X153228000Y-85344000D03*
D19*
X151638000Y-117094000D03*
X151638000Y-115269000D03*
D30*
X161798000Y-80518000D03*
X161798000Y-83058000D03*
X159258000Y-80518000D03*
X159258000Y-83058000D03*
X156718000Y-80518000D03*
X156718000Y-83058000D03*
X154178000Y-80518000D03*
X154178000Y-83058000D03*
X151638000Y-80518000D03*
X151638000Y-83058000D03*
X149098000Y-80518000D03*
X149098000Y-83058000D03*
X146558000Y-80518000D03*
X146558000Y-83058000D03*
X144018000Y-80518000D03*
X144018000Y-83058000D03*
X141478000Y-80518000D03*
X141478000Y-83058000D03*
X138938000Y-80518000D03*
X138938000Y-83058000D03*
X161798000Y-105918000D03*
X161798000Y-108458000D03*
X159258000Y-105918000D03*
X159258000Y-108458000D03*
X156718000Y-105918000D03*
X156718000Y-108458000D03*
X154178000Y-105918000D03*
X154178000Y-108458000D03*
X151638000Y-105918000D03*
X151638000Y-108458000D03*
X149098000Y-105918000D03*
X149098000Y-108458000D03*
X146558000Y-105918000D03*
X146558000Y-108458000D03*
X144018000Y-105918000D03*
X144018000Y-108458000D03*
X141478000Y-105918000D03*
X141478000Y-108458000D03*
X138938000Y-105918000D03*
X138938000Y-108458000D03*
D23*
X155702000Y-120396000D03*
D24*
X158242000Y-120396000D03*
D23*
X155702000Y-124460000D03*
D24*
X155702000Y-127000000D03*
X155702000Y-129540000D03*
D23*
X160274000Y-128778000D03*
D24*
X162814000Y-128778000D03*
D23*
X155697000Y-112522000D03*
D24*
X158237000Y-112522000D03*
D23*
X160269000Y-124714000D03*
D24*
X162809000Y-124714000D03*
D31*
X153430545Y-92542968D03*
X153430545Y-93642968D03*
X153430545Y-94742968D03*
X153430545Y-95842968D03*
X153430545Y-96942968D03*
X153430545Y-98042968D03*
X153430545Y-99142968D03*
X153430545Y-100242968D03*
X153430545Y-101342968D03*
D32*
X163530545Y-87042968D03*
D33*
X153930545Y-87942968D03*
D32*
X163530545Y-102542968D03*
D34*
X153930545Y-102542968D03*
D27*
X133049000Y-103124000D03*
X134874000Y-103124000D03*
D35*
X115062000Y-93968000D03*
X116332000Y-93968000D03*
X117602000Y-93968000D03*
X118872000Y-93968000D03*
X120142000Y-93968000D03*
X121412000Y-93968000D03*
X122682000Y-93968000D03*
X123952000Y-93968000D03*
X123952000Y-86868000D03*
X122682000Y-86868000D03*
X121412000Y-86868000D03*
X120142000Y-86868000D03*
X118872000Y-86868000D03*
X117602000Y-86868000D03*
X116332000Y-86868000D03*
X115062000Y-86868000D03*
D20*
X133049000Y-95128800D03*
X134874000Y-95128800D03*
D36*
X136526300Y-93874700D03*
X104576100Y-83949800D03*
X104581300Y-81705200D03*
X134649100Y-121771600D03*
X132316100Y-96415200D03*
X123339100Y-89188000D03*
X136668800Y-111473700D03*
X110239700Y-108488700D03*
X109824900Y-104034600D03*
X104462400Y-103525400D03*
X113605400Y-127079800D03*
X130055500Y-98025200D03*
X119356100Y-85459200D03*
X120203700Y-96382900D03*
X128651200Y-99871100D03*
X126557000Y-103594500D03*
X123526300Y-97043500D03*
X125073600Y-103578100D03*
X123809800Y-102941900D03*
X131904000Y-98649100D03*
X131407200Y-99880100D03*
X135158300Y-110529800D03*
X121389900Y-97014300D03*
X118652900Y-95404700D03*
X121771500Y-105056900D03*
X112250000Y-118340400D03*
X115528800Y-109714500D03*
X111723000Y-107597000D03*
X124881700Y-106351100D03*
X118296700Y-96928500D03*
X112545500Y-110461600D03*
X118056400Y-124153500D03*
X123306900Y-106332600D03*
X116985700Y-88241200D03*
X124096800Y-120182000D03*
X148929300Y-111006700D03*
X114109000Y-87430600D03*
X113709200Y-99052100D03*
X112056400Y-80665700D03*
X130884700Y-79731200D03*
X124034700Y-76944500D03*
X104543100Y-130335500D03*
X104558900Y-76720000D03*
X126509900Y-80518000D03*
D37*
X134770500Y-86615100D02*
X134770500Y-87122000D01*
X130584500Y-82429100D02*
X134770500Y-86615100D01*
X124614800Y-82429100D02*
X130584500Y-82429100D01*
X123382700Y-81197000D02*
X124614800Y-82429100D01*
X117051300Y-81197000D02*
X123382700Y-81197000D01*
X116205000Y-82043300D02*
X117051300Y-81197000D01*
X116205000Y-82550000D02*
X116205000Y-82043300D01*
X117475000Y-77600000D02*
X118745000Y-77600000D01*
X120015000Y-82550000D02*
X118745000Y-82550000D01*
X117475000Y-83060500D02*
X117475000Y-82550000D01*
X118954500Y-84540000D02*
X117475000Y-83060500D01*
X127232000Y-84540000D02*
X118954500Y-84540000D01*
X129032000Y-86340000D02*
X127232000Y-84540000D01*
X132163500Y-86340000D02*
X129032000Y-86340000D01*
X132945500Y-87122000D02*
X132163500Y-86340000D01*
X134874000Y-89806300D02*
X134874000Y-92467500D01*
X135119100Y-92467500D02*
X136526300Y-93874700D01*
X134874000Y-92467500D02*
X135119100Y-92467500D01*
X134874000Y-101468300D02*
X134874000Y-100462800D01*
X137028300Y-101468300D02*
X134874000Y-101468300D01*
X141478000Y-105918000D02*
X137028300Y-101468300D01*
X134704700Y-101468300D02*
X133049000Y-103124000D01*
X134874000Y-101468300D02*
X134704700Y-101468300D01*
X143764000Y-90462700D02*
X143764000Y-93472000D01*
X150368000Y-83858700D02*
X143764000Y-90462700D01*
X150368000Y-82798700D02*
X150368000Y-83858700D01*
X151184100Y-81982600D02*
X150368000Y-82798700D01*
X155253400Y-81982600D02*
X151184100Y-81982600D01*
X156718000Y-80518000D02*
X155253400Y-81982600D01*
X110900700Y-83949800D02*
X104576100Y-83949800D01*
X114702400Y-80148100D02*
X110900700Y-83949800D01*
X120503900Y-80148100D02*
X114702400Y-80148100D01*
X122555000Y-78097000D02*
X120503900Y-80148100D01*
X122555000Y-77600000D02*
X122555000Y-78097000D01*
X112424200Y-81705200D02*
X104581300Y-81705200D01*
X115178400Y-78951000D02*
X112424200Y-81705200D01*
X119170700Y-78951000D02*
X115178400Y-78951000D01*
X120015000Y-78106700D02*
X119170700Y-78951000D01*
X120015000Y-77600000D02*
X120015000Y-78106700D01*
X145385700Y-95297000D02*
X143764000Y-95297000D01*
X146448700Y-94234000D02*
X145385700Y-95297000D01*
X147574000Y-94234000D02*
X146448700Y-94234000D01*
X133049000Y-94670700D02*
X133049000Y-95128800D01*
X126371600Y-87993300D02*
X133049000Y-94670700D01*
X123952000Y-87993300D02*
X126371600Y-87993300D01*
X123952000Y-86868000D02*
X123952000Y-87993300D01*
X133049000Y-89806300D02*
X133049000Y-88530800D01*
X120142000Y-86868000D02*
X120142000Y-85742700D01*
X120642300Y-85242400D02*
X120142000Y-85742700D01*
X125108600Y-85242400D02*
X120642300Y-85242400D01*
X128397000Y-88530800D02*
X125108600Y-85242400D01*
X133049000Y-88530800D02*
X128397000Y-88530800D01*
X133135600Y-88530800D02*
X133049000Y-88530800D01*
X133858000Y-87808400D02*
X133135600Y-88530800D01*
X133858000Y-86433400D02*
X133858000Y-87808400D01*
X132589200Y-85164600D02*
X133858000Y-86433400D01*
X128564300Y-85164600D02*
X132589200Y-85164600D01*
X127391400Y-83991700D02*
X128564300Y-85164600D01*
X122204000Y-83991700D02*
X127391400Y-83991700D01*
X121285000Y-83072700D02*
X122204000Y-83991700D01*
X121285000Y-82550000D02*
X121285000Y-83072700D01*
X152296500Y-127000000D02*
X154476700Y-127000000D01*
X151638000Y-126341500D02*
X152296500Y-127000000D01*
X155702000Y-127000000D02*
X154476700Y-127000000D01*
X115072000Y-128021000D02*
X116247300Y-128021000D01*
X155697000Y-112522000D02*
X155237600Y-112981400D01*
X155237500Y-112981400D02*
X155237600Y-112981400D01*
X154931300Y-112981400D02*
X155237500Y-112981400D01*
X152643700Y-115269000D02*
X154931300Y-112981400D01*
X151638000Y-115269000D02*
X152643700Y-115269000D01*
X116247300Y-128388400D02*
X116247300Y-128021000D01*
X117055200Y-129196300D02*
X116247300Y-128388400D01*
X146121200Y-129196300D02*
X117055200Y-129196300D01*
X146822000Y-128495500D02*
X146121200Y-129196300D01*
X146822000Y-127594200D02*
X146822000Y-128495500D01*
X147578000Y-126838200D02*
X146822000Y-127594200D01*
X148703800Y-126838200D02*
X147578000Y-126838200D01*
X150923000Y-129057400D02*
X148703800Y-126838200D01*
X153363900Y-129057400D02*
X150923000Y-129057400D01*
X154195900Y-128225400D02*
X153363900Y-129057400D01*
X156241900Y-128225400D02*
X154195900Y-128225400D01*
X156927400Y-127539900D02*
X156241900Y-128225400D01*
X156927400Y-114671300D02*
X156927400Y-127539900D01*
X155237600Y-112981400D02*
X156927400Y-114671300D01*
X135516700Y-120904000D02*
X134649100Y-121771600D01*
X151638000Y-120904000D02*
X135516700Y-120904000D01*
X154857700Y-117684300D02*
X151638000Y-120904000D01*
X155702000Y-117684300D02*
X154857700Y-117684300D01*
X155702000Y-116459000D02*
X155702000Y-117684300D01*
X155702000Y-120396000D02*
X155702000Y-121621300D01*
X154476700Y-121621300D02*
X151638000Y-124460000D01*
X155702000Y-121621300D02*
X154476700Y-121621300D01*
X99892300Y-97040000D02*
X104267600Y-97040000D01*
X149709500Y-95504000D02*
X150876000Y-94337500D01*
X147574000Y-95504000D02*
X149709500Y-95504000D01*
X131957900Y-96057000D02*
X132316100Y-96415200D01*
X131957800Y-96057000D02*
X131957900Y-96057000D01*
X131957800Y-95477700D02*
X131957800Y-96057000D01*
X126974800Y-90494700D02*
X131957800Y-95477700D01*
X110812900Y-90494700D02*
X126974800Y-90494700D01*
X104267600Y-97040000D02*
X110812900Y-90494700D01*
X104984400Y-94500000D02*
X99892300Y-94500000D01*
X109490100Y-89994300D02*
X104984400Y-94500000D01*
X122532800Y-89994300D02*
X109490100Y-89994300D01*
X123339100Y-89188000D02*
X122532800Y-89994300D01*
X152255300Y-102760700D02*
X149098000Y-105918000D01*
X152255300Y-99143000D02*
X152255300Y-102760700D01*
X153430600Y-99143000D02*
X152255300Y-99143000D01*
X153430600Y-96943000D02*
X152255300Y-96943000D01*
X146558000Y-102640300D02*
X152255300Y-96943000D01*
X146558000Y-105918000D02*
X146558000Y-102640300D01*
X152388500Y-105918000D02*
X151638000Y-105918000D01*
X155137400Y-103169100D02*
X152388500Y-105918000D01*
X155137400Y-95274500D02*
X155137400Y-103169100D01*
X154605900Y-94743000D02*
X155137400Y-95274500D01*
X153430600Y-94743000D02*
X154605900Y-94743000D01*
X142748000Y-81788000D02*
X144018000Y-80518000D01*
X141218700Y-81788000D02*
X142748000Y-81788000D01*
X140402600Y-82604100D02*
X141218700Y-81788000D01*
X140402600Y-83128900D02*
X140402600Y-82604100D01*
X135274600Y-88256900D02*
X140402600Y-83128900D01*
X134770900Y-88256900D02*
X135274600Y-88256900D01*
X133961500Y-89066300D02*
X134770900Y-88256900D01*
X133961500Y-90537100D02*
X133961500Y-89066300D01*
X133601400Y-90897200D02*
X133961500Y-90537100D01*
X130055800Y-90897200D02*
X133601400Y-90897200D01*
X124901300Y-85742700D02*
X130055800Y-90897200D01*
X121412000Y-85742700D02*
X124901300Y-85742700D01*
X121412000Y-86868000D02*
X121412000Y-85742700D01*
X121285000Y-77105800D02*
X121285000Y-77600000D01*
X122175600Y-76215200D02*
X121285000Y-77105800D01*
X122904400Y-76215200D02*
X122175600Y-76215200D01*
X123245200Y-76556000D02*
X122904400Y-76215200D01*
X123245200Y-78949900D02*
X123245200Y-76556000D01*
X124000900Y-79705600D02*
X123245200Y-78949900D01*
X129232500Y-79705600D02*
X124000900Y-79705600D01*
X130006200Y-78931900D02*
X129232500Y-79705600D01*
X144971900Y-78931900D02*
X130006200Y-78931900D01*
X146558000Y-80518000D02*
X144971900Y-78931900D01*
X153430600Y-93643000D02*
X154605900Y-93643000D01*
X155637800Y-94674900D02*
X154605900Y-93643000D01*
X155637800Y-104458200D02*
X155637800Y-94674900D01*
X154178000Y-105918000D02*
X155637800Y-104458200D01*
X99892300Y-102120000D02*
X104267600Y-102120000D01*
X129884700Y-111473700D02*
X136668800Y-111473700D01*
X129042000Y-112316400D02*
X129884700Y-111473700D01*
X129042000Y-113239000D02*
X129042000Y-112316400D01*
X127822000Y-114459000D02*
X129042000Y-113239000D01*
X114357500Y-114459000D02*
X127822000Y-114459000D01*
X105484600Y-105586100D02*
X114357500Y-114459000D01*
X105484600Y-103337000D02*
X105484600Y-105586100D01*
X104267600Y-102120000D02*
X105484600Y-103337000D01*
X109824900Y-108073900D02*
X109824900Y-104034600D01*
X110239700Y-108488700D02*
X109824900Y-108073900D01*
X132852000Y-112781000D02*
X131676700Y-112781000D01*
X131676700Y-113148300D02*
X131676700Y-112781000D01*
X129865700Y-114959300D02*
X131676700Y-113148300D01*
X114149600Y-114959300D02*
X129865700Y-114959300D01*
X104462400Y-105272100D02*
X114149600Y-114959300D01*
X104462400Y-103525400D02*
X104462400Y-105272100D01*
X125232000Y-128021000D02*
X124056700Y-128021000D01*
X113839600Y-126845600D02*
X113605400Y-127079800D01*
X123245600Y-126845600D02*
X113839600Y-126845600D01*
X124056700Y-127656700D02*
X123245600Y-126845600D01*
X124056700Y-128021000D02*
X124056700Y-127656700D01*
X126813800Y-98025200D02*
X126111000Y-98728000D01*
X130055500Y-98025200D02*
X126813800Y-98025200D01*
X119072600Y-85742700D02*
X119356100Y-85459200D01*
X118872000Y-85742700D02*
X119072600Y-85742700D01*
X118872000Y-86868000D02*
X118872000Y-85742700D01*
X118491000Y-98095600D02*
X120203700Y-96382900D01*
X118491000Y-98728000D02*
X118491000Y-98095600D01*
X127509800Y-99871100D02*
X128651200Y-99871100D01*
X126744200Y-100636700D02*
X127509800Y-99871100D01*
X122431700Y-100636700D02*
X126744200Y-100636700D01*
X121031000Y-99236000D02*
X122431700Y-100636700D01*
X121031000Y-98728000D02*
X121031000Y-99236000D01*
X124085100Y-107513900D02*
X123571000Y-108028000D01*
X124085100Y-105992500D02*
X124085100Y-107513900D01*
X126483100Y-103594500D02*
X124085100Y-105992500D01*
X126557000Y-103594500D02*
X126483100Y-103594500D01*
X137422400Y-97790000D02*
X134874000Y-97790000D01*
X145288000Y-105655600D02*
X137422400Y-97790000D01*
X145288000Y-106177300D02*
X145288000Y-105655600D01*
X146104100Y-106993400D02*
X145288000Y-106177300D01*
X150173400Y-106993400D02*
X146104100Y-106993400D01*
X151638000Y-108458000D02*
X150173400Y-106993400D01*
X134874000Y-97790000D02*
X134874000Y-95128800D01*
X123571000Y-97088200D02*
X123526300Y-97043500D01*
X123571000Y-98728000D02*
X123571000Y-97088200D01*
X115951000Y-107505700D02*
X115951000Y-108028000D01*
X121290100Y-102166600D02*
X115951000Y-107505700D01*
X126893700Y-102166600D02*
X121290100Y-102166600D01*
X127539000Y-102811900D02*
X126893700Y-102166600D01*
X129617500Y-102811900D02*
X127539000Y-102811900D01*
X130385800Y-102043600D02*
X129617500Y-102811900D01*
X133078600Y-102043600D02*
X130385800Y-102043600D01*
X133961500Y-101160700D02*
X133078600Y-102043600D01*
X133961500Y-99728000D02*
X133961500Y-101160700D01*
X134322800Y-99366700D02*
X133961500Y-99728000D01*
X136477800Y-99366700D02*
X134322800Y-99366700D01*
X142748000Y-105636900D02*
X136477800Y-99366700D01*
X142748000Y-106177300D02*
X142748000Y-105636900D01*
X143564100Y-106993400D02*
X142748000Y-106177300D01*
X144082800Y-106993400D02*
X143564100Y-106993400D01*
X145093400Y-108004000D02*
X144082800Y-106993400D01*
X145093400Y-108530300D02*
X145093400Y-108004000D01*
X146122100Y-109559000D02*
X145093400Y-108530300D01*
X147997000Y-109559000D02*
X146122100Y-109559000D01*
X149098000Y-108458000D02*
X147997000Y-109559000D01*
X121031000Y-107437000D02*
X121031000Y-108028000D01*
X124889900Y-103578100D02*
X121031000Y-107437000D01*
X125073600Y-103578100D02*
X124889900Y-103578100D01*
X153430600Y-95843000D02*
X152255300Y-95843000D01*
X152822700Y-85749300D02*
X153228000Y-85344000D01*
X152822700Y-91806200D02*
X152822700Y-85749300D01*
X154443600Y-91806200D02*
X152822700Y-91806200D01*
X156718000Y-94080600D02*
X154443600Y-91806200D01*
X156718000Y-105918000D02*
X156718000Y-94080600D01*
X152255300Y-91942900D02*
X152255300Y-95843000D01*
X152392000Y-91806200D02*
X152255300Y-91942900D01*
X152822700Y-91806200D02*
X152392000Y-91806200D01*
X118491000Y-107189400D02*
X118491000Y-108028000D01*
X122738500Y-102941900D02*
X118491000Y-107189400D01*
X123809800Y-102941900D02*
X122738500Y-102941900D01*
X105525000Y-91960000D02*
X99892300Y-91960000D01*
X114935000Y-82550000D02*
X105525000Y-91960000D01*
X99892300Y-99580000D02*
X104267600Y-99580000D01*
X113349900Y-112734900D02*
X113349900Y-111249100D01*
X114573700Y-113958700D02*
X113349900Y-112734900D01*
X115637000Y-113958700D02*
X114573700Y-113958700D01*
X116253900Y-113341800D02*
X115637000Y-113958700D01*
X116253900Y-111541800D02*
X116253900Y-113341800D01*
X114681000Y-109968900D02*
X116253900Y-111541800D01*
X114681000Y-108028000D02*
X114681000Y-109968900D01*
X106585800Y-101898200D02*
X104267600Y-99580000D01*
X106585800Y-105938800D02*
X106585800Y-101898200D01*
X111896100Y-111249100D02*
X106585800Y-105938800D01*
X113349900Y-111249100D02*
X111896100Y-111249100D01*
X115951000Y-98207500D02*
X115951000Y-98728000D01*
X115054000Y-97310500D02*
X115951000Y-98207500D01*
X114311900Y-97310500D02*
X115054000Y-97310500D01*
X112931700Y-98690700D02*
X114311900Y-97310500D01*
X112931700Y-99454300D02*
X112931700Y-98690700D01*
X113349900Y-99872500D02*
X112931700Y-99454300D01*
X113349900Y-111249100D02*
X113349900Y-99872500D01*
X132487000Y-101024800D02*
X133049000Y-100462800D01*
X127325900Y-101024800D02*
X132487000Y-101024800D01*
X127213600Y-101137100D02*
X127325900Y-101024800D01*
X117837700Y-101137100D02*
X127213600Y-101137100D01*
X115951000Y-99250400D02*
X117837700Y-101137100D01*
X115951000Y-98728000D02*
X115951000Y-99250400D01*
X137932000Y-112781000D02*
X136756700Y-112781000D01*
X99892300Y-109740000D02*
X104267600Y-109740000D01*
X122682000Y-93968000D02*
X122682000Y-95093300D01*
X136756700Y-113146300D02*
X136756700Y-112781000D01*
X134443400Y-115459600D02*
X136756700Y-113146300D01*
X109987200Y-115459600D02*
X134443400Y-115459600D01*
X104267600Y-109740000D02*
X109987200Y-115459600D01*
X125216200Y-97627400D02*
X122682000Y-95093300D01*
X124841000Y-98002600D02*
X125216200Y-97627400D01*
X124841000Y-98728000D02*
X124841000Y-98002600D01*
X131775900Y-98649100D02*
X131904000Y-98649100D01*
X130335100Y-97208300D02*
X131775900Y-98649100D01*
X125635300Y-97208300D02*
X130335100Y-97208300D01*
X125216200Y-97627400D02*
X125635300Y-97208300D01*
X140472000Y-112781000D02*
X139296700Y-112781000D01*
X99892300Y-112280000D02*
X104267600Y-112280000D01*
X121412000Y-93968000D02*
X121412000Y-95093300D01*
X139296700Y-113092500D02*
X139296700Y-112781000D01*
X136429300Y-115959900D02*
X139296700Y-113092500D01*
X107947500Y-115959900D02*
X136429300Y-115959900D01*
X104267600Y-112280000D02*
X107947500Y-115959900D01*
X122301000Y-95982300D02*
X122301000Y-98728000D01*
X121412000Y-95093300D02*
X122301000Y-95982300D01*
X122301000Y-99250100D02*
X122301000Y-98728000D01*
X123183500Y-100132600D02*
X122301000Y-99250100D01*
X126540600Y-100132600D02*
X123183500Y-100132600D01*
X127608800Y-99064400D02*
X126540600Y-100132600D01*
X130591500Y-99064400D02*
X127608800Y-99064400D01*
X131407200Y-99880100D02*
X130591500Y-99064400D01*
X99892300Y-114820000D02*
X104267600Y-114820000D01*
X120142000Y-93968000D02*
X120142000Y-95093300D01*
X143012000Y-112781000D02*
X141864900Y-112781000D01*
X141836700Y-112809200D02*
X141864900Y-112781000D01*
X141836700Y-113148300D02*
X141836700Y-112809200D01*
X138484900Y-116500100D02*
X141836700Y-113148300D01*
X105947700Y-116500100D02*
X138484900Y-116500100D01*
X104267600Y-114820000D02*
X105947700Y-116500100D01*
X139957900Y-110529800D02*
X135158300Y-110529800D01*
X141864900Y-112436800D02*
X139957900Y-110529800D01*
X141864900Y-112781000D02*
X141864900Y-112436800D01*
X119761000Y-98200100D02*
X119761000Y-98728000D01*
X121085300Y-96875800D02*
X119761000Y-98200100D01*
X121223700Y-97014300D02*
X121085300Y-96875800D01*
X121389900Y-97014300D02*
X121223700Y-97014300D01*
X121001200Y-95952500D02*
X120142000Y-95093300D01*
X121001200Y-96791800D02*
X121001200Y-95952500D01*
X121085300Y-96875800D02*
X121001200Y-96791800D01*
X118652900Y-95312400D02*
X118652900Y-95404700D01*
X118872000Y-95093300D02*
X118652900Y-95312400D01*
X118872000Y-93968000D02*
X118872000Y-95093300D01*
X140534200Y-117360000D02*
X104267600Y-117360000D01*
X145113200Y-112781000D02*
X140534200Y-117360000D01*
X99892300Y-117360000D02*
X104267600Y-117360000D01*
X145552000Y-112781000D02*
X145118300Y-112781000D01*
X145118300Y-112781000D02*
X145113200Y-112781000D01*
X119761000Y-107067400D02*
X121771500Y-105056900D01*
X119761000Y-108028000D02*
X119761000Y-107067400D01*
X143243000Y-110905700D02*
X145118300Y-112781000D01*
X141385700Y-110905700D02*
X143243000Y-110905700D01*
X140234500Y-109754500D02*
X141385700Y-110905700D01*
X120962000Y-109754500D02*
X140234500Y-109754500D01*
X119761000Y-108553500D02*
X120962000Y-109754500D01*
X119761000Y-108028000D02*
X119761000Y-108553500D01*
X99892300Y-119900000D02*
X104267600Y-119900000D01*
X105827200Y-118340400D02*
X112250000Y-118340400D01*
X104267600Y-119900000D02*
X105827200Y-118340400D01*
X146916700Y-113146300D02*
X146916700Y-112781000D01*
X141722600Y-118340400D02*
X146916700Y-113146300D01*
X112250000Y-118340400D02*
X141722600Y-118340400D01*
X148092000Y-112781000D02*
X146916700Y-112781000D01*
X116035800Y-109714500D02*
X115528800Y-109714500D01*
X117221000Y-108529300D02*
X116035800Y-109714500D01*
X117221000Y-108028000D02*
X117221000Y-108529300D01*
X117602000Y-93968000D02*
X117602000Y-92842700D01*
X111723000Y-95685700D02*
X111723000Y-107597000D01*
X114566000Y-92842700D02*
X111723000Y-95685700D01*
X117602000Y-92842700D02*
X114566000Y-92842700D01*
X145552000Y-128021000D02*
X144376700Y-128021000D01*
X99892300Y-122440000D02*
X104267600Y-122440000D01*
X144376700Y-127677600D02*
X144376700Y-128021000D01*
X140077300Y-123378200D02*
X144376700Y-127677600D01*
X105205800Y-123378200D02*
X140077300Y-123378200D01*
X104267600Y-122440000D02*
X105205800Y-123378200D01*
X124841000Y-106391800D02*
X124881700Y-106351100D01*
X124841000Y-108028000D02*
X124841000Y-106391800D01*
X116461500Y-95093300D02*
X118296700Y-96928500D01*
X116332000Y-95093300D02*
X116461500Y-95093300D01*
X116332000Y-93968000D02*
X116332000Y-95093300D01*
X115062000Y-93968000D02*
X115062000Y-95093300D01*
X143012000Y-128021000D02*
X141836700Y-128021000D01*
X118056400Y-124153500D02*
X118056400Y-124980000D01*
X139163000Y-124980000D02*
X118056400Y-124980000D01*
X141836700Y-127653700D02*
X139163000Y-124980000D01*
X141836700Y-128021000D02*
X141836700Y-127653700D01*
X118056400Y-124980000D02*
X99892300Y-124980000D01*
X115062000Y-95790600D02*
X114949500Y-95903100D01*
X115062000Y-95093300D02*
X115062000Y-95790600D01*
X117221000Y-98174600D02*
X117221000Y-98728000D01*
X114949500Y-95903100D02*
X117221000Y-98174600D01*
X112545500Y-105746000D02*
X112545500Y-110461600D01*
X112431400Y-105631900D02*
X112545500Y-105746000D01*
X112431400Y-98421200D02*
X112431400Y-105631900D01*
X114949500Y-95903100D02*
X112431400Y-98421200D01*
X140472000Y-128021000D02*
X139296700Y-128021000D01*
X99892300Y-127520000D02*
X104267600Y-127520000D01*
X139296700Y-127653700D02*
X139296700Y-128021000D01*
X137935700Y-126292700D02*
X139296700Y-127653700D01*
X105494900Y-126292700D02*
X137935700Y-126292700D01*
X104267600Y-127520000D02*
X105494900Y-126292700D01*
X116332000Y-86868000D02*
X116332000Y-87993300D01*
X116737800Y-87993300D02*
X116985700Y-88241200D01*
X116332000Y-87993300D02*
X116737800Y-87993300D01*
X122301000Y-107338500D02*
X123306900Y-106332600D01*
X122301000Y-108028000D02*
X122301000Y-107338500D01*
X99892300Y-81800000D02*
X99892300Y-79260000D01*
X151638000Y-122635000D02*
X150530300Y-123742700D01*
X150530300Y-127058800D02*
X151638000Y-128166500D01*
X150530300Y-123742700D02*
X150530300Y-127058800D01*
X148491500Y-98547000D02*
X141478000Y-98547000D01*
X150876000Y-96162500D02*
X148491500Y-98547000D01*
X151638000Y-117094000D02*
X151638000Y-119079000D01*
X148929300Y-111006700D02*
X150312300Y-112389700D01*
X150236400Y-112465600D02*
X150312300Y-112389700D01*
X150236400Y-115692400D02*
X150236400Y-112465600D01*
X151638000Y-117094000D02*
X150236400Y-115692400D01*
X150312300Y-112389700D02*
X151384000Y-111318000D01*
X115062000Y-86868000D02*
X115062000Y-87430600D01*
X122682000Y-86868000D02*
X122682000Y-87993300D01*
X115062000Y-87430600D02*
X114109000Y-87430600D01*
X121657900Y-89017400D02*
X122682000Y-87993300D01*
X116529700Y-89017400D02*
X121657900Y-89017400D01*
X115062000Y-87549700D02*
X116529700Y-89017400D01*
X115062000Y-87430600D02*
X115062000Y-87549700D01*
X99892300Y-79260000D02*
X104267600Y-79260000D01*
X132605100Y-120182000D02*
X133873700Y-121450600D01*
X124096800Y-120182000D02*
X132605100Y-120182000D01*
X136245300Y-119079000D02*
X133873700Y-121450600D01*
X151638000Y-119079000D02*
X136245300Y-119079000D01*
X149334600Y-122547000D02*
X150530300Y-123742700D01*
X134327900Y-122547000D02*
X149334600Y-122547000D01*
X133873700Y-122092800D02*
X134327900Y-122547000D01*
X133873700Y-121450600D02*
X133873700Y-122092800D01*
X123240900Y-87993300D02*
X122682000Y-87993300D01*
X124721600Y-89474000D02*
X123240900Y-87993300D01*
X126238000Y-89474000D02*
X124721600Y-89474000D01*
X114935000Y-77062200D02*
X114935000Y-77600000D01*
X116823700Y-75173500D02*
X114935000Y-77062200D01*
X123431900Y-75173500D02*
X116823700Y-75173500D01*
X124810000Y-76551600D02*
X123431900Y-75173500D01*
X124810000Y-78710000D02*
X124810000Y-76551600D01*
X124714000Y-78806000D02*
X124810000Y-78710000D01*
X111328600Y-79260000D02*
X104267600Y-79260000D01*
X112056400Y-79987800D02*
X111328600Y-79260000D01*
X112056400Y-80665700D02*
X112056400Y-79987800D01*
X114444200Y-77600000D02*
X114935000Y-77600000D01*
X112056400Y-79987800D02*
X114444200Y-77600000D01*
X114477400Y-99052100D02*
X113709200Y-99052100D01*
X114477400Y-98931600D02*
X114477400Y-99052100D01*
X114681000Y-98728000D02*
X114477400Y-98931600D01*
X113999200Y-104787500D02*
X117106000Y-101680700D01*
X113999200Y-110532900D02*
X113999200Y-104787500D01*
X115072000Y-111605700D02*
X113999200Y-110532900D01*
X114477400Y-99052100D02*
X117106000Y-101680700D01*
X115072000Y-112781000D02*
X115072000Y-111605700D01*
X117120400Y-101666300D02*
X117106000Y-101680700D01*
X128016300Y-101666300D02*
X117120400Y-101666300D01*
X128270000Y-101920000D02*
X128016300Y-101666300D01*
X116205000Y-77105800D02*
X116205000Y-77600000D01*
X117596000Y-75714800D02*
X116205000Y-77105800D01*
X123133100Y-75714800D02*
X117596000Y-75714800D01*
X124034700Y-76616400D02*
X123133100Y-75714800D01*
X124034700Y-76944500D02*
X124034700Y-76616400D01*
X131173300Y-79442600D02*
X130884700Y-79731200D01*
X144514600Y-79442600D02*
X131173300Y-79442600D01*
X145288000Y-80216000D02*
X144514600Y-79442600D01*
X145288000Y-81788000D02*
X145288000Y-80216000D01*
X146558000Y-83058000D02*
X145288000Y-81788000D01*
X99892300Y-130060000D02*
X104267600Y-130060000D01*
X104543100Y-130335500D02*
X104267600Y-130060000D01*
X162809000Y-124714000D02*
X162809000Y-125939300D01*
X162809000Y-124714000D02*
X162809000Y-124101300D01*
X165955000Y-119231100D02*
X165955000Y-118328000D01*
X162759300Y-122426800D02*
X165955000Y-119231100D01*
X160728500Y-120396000D02*
X162759300Y-122426800D01*
X158242000Y-120396000D02*
X160728500Y-120396000D01*
X162809000Y-122476500D02*
X162809000Y-124101300D01*
X162759300Y-122426800D02*
X162809000Y-122476500D01*
X158242000Y-113752300D02*
X158237000Y-113747300D01*
X158242000Y-116459000D02*
X158242000Y-113752300D01*
X158237000Y-112522000D02*
X158237000Y-113747300D01*
X99892300Y-76720000D02*
X104267600Y-76720000D01*
X104267600Y-76720000D02*
X104558900Y-76720000D01*
X158237000Y-112522000D02*
X157011700Y-112522000D01*
X152550800Y-112051200D02*
X152550800Y-111283300D01*
X151384000Y-113218000D02*
X152550800Y-112051200D01*
X156729200Y-111283300D02*
X155253400Y-111283300D01*
X157011700Y-111565800D02*
X156729200Y-111283300D01*
X157011700Y-112522000D02*
X157011700Y-111565800D01*
X155253400Y-111283300D02*
X152550800Y-111283300D01*
X133961500Y-93380000D02*
X133049000Y-92467500D01*
X133961500Y-94003300D02*
X133961500Y-93380000D01*
X147574000Y-92964000D02*
X146906900Y-92964000D01*
X146906900Y-92964000D02*
X146448700Y-92964000D01*
X152729100Y-84195300D02*
X154178000Y-84195300D01*
X146906900Y-90017500D02*
X152729100Y-84195300D01*
X146906900Y-92964000D02*
X146906900Y-90017500D01*
X154178000Y-83058000D02*
X154178000Y-84195300D01*
X154178000Y-84394000D02*
X155128000Y-85344000D01*
X154178000Y-84195300D02*
X154178000Y-84394000D01*
X153205400Y-101343000D02*
X153430600Y-101343000D01*
X152755700Y-101792700D02*
X153205400Y-101343000D01*
X152755700Y-103279500D02*
X152755700Y-101792700D01*
X150561800Y-105473400D02*
X152755700Y-103279500D01*
X150561800Y-106379800D02*
X150561800Y-105473400D01*
X151547000Y-107365000D02*
X150561800Y-106379800D01*
X154614400Y-107365000D02*
X151547000Y-107365000D01*
X155253400Y-108004000D02*
X154614400Y-107365000D01*
X155253400Y-111283300D02*
X155253400Y-108004000D01*
X154605900Y-101343000D02*
X154605900Y-98043000D01*
X153430600Y-101343000D02*
X154605900Y-101343000D01*
X153430600Y-98043000D02*
X154605900Y-98043000D01*
X162814000Y-125944300D02*
X162814000Y-128778000D01*
X162809000Y-125939300D02*
X162814000Y-125944300D01*
X162814000Y-128778000D02*
X161588700Y-128778000D01*
X148092000Y-128021000D02*
X148092000Y-129196300D01*
X148092000Y-130109300D02*
X148092000Y-129196300D01*
X148755000Y-130772300D02*
X148092000Y-130109300D01*
X160513400Y-130772300D02*
X148755000Y-130772300D01*
X161588700Y-129697000D02*
X160513400Y-130772300D01*
X161588700Y-128778000D02*
X161588700Y-129697000D01*
X104769300Y-130109300D02*
X104543100Y-130335500D01*
X148092000Y-130109300D02*
X104769300Y-130109300D01*
X145028200Y-94384500D02*
X146448700Y-92964000D01*
X137197600Y-94384500D02*
X145028200Y-94384500D01*
X136889800Y-94692300D02*
X137197600Y-94384500D01*
X136247500Y-94692300D02*
X136889800Y-94692300D01*
X135558500Y-94003300D02*
X136247500Y-94692300D01*
X133961500Y-94003300D02*
X135558500Y-94003300D01*
X138938000Y-80518000D02*
X126509900Y-80518000D01*
X124902000Y-80518000D02*
X124714000Y-80706000D01*
X126509900Y-80518000D02*
X124902000Y-80518000D01*
X123420300Y-83415300D02*
X122555000Y-82550000D01*
X128607300Y-83415300D02*
X123420300Y-83415300D01*
X129032000Y-83840000D02*
X128607300Y-83415300D01*
X139645700Y-108458000D02*
X138938000Y-108458000D01*
X141247100Y-110059400D02*
X139645700Y-108458000D01*
X151786000Y-110059400D02*
X141247100Y-110059400D01*
X152550800Y-110824200D02*
X151786000Y-110059400D01*
X152550800Y-111283300D02*
X152550800Y-110824200D01*
X138938000Y-108458000D02*
X134874000Y-104394000D01*
X134874000Y-104394000D02*
X134874000Y-103124000D01*
X128671800Y-104394000D02*
X134874000Y-104394000D01*
X128671800Y-105467200D02*
X128671800Y-104394000D01*
X126111000Y-108028000D02*
X128671800Y-105467200D01*
X128671800Y-104221800D02*
X128270000Y-103820000D01*
X128671800Y-104394000D02*
X128671800Y-104221800D01*
X123952000Y-93968000D02*
X123952000Y-92842700D01*
X133961500Y-96016700D02*
X132759300Y-97218900D01*
X133961500Y-94003300D02*
X133961500Y-96016700D01*
X132759300Y-97500300D02*
X133049000Y-97790000D01*
X132759300Y-97218900D02*
X132759300Y-97500300D01*
X132008800Y-97218900D02*
X126201000Y-91411000D01*
X132759300Y-97218900D02*
X132008800Y-97218900D01*
X124769300Y-92842700D02*
X126201000Y-91411000D01*
X123952000Y-92842700D02*
X124769300Y-92842700D01*
X126201000Y-91411000D02*
X126238000Y-91374000D01*
M02*
