M48
; DRILL file {KiCad 7.0.10-7.0.10~ubuntu20.04.1} date dom 18 feb 2024, 22:33:06
; FORMAT={-:-/ absolute / inch / decimal}
; #@! TF.CreationDate,2024-02-18T22:33:06+01:00
; #@! TF.GenerationSoftware,Kicad,Pcbnew,7.0.10-7.0.10~ubuntu20.04.1
; #@! TF.FileFunction,Plated,1,2,PTH
FMAT,2
INCH
; #@! TA.AperFunction,Plated,PTH,ViaDrill
T1C0.0157
; #@! TA.AperFunction,Plated,PTH,ComponentDrill
T2C0.0295
; #@! TA.AperFunction,Plated,PTH,ComponentDrill
T3C0.0315
; #@! TA.AperFunction,Plated,PTH,ComponentDrill
T4C0.0394
; #@! TA.AperFunction,Plated,PTH,ComponentDrill
T5C0.0512
%
G90
G05
T1
X4.1127Y-4.0758
X4.1159Y-5.1313
X4.1165Y-3.0205
X4.1172Y-3.3051
X4.1174Y-3.2167
X4.3238Y-4.0959
X4.3401Y-4.2712
X4.3985Y-4.2361
X4.4117Y-3.1758
X4.4193Y-4.6591
X4.4309Y-4.3489
X4.4727Y-5.0031
X4.4767Y-3.8997
X4.4925Y-3.4421
X4.5484Y-4.3195
X4.6057Y-3.4741
X4.6479Y-4.8879
X4.6574Y-3.8161
X4.6714Y-3.7561
X4.6991Y-3.3645
X4.7324Y-3.7946
X4.7791Y-3.8195
X4.7942Y-4.1361
X4.8546Y-4.1863
X4.8559Y-3.5113
X4.8632Y-3.8206
X4.8744Y-4.0528
X4.8833Y-3.0293
X4.8857Y-4.7316
X4.9166Y-4.1871
X4.9242Y-4.0779
X4.9807Y-3.17
X4.9826Y-4.0785
X5.065Y-3.9319
X5.1203Y-3.8593
X5.1529Y-3.139
X5.1735Y-3.9323
X5.1931Y-3.8838
X5.2093Y-3.7959
X5.3011Y-4.7942
X5.3212Y-4.3516
X5.3751Y-3.6959
X5.3807Y-4.3887
X5.8634Y-4.3703
T2
X5.57Y-3.5798
X5.57Y-3.8798
X5.81Y-3.66
X5.81Y-3.71
X5.81Y-3.76
T3
X4.5304Y-4.4402
X4.5304Y-5.0402
X4.6304Y-4.4402
X4.6304Y-5.0402
X4.7304Y-4.4402
X4.7304Y-5.0402
X4.8304Y-4.4402
X4.8304Y-5.0402
X4.9304Y-4.4402
X4.9304Y-5.0402
X5.0304Y-4.4402
X5.0304Y-5.0402
X5.08Y-3.3008
X5.08Y-3.3992
X5.1304Y-4.4402
X5.1304Y-5.0402
X5.2304Y-4.4402
X5.2304Y-5.0402
X5.3304Y-4.4402
X5.3304Y-5.0402
X5.4304Y-4.4402
X5.4304Y-5.0402
X5.47Y-3.17
X5.47Y-3.27
X5.47Y-4.17
X5.47Y-4.27
X5.5304Y-4.4402
X5.5304Y-5.0402
X5.57Y-3.17
X5.57Y-3.27
X5.57Y-4.17
X5.57Y-4.27
X5.6304Y-4.4402
X5.6304Y-5.0402
X5.67Y-3.17
X5.67Y-3.27
X5.67Y-4.17
X5.67Y-4.27
X5.7304Y-4.4402
X5.7304Y-5.0402
X5.77Y-3.17
X5.77Y-3.27
X5.77Y-4.17
X5.77Y-4.27
X5.8304Y-4.4402
X5.8304Y-5.0402
X5.87Y-3.17
X5.87Y-3.27
X5.87Y-4.17
X5.87Y-4.27
X5.97Y-3.17
X5.97Y-3.27
X5.97Y-4.17
X5.97Y-4.27
X6.07Y-3.17
X6.07Y-3.27
X6.07Y-4.17
X6.07Y-4.27
X6.17Y-3.17
X6.17Y-3.27
X6.17Y-4.17
X6.17Y-4.27
X6.27Y-3.17
X6.27Y-3.27
X6.27Y-4.17
X6.27Y-4.27
X6.37Y-3.17
X6.37Y-3.27
X6.37Y-4.17
X6.37Y-4.27
T4
X6.1298Y-4.43
X6.13Y-4.585
X6.13Y-4.74
X6.13Y-4.9
X6.13Y-5.0
X6.13Y-5.1
X6.2298Y-4.43
X6.23Y-4.585
X6.23Y-4.74
X6.3098Y-4.91
X6.31Y-5.07
X6.4098Y-4.91
X6.41Y-5.07
X6.5337Y-4.4814
X6.5337Y-4.6586
T5
X6.4352Y-4.4322
X6.4352Y-4.7078
M30
